<?xml version="1.0" encoding="UTF-8" standalone="no"?>
<!-- Generator: Adobe Illustrator 23.1.1, SVG Export Plug-In . SVG Version: 6.00 Build 0)  -->

<svg
   version="1.1"
   id="Layer_1"
   x="0px"
   y="0px"
   width="829.23297"
   height="154.576"
   viewBox="0 0 829.23296 154.576"
   enable-background="new 0 0 841.89 595.276"
   xml:space="preserve"
   sodipodi:docname="TabsForGood.svg"
   inkscape:version="1.1.2 (0a00cf5339, 2022-02-04)"
   xmlns:inkscape="http://www.inkscape.org/namespaces/inkscape"
   xmlns:sodipodi="http://sodipodi.sourceforge.net/DTD/sodipodi-0.dtd"
   xmlns="http://www.w3.org/2000/svg"
   xmlns:svg="http://www.w3.org/2000/svg"
   xmlns:rdf="http://www.w3.org/1999/02/22-rdf-syntax-ns#"
   xmlns:cc="http://creativecommons.org/ns#"
   xmlns:dc="http://purl.org/dc/elements/1.1/"><metadata
   id="metadata73"><rdf:RDF><cc:Work
       rdf:about=""><dc:format>image/svg+xml</dc:format><dc:type
         rdf:resource="http://purl.org/dc/dcmitype/StillImage" /></cc:Work></rdf:RDF></metadata><defs
   id="defs71">
	
	

		
	
			
			
			
			
			
			
			
			
			
			
		
				
				
				
			
				
				
				
				
			
				
				
				
				
			
				
				
				
				
				
				
				
			
				
				
			</defs><sodipodi:namedview
   pagecolor="#ffffff"
   bordercolor="#666666"
   borderopacity="1"
   objecttolerance="10"
   gridtolerance="10"
   guidetolerance="10"
   inkscape:pageopacity="0"
   inkscape:pageshadow="2"
   inkscape:window-width="3440"
   inkscape:window-height="1371"
   id="namedview69"
   showgrid="false"
   inkscape:zoom="1.585819"
   inkscape:cx="338.31099"
   inkscape:cy="73.148323"
   inkscape:window-x="0"
   inkscape:window-y="32"
   inkscape:window-maximized="1"
   inkscape:current-layer="Layer_1"
   inkscape:pagecheckerboard="0" />
<path
   d="M 189.2273,48.348267 V 16.399857 H 176.62793 V 8.9752266 h 34.31079 v 7.4246304 h -12.59937 v 31.94841 z"
   style="font-style:normal;font-weight:bold;font-size:56.2472px;line-height:1.25;font-family:Montserrat;-inkscape-font-specification:'Montserrat Bold';text-align:end;letter-spacing:4px;word-spacing:0px;text-anchor:end;stroke-width:1.12494"
   id="path76088" /><path
   d="M 212.68884,48.348267 230.23797,8.9752266 h 8.99955 L 256.8429,48.348267 h -9.56203 l -14.39928,-34.76077 h 3.59982 l -14.45553,34.76077 z m 8.77457,-8.43708 2.41863,-6.918406 h 20.24899 l 2.47488,6.918406 z"
   style="font-style:normal;font-weight:bold;font-size:56.2472px;line-height:1.25;font-family:Montserrat;-inkscape-font-specification:'Montserrat Bold';text-align:end;letter-spacing:4px;word-spacing:0px;text-anchor:end;stroke-width:1.12494"
   id="path76090" /><path
   d="M 264.94898,48.348267 V 8.9752266 h 19.23654 q 7.42463,0 11.13695,2.8123604 3.76856,2.81236 3.76856,7.42463 0,3.093596 -1.51867,5.399731 -1.51868,2.249888 -4.16229,3.487327 -2.64362,1.237438 -6.0747,1.237438 l 1.06869,-2.306135 q 3.71232,0 6.58093,1.237438 2.8686,1.181191 4.44353,3.543574 1.63116,2.362382 1.63116,5.793461 0,5.062248 -3.99355,7.930856 -3.99355,2.81236 -11.75566,2.81236 z m 9.0558,-6.862159 h 10.63072 q 3.54358,0 5.34349,-1.124944 1.85615,-1.181191 1.85615,-3.712315 0,-2.474877 -1.85615,-3.656068 -1.79991,-1.237438 -5.34349,-1.237438 h -11.30569 v -6.63717 h 9.73077 q 3.31859,0 5.06225,-1.124944 1.79991,-1.181191 1.79991,-3.543574 0,-2.306135 -1.79991,-3.431079 -1.74366,-1.181191 -5.06225,-1.181191 h -9.0558 z"
   style="font-style:normal;font-weight:bold;font-size:56.2472px;line-height:1.25;font-family:Montserrat;-inkscape-font-specification:'Montserrat Bold';text-align:end;letter-spacing:4px;word-spacing:0px;text-anchor:end;stroke-width:1.12494"
   id="path76092" /><path
   d="m 324.91491,49.023233 q -4.72476,0 -9.0558,-1.237438 -4.33103,-1.293686 -6.97465,-3.318585 l 3.0936,-6.862159 q 2.53112,1.799911 5.9622,2.981102 3.48733,1.124944 7.0309,1.124944 2.69987,0 4.33104,-0.506225 1.68741,-0.562472 2.47487,-1.518674 0.78746,-0.956203 0.78746,-2.193641 0,-1.574922 -1.23744,-2.474877 -1.23743,-0.956202 -3.26233,-1.518674 -2.0249,-0.618719 -4.49978,-1.124944 -2.41863,-0.562472 -4.89351,-1.349933 -2.41863,-0.787461 -4.44352,-2.024899 -2.0249,-1.237439 -3.31859,-3.262338 -1.23744,-2.024899 -1.23744,-5.174742 0,-3.374832 1.79991,-6.130945 1.85616,-2.81236 5.51223,-4.4435288 3.71231,-1.687416 9.28079,-1.687416 3.71231,0 7.31213,0.8999552 3.59982,0.8437076 6.35594,2.5873716 l -2.81236,6.918405 q -2.75612,-1.574921 -5.51223,-2.306135 -2.75611,-0.787461 -5.39973,-0.787461 -2.64362,0 -4.33104,0.618719 -1.68741,0.61872 -2.41862,1.631169 -0.73122,0.956203 -0.73122,2.249888 0,1.518675 1.23744,2.474877 1.23744,0.899955 3.26234,1.462427 2.0249,0.562472 4.44353,1.124944 2.47487,0.562472 4.8935,1.293686 2.47488,0.731213 4.49978,1.968652 2.0249,1.237438 3.26234,3.262337 1.29368,2.0249 1.29368,5.118496 0,3.318584 -1.85616,6.074697 -1.85615,2.756113 -5.56847,4.443529 -3.65607,1.687416 -9.28079,1.687416 z"
   style="font-style:normal;font-weight:bold;font-size:56.2472px;line-height:1.25;font-family:Montserrat;-inkscape-font-specification:'Montserrat Bold';text-align:end;letter-spacing:4px;word-spacing:0px;text-anchor:end;stroke-width:1.12494"
   id="path76094" /><path
   d="m 380.21889,26.693095 h 18.89906 v 7.312136 h -18.89906 z m 0.67497,21.655172 h -9.11205 V 8.9752266 h 29.75477 v 7.3121364 h -20.64272 z"
   style="font-style:normal;font-weight:bold;font-size:56.2472px;line-height:1.25;font-family:Montserrat;-inkscape-font-specification:'Montserrat Bold';text-align:end;letter-spacing:4px;word-spacing:0px;text-anchor:end;stroke-width:1.12494"
   id="path76096" /><path
   d="m 430.4647,49.023233 q -4.66852,0 -8.66207,-1.518674 -3.9373,-1.518675 -6.86216,-4.274788 -2.8686,-2.756112 -4.49977,-6.468428 -1.57492,-3.712315 -1.57492,-8.099596 0,-4.387282 1.57492,-8.099597 1.63117,-3.712315 4.55602,-6.468428 2.92485,-2.756113 6.86216,-4.2747874 3.9373,-1.5186744 8.54957,-1.5186744 4.66852,0 8.54958,1.5186744 3.9373,1.5186744 6.80591,4.2747874 2.92485,2.756113 4.55602,6.468428 1.63117,3.656068 1.63117,8.099597 0,4.387281 -1.63117,8.155844 -1.63117,3.712315 -4.55602,6.468428 -2.86861,2.699865 -6.80591,4.21854 -3.88106,1.518674 -8.49333,1.518674 z m -0.0562,-7.762114 q 2.64362,0 4.83726,-0.899955 2.24989,-0.899955 3.93731,-2.587371 1.68741,-1.687416 2.58737,-3.993551 0.9562,-2.306135 0.9562,-5.118495 0,-2.81236 -0.9562,-5.118496 -0.89996,-2.306135 -2.58737,-3.993551 -1.63117,-1.687416 -3.88106,-2.587371 -2.24989,-0.899955 -4.89351,-0.899955 -2.64362,0 -4.8935,0.899955 -2.19364,0.899955 -3.88106,2.587371 -1.68742,1.687416 -2.64362,3.993551 -0.89995,2.306136 -0.89995,5.118496 0,2.756112 0.89995,5.118495 0.9562,2.306135 2.58737,3.993551 1.68742,1.687416 3.93731,2.587371 2.24988,0.899955 4.8935,0.899955 z"
   style="font-style:normal;font-weight:bold;font-size:56.2472px;line-height:1.25;font-family:Montserrat;-inkscape-font-specification:'Montserrat Bold';text-align:end;letter-spacing:4px;word-spacing:0px;text-anchor:end;stroke-width:1.12494"
   id="path76098" /><path
   d="M 462.81328,48.348267 V 8.9752266 h 17.0429 q 5.28724,0 9.11205,1.7436634 3.82481,1.687416 5.90595,4.893506 2.08115,3.206091 2.08115,7.649619 0,4.387282 -2.08115,7.593372 -2.08114,3.149844 -5.90595,4.83726 -3.82481,1.687416 -9.11205,1.687416 h -11.98065 l 4.04979,-3.993552 v 14.961756 z m 25.03,0 -9.84326,-14.286789 h 9.73077 l 9.95575,14.286789 z m -15.91796,-13.949306 -4.04979,-4.274787 h 11.47442 q 4.21854,0 6.29969,-1.799911 2.08115,-1.856157 2.08115,-5.062248 0,-3.262337 -2.08115,-5.062248 -2.08115,-1.79991 -6.29969,-1.79991 h -11.47442 l 4.04979,-4.331034 z"
   style="font-style:normal;font-weight:bold;font-size:56.2472px;line-height:1.25;font-family:Montserrat;-inkscape-font-specification:'Montserrat Bold';text-align:end;letter-spacing:4px;word-spacing:0px;text-anchor:end;stroke-width:1.12494"
   id="path76100" /><path
   d="m 547.08457,49.023233 q -4.66852,0 -8.60583,-1.462427 -3.88105,-1.518675 -6.80591,-4.274787 -2.8686,-2.756113 -4.49977,-6.468428 -1.57492,-3.712316 -1.57492,-8.155844 0,-4.443529 1.57492,-8.155844 1.63117,-3.712316 4.55602,-6.468428 2.92486,-2.756113 6.86216,-4.2185404 3.9373,-1.5186744 8.66207,-1.5186744 5.23099,0 9.39328,1.7436628 4.21854,1.743664 7.08715,5.062248 l -5.84971,5.399732 q -2.13739,-2.249888 -4.66852,-3.318585 -2.53112,-1.124944 -5.51222,-1.124944 -2.86861,0 -5.23099,0.899955 -2.36239,0.899955 -4.10605,2.587371 -1.68742,1.687416 -2.64362,3.993551 -0.89995,2.306136 -0.89995,5.118496 0,2.756112 0.89995,5.062248 0.9562,2.306135 2.64362,4.049798 1.74366,1.687416 4.0498,2.587371 2.36238,0.899955 5.17474,0.899955 2.69987,0 5.23099,-0.843708 2.58737,-0.899955 5.006,-2.981101 l 5.17474,6.580922 q -3.20609,2.41863 -7.48087,3.712315 -4.21854,1.293686 -8.43708,1.293686 z m 7.59337,-6.187192 V 28.043027 h 8.32458 v 15.974205 z"
   style="font-style:normal;font-weight:bold;font-size:56.2472px;line-height:1.25;font-family:Montserrat;-inkscape-font-specification:'Montserrat Bold';text-align:end;letter-spacing:4px;word-spacing:0px;text-anchor:end;stroke-width:1.12494"
   id="path76102" /><path
   d="m 594.56367,49.023233 q -4.66852,0 -8.66207,-1.518674 -3.9373,-1.518675 -6.86216,-4.274788 -2.86861,-2.756112 -4.49977,-6.468428 -1.57493,-3.712315 -1.57493,-8.099596 0,-4.387282 1.57493,-8.099597 1.63116,-3.712315 4.55602,-6.468428 2.92485,-2.756113 6.86216,-4.2747874 3.9373,-1.5186744 8.54957,-1.5186744 4.66852,0 8.54958,1.5186744 3.9373,1.5186744 6.80591,4.2747874 2.92485,2.756113 4.55602,6.468428 1.63117,3.656068 1.63117,8.099597 0,4.387281 -1.63117,8.155844 -1.63117,3.712315 -4.55602,6.468428 -2.86861,2.699865 -6.80591,4.21854 -3.88106,1.518674 -8.49333,1.518674 z m -0.0562,-7.762114 q 2.64362,0 4.83726,-0.899955 2.24989,-0.899955 3.9373,-2.587371 1.68742,-1.687416 2.58738,-3.993551 0.9562,-2.306135 0.9562,-5.118495 0,-2.81236 -0.9562,-5.118496 -0.89996,-2.306135 -2.58738,-3.993551 -1.63116,-1.687416 -3.88105,-2.587371 -2.24989,-0.899955 -4.89351,-0.899955 -2.64362,0 -4.8935,0.899955 -2.19365,0.899955 -3.88106,2.587371 -1.68742,1.687416 -2.64362,3.993551 -0.89996,2.306136 -0.89996,5.118496 0,2.756112 0.89996,5.118495 0.9562,2.306135 2.58737,3.993551 1.68742,1.687416 3.93731,2.587371 2.24988,0.899955 4.8935,0.899955 z"
   style="font-style:normal;font-weight:bold;font-size:56.2472px;line-height:1.25;font-family:Montserrat;-inkscape-font-specification:'Montserrat Bold';text-align:end;letter-spacing:4px;word-spacing:0px;text-anchor:end;stroke-width:1.12494"
   id="path76104" /><path
   d="m 646.03629,49.023233 q -4.66851,0 -8.66206,-1.518674 -3.93731,-1.518675 -6.86216,-4.274788 -2.86861,-2.756112 -4.49978,-6.468428 -1.57492,-3.712315 -1.57492,-8.099596 0,-4.387282 1.57492,-8.099597 1.63117,-3.712315 4.55602,-6.468428 2.92486,-2.756113 6.86216,-4.2747874 3.93731,-1.5186744 8.54958,-1.5186744 4.66851,0 8.54957,1.5186744 3.93731,1.5186744 6.80591,4.2747874 2.92486,2.756113 4.55603,6.468428 1.63116,3.656068 1.63116,8.099597 0,4.387281 -1.63116,8.155844 -1.63117,3.712315 -4.55603,6.468428 -2.8686,2.699865 -6.80591,4.21854 -3.88106,1.518674 -8.49333,1.518674 z m -0.0562,-7.762114 q 2.64362,0 4.83726,-0.899955 2.24988,-0.899955 3.9373,-2.587371 1.68742,-1.687416 2.58737,-3.993551 0.9562,-2.306135 0.9562,-5.118495 0,-2.81236 -0.9562,-5.118496 -0.89995,-2.306135 -2.58737,-3.993551 -1.63117,-1.687416 -3.88106,-2.587371 -2.24988,-0.899955 -4.8935,-0.899955 -2.64362,0 -4.89351,0.899955 -2.19364,0.899955 -3.88106,2.587371 -1.68741,1.687416 -2.64361,3.993551 -0.89996,2.306136 -0.89996,5.118496 0,2.756112 0.89996,5.118495 0.9562,2.306135 2.58737,3.993551 1.68741,1.687416 3.9373,2.587371 2.24989,0.899955 4.89351,0.899955 z"
   style="font-style:normal;font-weight:bold;font-size:56.2472px;line-height:1.25;font-family:Montserrat;-inkscape-font-specification:'Montserrat Bold';text-align:end;letter-spacing:4px;word-spacing:0px;text-anchor:end;stroke-width:1.12494"
   id="path76106" /><path
   d="M 678.38487,48.348267 V 8.9752266 h 17.88661 q 6.41218,0 11.30569,2.4748764 4.89351,2.41863 7.64962,6.805912 2.75611,4.387281 2.75611,10.405732 0,5.962203 -2.75611,10.405732 -2.75611,4.387281 -7.64962,6.862158 -4.89351,2.41863 -11.30569,2.41863 z m 9.11205,-7.480878 h 8.32458 q 3.93731,0 6.80592,-1.462427 2.92485,-1.518675 4.49977,-4.274787 1.63117,-2.756113 1.63117,-6.468428 0,-3.768563 -1.63117,-6.468428 -1.57492,-2.756113 -4.49977,-4.21854 -2.86861,-1.518675 -6.80592,-1.518675 h -8.32458 z"
   style="font-style:normal;font-weight:bold;font-size:56.2472px;line-height:1.25;font-family:Montserrat;-inkscape-font-specification:'Montserrat Bold';text-align:end;letter-spacing:4px;word-spacing:0px;text-anchor:end;stroke-width:1.12494"
   id="path76108" /><path
   d="M 748.76311,48.348267 V 8.9752266 h 19.23654 q 7.42463,0 11.13694,2.8123604 3.76857,2.81236 3.76857,7.42463 0,3.093596 -1.51868,5.399731 -1.51867,2.249888 -4.16229,3.487327 -2.64362,1.237438 -6.0747,1.237438 l 1.0687,-2.306135 q 3.71231,0 6.58092,1.237438 2.86861,1.181191 4.44353,3.543574 1.63117,2.362382 1.63117,5.793461 0,5.062248 -3.99355,7.930856 -3.99355,2.81236 -11.75567,2.81236 z m 9.0558,-6.862159 h 10.63072 q 3.54357,0 5.34348,-1.124944 1.85616,-1.181191 1.85616,-3.712315 0,-2.474877 -1.85616,-3.656068 -1.79991,-1.237438 -5.34348,-1.237438 h -11.30569 v -6.63717 h 9.73077 q 3.31858,0 5.06224,-1.124944 1.79991,-1.181191 1.79991,-3.543574 0,-2.306135 -1.79991,-3.431079 -1.74366,-1.181191 -5.06224,-1.181191 h -9.0558 z"
   style="font-style:normal;font-weight:bold;font-size:56.2472px;line-height:1.25;font-family:Montserrat;-inkscape-font-specification:'Montserrat Bold';text-align:end;letter-spacing:4px;word-spacing:0px;text-anchor:end;stroke-width:1.12494"
   id="path76110" /><path
   d="m 804.73548,48.348267 v -16.0867 l 2.08115,5.512226 -17.32414,-28.7985664 h 9.67452 l 13.27434,22.1051494 h -5.56847 L 820.20346,8.9752266 h 8.94331 l -17.32414,28.7985664 2.0249,-5.512226 v 16.0867 z"
   style="font-style:normal;font-weight:bold;font-size:56.2472px;line-height:1.25;font-family:Montserrat;-inkscape-font-specification:'Montserrat Bold';text-align:end;letter-spacing:4px;word-spacing:0px;text-anchor:end;stroke-width:1.12494"
   id="path76112" /><path
   d="m 224.117,112.067 h 16.508 v 26.981 c -7.646,5.403 -18.112,8.286 -27.734,8.286 -21.044,0 -36.409,-14.053 -36.409,-33.874 0,-19.821 15.366,-33.874 36.782,-33.874 12.361,0 22.356,4.188 28.868,11.915 l -11.883,10.603 c -4.536,-4.925 -9.72,-7.249 -16.038,-7.249 -11.324,0 -18.865,7.347 -18.865,18.606 0,10.984 7.541,18.614 18.679,18.614 3.491,0 6.788,-0.648 10.093,-2.138 v -17.87 z"
   id="path2"
   inkscape:connector-curvature="0" /><path
   d="m 249.154,113.461 c 0,-19.537 15.568,-33.874 36.693,-33.874 21.133,0 36.693,14.337 36.693,33.874 0,19.545 -15.56,33.874 -36.693,33.874 -21.125,0 -36.693,-14.328 -36.693,-33.874 m 54.521,0 c 0,-11.259 -7.825,-18.614 -17.828,-18.614 -9.995,0 -17.828,7.355 -17.828,18.614 0,11.259 7.833,18.614 17.828,18.614 10.004,0 17.828,-7.355 17.828,-18.614"
   id="path4"
   inkscape:connector-curvature="0" /><path
   d="m 329.005,113.461 c 0,-19.537 15.568,-33.874 36.693,-33.874 21.133,0 36.693,14.337 36.693,33.874 0,19.545 -15.56,33.874 -36.693,33.874 -21.125,0 -36.693,-14.328 -36.693,-33.874 m 54.521,0 c 0,-11.259 -7.825,-18.614 -17.828,-18.614 -10.004,0 -17.828,7.355 -17.828,18.614 0,11.259 7.825,18.614 17.828,18.614 10.003,0 17.828,-7.355 17.828,-18.614"
   id="path6"
   inkscape:connector-curvature="0" /><path
   d="m 412.252,80.89 h 31.225 c 21.878,0 36.879,12.563 36.879,32.57 0,20.007 -15.001,32.57 -36.879,32.57 h -31.225 z m 30.472,50.438 c 11.219,0 18.76,-6.61 18.76,-17.869 0,-11.259 -7.541,-17.861 -18.76,-17.861 h -11.802 v 35.729 h 11.802 z"
   id="path8"
   inkscape:connector-curvature="0" /><polygon
   points="605.701,365.491 555.521,365.491 555.521,300.351 574.192,300.351 574.192,350.887 605.701,350.887 "
   id="polygon12"
   transform="translate(-2.553,-219.458)" /><path
   d="m 606.109,113.461 c 0,-19.537 15.568,-33.874 36.693,-33.874 21.133,0 36.693,14.337 36.693,33.874 0,19.545 -15.56,33.874 -36.693,33.874 -21.125,0 -36.693,-14.328 -36.693,-33.874 m 54.521,0 c 0,-11.259 -7.825,-18.614 -17.828,-18.614 -9.995,0 -17.828,7.355 -17.828,18.614 0,11.259 7.833,18.614 17.828,18.614 10.003,0 17.828,-7.355 17.828,-18.614"
   id="path14"
   inkscape:connector-curvature="0" /><path
   d="m 685.96,113.461 c 0,-19.537 15.568,-33.874 36.693,-33.874 21.133,0 36.693,14.337 36.693,33.874 0,19.545 -15.56,33.874 -36.693,33.874 -21.124,0 -36.693,-14.328 -36.693,-33.874 m 54.521,0 c 0,-11.259 -7.825,-18.614 -17.828,-18.614 -10.003,0 -17.828,7.355 -17.828,18.614 0,11.259 7.825,18.614 17.828,18.614 10.004,0 17.828,-7.355 17.828,-18.614"
   id="path16"
   inkscape:connector-curvature="0" /><path
   d="m 828.728,104.995 c 0,14.791 -11.324,24.008 -29.338,24.008 h -11.51 v 17.026 h -18.671 v -65.14 h 30.181 c 18.015,0.001 29.338,9.218 29.338,24.106 m -18.864,0 c 0,-6.051 -3.872,-9.59 -11.607,-9.59 h -10.376 v 19.084 h 10.376 c 7.735,-0.001 11.607,-3.54 11.607,-9.494"
   id="path18"
   inkscape:connector-curvature="0" /><rect
   x="496.21399"
   y="102.96799"
   width="34.951"
   height="19.205"
   id="rect22" /><path
   d="m 124.751,15.029 c 2.406,11.081 -1.288,25.369 -5.37,33.34 -3.029,5.897 -6.909,11.332 -11.227,16.483 -1.401,1.669 -2.851,3.305 -4.333,4.925 -0.688,-1.79 -1.272,-3.604 -1.79,-5.435 -1.515,1.855 -3.118,3.726 -4.868,5.646 0.834,2.811 1.822,5.565 3.07,8.254 2.074,4.487 5.767,12.668 11.243,13.908 2.065,0.462 3.92,-0.81 5.168,-4.973 0.332,-1.126 0.624,-2.454 0.867,-4.026 0.437,-2.884 2.608,-3.953 4.844,-3.718 0.607,0.057 1.215,0.194 1.798,0.437 2.211,0.932 4.009,3.118 3.564,6.059 -0.591,3.872 -1.863,7.168 -3.604,9.801 -4.009,6.026 -10.514,8.521 -17.099,6.164 -3.143,-1.118 -5.872,-3.11 -8.149,-5.484 -4.342,-4.544 -7.209,-10.36 -9.412,-16.151 -0.219,-0.583 -0.413,-1.166 -0.616,-1.758 -1.612,1.547 -3.183,3.038 -4.722,4.479 0.664,1.555 1.361,3.11 2.155,4.625 -1.515,1.49 -3.029,2.989 -4.487,4.487 -2.867,2.948 -5.743,5.978 -8.521,9.113 -1.555,-1.369 -3.216,-2.633 -4.917,-3.856 -1.66,1.482 -3.24,2.892 -4.755,4.253 4.641,3.362 8.618,7.816 11.47,12.847 1.061,1.863 1.96,3.831 2.616,5.864 3.945,12.223 -0.275,28.447 -13.179,33.032 4.504,0.794 9.121,1.231 13.851,1.231 43.262,0 78.343,-34.603 78.343,-77.29 -0.002,-25.54 -12.573,-48.187 -31.94,-62.257"
   id="path24"
   inkscape:connector-curvature="0"
   style="fill:#af2009" /><path
   d="m 100.38,57.337 c 1.563,-1.863 3.102,-3.758 4.528,-5.735 5.808,-8.027 9.501,-16.573 9.655,-26.657 0.065,-4.633 -0.907,-11.923 -4.892,-13.786 -1.474,-0.688 -3.337,-0.664 -5.727,0.535 -0.17,0.081 -0.324,0.202 -0.494,0.292 -8.772,4.925 -9.744,19.821 -9.931,28.366 -0.073,3.305 0.04,6.634 0.284,9.955 -0.024,0.049 0,0.356 0.057,0.883 0.535,6.358 1.498,12.701 3.305,18.8 1.75,-1.92 3.353,-3.791 4.86,-5.646 -0.657,-2.309 -1.2,-4.642 -1.645,-7.007"
   id="path26"
   inkscape:connector-curvature="0"
   style="fill:#770f00" /><path
   d="m 67.651,96.843 c -0.94,-0.656 -1.887,-1.304 -2.843,-1.944 1.976,-2.219 3.961,-4.39 5.881,-6.431 3.621,-3.848 7.411,-7.59 11.21,-11.332 0.348,1.053 0.713,2.09 1.102,3.118 0.348,0.915 0.729,1.822 1.118,2.722 1.539,-1.442 3.102,-2.924 4.714,-4.471 C 85.982,70.397 84.362,61.576 83.487,53.184 82.151,40.37 82.475,26.195 88.153,14.466 89.976,10.683 92.9,7.038 96.439,4.333 97.225,3.742 98.043,3.199 98.885,2.705 92.332,0.955 85.455,0 78.343,0 35.081,0 0,34.603 0,77.29 c 0,28.439 15.584,53.274 38.783,66.695 -5.889,-10.732 -0.94,-25.677 7.517,-33.777 0.381,-0.373 1.409,-1.296 1.409,-1.296 0,0 2.227,1.345 4.617,3.329 1.166,-1.199 2.438,-2.446 3.775,-3.734 -2.73,-2.13 -5.508,-4.171 -8.448,-6.124 -3.872,-2.576 -7.954,-5.2 -10.992,-8.748 C 27.2,82.57 26.001,64.443 35.26,52.916 c 0.81,-1.013 1.669,-1.985 2.641,-2.884 4.779,-4.415 10.23,-6.278 15.593,-6.148 8.084,0.178 15.933,4.925 20.857,12.579 1.831,2.843 0.462,5.573 -1.814,6.885 -0.583,0.332 -1.223,0.575 -1.879,0.705 -1.952,0.381 -4.082,-0.203 -5.443,-2.325 -4.22,-6.553 -11.154,-9.21 -17.107,-6.107 -1.75,0.915 -3.418,2.3 -4.909,4.269 -0.178,0.235 -0.324,0.478 -0.486,0.713 -5.37,7.873 -3.904,19.31 2.09,26.374 5.022,5.929 12.012,9.833 18.403,14.321 0.13,0.097 0.251,0.211 0.381,0.308 1.523,-1.361 3.094,-2.778 4.755,-4.261 -0.237,-0.162 -0.456,-0.34 -0.691,-0.502"
   id="path28"
   inkscape:connector-curvature="0"
   style="fill:#770f00" /><path
   d="m 52.327,112.245 c 1.175,0.972 2.373,2.09 3.378,3.305 0.154,0.178 -3.831,4.253 -4.228,4.755 -1.855,2.309 -3.264,4.99 -3.985,7.857 -1.345,5.378 -0.275,12.701 5.176,15.552 8.343,4.366 16.249,-5.702 15.973,-13.786 -0.243,-7.055 -2.876,-13.559 -8.286,-18.022 -1.417,-1.166 -2.835,-2.284 -4.253,-3.394 -1.337,1.278 -2.609,2.526 -3.775,3.733"
   id="path30"
   inkscape:connector-curvature="0"
   style="fill:#af2009" />

</svg>
