<?xml version="1.0" encoding="UTF-8"?>
<svg xmlns="http://www.w3.org/2000/svg" xml:space="preserve" version="1.1" viewBox="0 0 829.23 154.58">
  <g stroke-width="1.1249">
    <path d="M189.23 48.348V16.4h-12.599V8.975h34.311V16.4h-12.599v31.948zM212.69 48.348l17.549-39.373h9l17.605 39.373h-9.562l-14.4-34.761h3.6l-14.456 34.761zm8.775-8.437 2.418-6.919h20.25l2.474 6.919zM264.95 48.348V8.975h19.237q7.425 0 11.137 2.812 3.769 2.813 3.769 7.425 0 3.094-1.52 5.4-1.518 2.25-4.161 3.487-2.644 1.237-6.075 1.237l1.069-2.306q3.712 0 6.58 1.238 2.87 1.18 4.444 3.543 1.631 2.363 1.631 5.794 0 5.062-3.993 7.93-3.994 2.813-11.756 2.813zm9.056-6.862h10.63q3.544 0 5.344-1.125 1.856-1.181 1.856-3.712 0-2.475-1.856-3.656-1.8-1.238-5.343-1.238H273.33v-6.637h9.73q3.32 0 5.063-1.125 1.8-1.181 1.8-3.544 0-2.306-1.8-3.43-1.744-1.182-5.062-1.182h-9.056zM324.91 49.023q-4.725 0-9.056-1.237-4.33-1.294-6.974-3.319l3.093-6.862q2.531 1.8 5.962 2.98 3.488 1.126 7.031 1.126 2.7 0 4.331-.506 1.688-.563 2.475-1.52.788-.955.788-2.193 0-1.575-1.238-2.475-1.237-.956-3.262-1.518-2.025-.619-4.5-1.125-2.418-.563-4.893-1.35-2.419-.788-4.444-2.025-2.025-1.237-3.318-3.262-1.238-2.025-1.238-5.175 0-3.375 1.8-6.13 1.856-2.813 5.512-4.444Q320.692 8.3 326.26 8.3q3.712 0 7.312.9 3.6.844 6.356 2.588l-2.812 6.918q-2.756-1.575-5.513-2.306-2.756-.788-5.4-.788t-4.33.62q-1.688.618-2.419 1.63-.731.956-.731 2.25 0 1.519 1.237 2.475 1.238.9 3.263 1.462t4.443 1.125q2.475.563 4.894 1.294 2.475.731 4.5 1.969 2.024 1.237 3.262 3.262 1.293 2.025 1.293 5.119 0 3.318-1.856 6.074t-5.568 4.444q-3.656 1.687-9.281 1.687zM380.22 26.693h18.899v7.312H380.22zm.675 21.655h-9.112V8.975h29.755v7.312h-20.643zM430.46 49.023q-4.668 0-8.662-1.519-3.937-1.518-6.862-4.274-2.869-2.757-4.5-6.469-1.575-3.712-1.575-8.1 0-4.387 1.575-8.1 1.631-3.711 4.556-6.468t6.862-4.274q3.937-1.519 8.55-1.519 4.668 0 8.55 1.519 3.937 1.518 6.805 4.274 2.925 2.757 4.556 6.469 1.631 3.656 1.631 8.1 0 4.387-1.63 8.155-1.632 3.713-4.557 6.469-2.868 2.7-6.806 4.218-3.88 1.519-8.493 1.519zm-.056-7.762q2.643 0 4.837-.9 2.25-.9 3.937-2.587 1.688-1.688 2.588-3.994.956-2.306.956-5.119t-.956-5.118q-.9-2.306-2.588-3.994-1.63-1.687-3.88-2.587t-4.894-.9-4.894.9q-2.193.9-3.88 2.587t-2.644 3.994q-.9 2.306-.9 5.118 0 2.757.9 5.119.956 2.306 2.587 3.994 1.687 1.687 3.937 2.587 2.25.9 4.894.9zM462.81 48.348V8.975h17.043q5.287 0 9.112 1.744 3.825 1.687 5.906 4.893 2.081 3.206 2.081 7.65 0 4.387-2.081 7.593-2.081 3.15-5.906 4.837t-9.112 1.688h-11.981l4.05-3.994v14.962zm25.03 0-9.843-14.287h9.73l9.956 14.287zm-15.918-13.949-4.05-4.275h11.474q4.219 0 6.3-1.8 2.081-1.856 2.081-5.062 0-3.262-2.081-5.062-2.081-1.8-6.3-1.8h-11.474l4.05-4.331zM547.08 49.023q-4.668 0-8.606-1.462-3.88-1.52-6.806-4.275-2.868-2.756-4.5-6.469-1.574-3.712-1.574-8.155 0-4.444 1.574-8.156 1.632-3.712 4.556-6.469 2.925-2.756 6.863-4.218 3.937-1.519 8.662-1.519 5.23 0 9.393 1.744 4.219 1.744 7.087 5.062l-5.85 5.4q-2.137-2.25-4.668-3.319-2.531-1.125-5.512-1.125-2.869 0-5.231.9-2.362.9-4.106 2.588-1.687 1.687-2.644 3.993-.9 2.306-.9 5.119 0 2.756.9 5.062.957 2.306 2.644 4.05 1.744 1.687 4.05 2.587 2.362.9 5.174.9 2.7 0 5.231-.844 2.588-.9 5.006-2.98l5.175 6.58q-3.206 2.419-7.48 3.713-4.22 1.293-8.438 1.293zm7.593-6.187V28.043h8.325v15.974zM594.56 49.023q-4.668 0-8.662-1.519-3.937-1.518-6.862-4.274-2.869-2.757-4.5-6.469-1.575-3.712-1.575-8.1 0-4.387 1.575-8.1 1.631-3.711 4.556-6.468 2.925-2.756 6.862-4.274 3.937-1.519 8.55-1.519 4.668 0 8.55 1.519 3.937 1.518 6.805 4.274 2.925 2.757 4.556 6.469 1.631 3.656 1.631 8.1 0 4.387-1.63 8.155-1.632 3.713-4.557 6.469-2.868 2.7-6.806 4.218-3.88 1.519-8.493 1.519zm-.056-7.762q2.643 0 4.837-.9 2.25-.9 3.937-2.587 1.688-1.688 2.588-3.994.956-2.306.956-5.119t-.956-5.118q-.9-2.306-2.588-3.994-1.63-1.687-3.88-2.587t-4.894-.9-4.894.9q-2.193.9-3.88 2.587-1.688 1.688-2.644 3.994-.9 2.306-.9 5.118 0 2.757.9 5.119.956 2.306 2.587 3.994 1.688 1.687 3.937 2.587 2.25.9 4.894.9zM646.04 49.023q-4.668 0-8.662-1.519-3.937-1.518-6.862-4.274-2.869-2.757-4.5-6.469-1.575-3.712-1.575-8.1 0-4.387 1.575-8.1 1.631-3.711 4.556-6.468 2.925-2.756 6.862-4.274 3.937-1.519 8.55-1.519 4.668 0 8.55 1.519 3.937 1.518 6.805 4.274 2.925 2.757 4.556 6.469 1.631 3.656 1.631 8.1 0 4.387-1.63 8.155-1.632 3.713-4.557 6.469-2.868 2.7-6.806 4.218-3.88 1.519-8.493 1.519zm-.056-7.762q2.643 0 4.837-.9 2.25-.9 3.937-2.587t2.588-3.994q.956-2.306.956-5.119t-.956-5.118q-.9-2.306-2.588-3.994-1.63-1.687-3.88-2.587-2.25-.9-4.894-.9t-4.894.9q-2.193.9-3.88 2.587-1.688 1.688-2.644 3.994-.9 2.306-.9 5.118 0 2.757.9 5.119.956 2.306 2.587 3.994 1.687 1.687 3.937 2.587t4.894.9zM678.38 48.348V8.975h17.887q6.412 0 11.306 2.475 4.894 2.419 7.65 6.806 2.756 4.387 2.756 10.406 0 5.962-2.756 10.406-2.756 4.387-7.65 6.862-4.893 2.419-11.306 2.419zm9.112-7.48h8.325q3.937 0 6.805-1.463 2.925-1.519 4.5-4.275 1.632-2.756 1.632-6.469 0-3.768-1.632-6.468-1.575-2.756-4.5-4.218-2.868-1.52-6.805-1.52h-8.325zM748.76 48.348V8.975h19.237q7.425 0 11.137 2.812 3.769 2.813 3.769 7.425 0 3.094-1.52 5.4-1.518 2.25-4.161 3.487-2.644 1.237-6.075 1.237l1.069-2.306q3.712 0 6.58 1.238 2.87 1.18 4.444 3.543 1.631 2.363 1.631 5.794 0 5.062-3.993 7.93-3.994 2.813-11.756 2.813zm9.056-6.862h10.63q3.544 0 5.344-1.125 1.856-1.181 1.856-3.712 0-2.475-1.856-3.656-1.8-1.238-5.343-1.238H757.14v-6.637h9.73q3.32 0 5.063-1.125 1.8-1.181 1.8-3.544 0-2.306-1.8-3.43-1.744-1.182-5.062-1.182h-9.056zM804.74 48.348V32.261l2.081 5.512-17.324-28.799h9.675l13.274 22.105h-5.569l13.331-22.105h8.944l-17.324 28.8 2.024-5.513v16.087z"/>
  </g>
  <path d="M224.12 112.07h16.508v26.981c-7.646 5.403-18.112 8.286-27.734 8.286-21.044 0-36.409-14.053-36.409-33.874s15.366-33.874 36.782-33.874c12.361 0 22.356 4.188 28.868 11.915l-11.883 10.603c-4.536-4.925-9.72-7.249-16.038-7.249-11.324 0-18.865 7.347-18.865 18.606 0 10.984 7.541 18.614 18.679 18.614 3.491 0 6.788-.648 10.093-2.138v-17.87zM249.15 113.46c0-19.537 15.568-33.874 36.693-33.874 21.133 0 36.693 14.337 36.693 33.874 0 19.545-15.56 33.874-36.693 33.874-21.125 0-36.693-14.328-36.693-33.874m54.521 0c0-11.259-7.825-18.614-17.828-18.614-9.995 0-17.828 7.355-17.828 18.614s7.833 18.614 17.828 18.614c10.004 0 17.828-7.355 17.828-18.614M329 113.46c0-19.537 15.568-33.874 36.693-33.874 21.133 0 36.693 14.337 36.693 33.874 0 19.545-15.56 33.874-36.693 33.874-21.125 0-36.693-14.328-36.693-33.874m54.521 0c0-11.259-7.825-18.614-17.828-18.614-10.004 0-17.828 7.355-17.828 18.614s7.825 18.614 17.828 18.614 17.828-7.355 17.828-18.614M412.25 80.89h31.225c21.878 0 36.879 12.563 36.879 32.57s-15.001 32.57-36.879 32.57H412.25zm30.472 50.438c11.219 0 18.76-6.61 18.76-17.869s-7.541-17.861-18.76-17.861H430.92v35.729h11.802zM603.147 146.03h-50.18V80.89h18.67v50.54h31.51zM606.11 113.46c0-19.537 15.568-33.874 36.693-33.874 21.133 0 36.693 14.337 36.693 33.874 0 19.545-15.56 33.874-36.693 33.874-21.125 0-36.693-14.328-36.693-33.874m54.521 0c0-11.259-7.825-18.614-17.828-18.614-9.995 0-17.828 7.355-17.828 18.614s7.833 18.614 17.828 18.614c10.003 0 17.828-7.355 17.828-18.614M685.96 113.46c0-19.537 15.568-33.874 36.693-33.874 21.133 0 36.693 14.337 36.693 33.874 0 19.545-15.56 33.874-36.693 33.874-21.124 0-36.693-14.328-36.693-33.874m54.521 0c0-11.259-7.825-18.614-17.828-18.614s-17.828 7.355-17.828 18.614 7.825 18.614 17.828 18.614c10.004 0 17.828-7.355 17.828-18.614M828.73 105c0 14.791-11.324 24.008-29.338 24.008h-11.51v17.026h-18.671v-65.14h30.181c18.015.001 29.338 9.218 29.338 24.106m-18.864 0c0-6.051-3.872-9.59-11.607-9.59h-10.376v19.084h10.376c7.735-.001 11.607-3.54 11.607-9.494M496.21 102.97h34.951v19.205H496.21z"/>
  <path fill="#af2009" d="M124.75 15.029c2.406 11.081-1.288 25.369-5.37 33.34-3.029 5.897-6.909 11.332-11.227 16.483a153.95 153.95 0 0 1-4.333 4.925 62.653 62.653 0 0 1-1.79-5.435 136.649 136.649 0 0 1-4.868 5.646c.834 2.811 1.822 5.565 3.07 8.254 2.074 4.487 5.767 12.668 11.243 13.908 2.065.462 3.92-.81 5.168-4.973.332-1.126.624-2.454.867-4.026.437-2.884 2.608-3.953 4.844-3.718a6.157 6.157 0 0 1 1.798.437c2.211.932 4.009 3.118 3.564 6.059-.591 3.872-1.863 7.168-3.604 9.801-4.009 6.026-10.514 8.521-17.099 6.164-3.143-1.118-5.872-3.11-8.149-5.484-4.342-4.544-7.209-10.36-9.412-16.151-.219-.583-.413-1.166-.616-1.758a529.35 529.35 0 0 1-4.722 4.479c.664 1.555 1.361 3.11 2.155 4.625a292.03 292.03 0 0 0-4.487 4.487c-2.867 2.948-5.743 5.978-8.521 9.113-1.555-1.369-3.216-2.633-4.917-3.856-1.66 1.482-3.24 2.892-4.755 4.253 4.641 3.362 8.618 7.816 11.47 12.847 1.061 1.863 1.96 3.831 2.616 5.864 3.945 12.223-.275 28.447-13.179 33.032a79.634 79.634 0 0 0 13.851 1.231c43.262 0 78.343-34.603 78.343-77.29-.002-25.54-12.573-48.187-31.94-62.257"/>
  <path fill="#770f00" d="M100.38 57.337c1.563-1.863 3.102-3.758 4.528-5.735 5.808-8.027 9.501-16.573 9.655-26.657.065-4.633-.907-11.923-4.892-13.786-1.474-.688-3.337-.664-5.727.535-.17.081-.324.202-.494.292-8.772 4.925-9.744 19.821-9.931 28.366-.073 3.305.04 6.634.284 9.955-.024.049 0 .356.057.883.535 6.358 1.498 12.701 3.305 18.8 1.75-1.92 3.353-3.791 4.86-5.646a78.823 78.823 0 0 1-1.645-7.007"/>
  <path fill="#770f00" d="M67.651 96.843a177.8 177.8 0 0 0-2.843-1.944 321.211 321.211 0 0 1 5.881-6.431c3.621-3.848 7.411-7.59 11.21-11.332.348 1.053.713 2.09 1.102 3.118.348.915.729 1.822 1.118 2.722a542.146 542.146 0 0 0 4.714-4.471c-2.851-8.108-4.471-16.929-5.346-25.321-1.336-12.814-1.012-26.989 4.666-38.718 1.823-3.783 4.747-7.428 8.286-10.133a25.766 25.766 0 0 1 2.446-1.628A79.475 79.475 0 0 0 78.343 0C35.081 0 0 34.603 0 77.29c0 28.439 15.584 53.274 38.783 66.695-5.889-10.732-.94-25.677 7.517-33.777.381-.373 1.409-1.296 1.409-1.296s2.227 1.345 4.617 3.329a164.836 164.836 0 0 1 3.775-3.734c-2.73-2.13-5.508-4.171-8.448-6.124-3.872-2.576-7.954-5.2-10.992-8.748C27.2 82.57 26.001 64.443 35.26 52.916c.81-1.013 1.669-1.985 2.641-2.884 4.779-4.415 10.23-6.278 15.593-6.148 8.084.178 15.933 4.925 20.857 12.579 1.831 2.843.462 5.573-1.814 6.885a6.291 6.291 0 0 1-1.879.705c-1.952.381-4.082-.203-5.443-2.325-4.22-6.553-11.154-9.21-17.107-6.107-1.75.915-3.418 2.3-4.909 4.269-.178.235-.324.478-.486.713-5.37 7.873-3.904 19.31 2.09 26.374 5.022 5.929 12.012 9.833 18.403 14.321.13.097.251.211.381.308 1.523-1.361 3.094-2.778 4.755-4.261-.237-.162-.456-.34-.691-.502"/>
  <path fill="#af2009" d="M52.327 112.24c1.175.972 2.373 2.09 3.378 3.305.154.178-3.831 4.253-4.228 4.755-1.855 2.309-3.264 4.99-3.985 7.857-1.345 5.378-.275 12.701 5.176 15.552 8.343 4.366 16.249-5.702 15.973-13.786-.243-7.055-2.876-13.559-8.286-18.022a222.307 222.307 0 0 0-4.253-3.394 134.63 134.63 0 0 0-3.775 3.733"/>
</svg>
