<?xml version="1.0" encoding="UTF-8"?>
<svg id="Grid" xmlns="http://www.w3.org/2000/svg" viewBox="0 0 600 120">
  <defs>
    <style>
      .cls-1 {
        stroke-width: 0px;
      }
    </style>
  </defs>
  <rect class="cls-1" x="288.88" y="40.52" width="41.35" height="17.6"/>
  <path class="cls-1" d="m39.56,59.58h19.51v.72c-.96,12.45-8.14,19.87-18.91,19.87-13.77,0-22.26-11.37-22.26-30.88,0-18.43,8.26-30.76,22.5-30.76,10.29,0,17.12,6.1,18.91,17.72l12.69-4.07c-2.63-15.08-13.17-25.97-31.12-25.97C18.37,6.2,3.17,22.71,3.17,49.89s14.36,42.37,33.87,42.37c13.65,0,21.55-7.66,24.54-17.6v15.8h10.77v-41.89h-32.8v11.01Z"/>
  <path class="cls-1" d="m110.77,30.02c-16.04,0-28.25,11.61-28.25,30.88s12.09,30.88,28.25,30.88,28.49-11.37,28.49-30.88-12.33-30.88-28.49-30.88Zm0,51.23c-8.86,0-14.36-7.06-14.36-20.35s5.51-20.23,14.36-20.23,14.48,7.06,14.48,20.23-5.51,20.35-14.48,20.35Z"/>
  <path class="cls-1" d="m174.92,30.02c-16.04,0-28.25,11.61-28.25,30.88s12.09,30.88,28.25,30.88,28.49-11.37,28.49-30.88-12.33-30.88-28.49-30.88Zm0,51.23c-8.86,0-14.36-7.06-14.36-20.35s5.51-20.23,14.36-20.23,14.48,7.06,14.48,20.23-5.51,20.35-14.48,20.35Z"/>
  <path class="cls-1" d="m254.28,42.94c-2.87-6.94-8.98-12.57-18.79-12.57-14.48,0-24.54,11.73-24.54,30.76s10.05,30.76,23.94,30.76c9.7,0,16.4-5.27,19.63-12.69v11.25h13.53V7.99h-13.77v34.95Zm-14.6,38.78c-9.34,0-14.84-7.18-14.84-20.71s5.63-20.47,14.96-20.47,14.72,7.66,14.72,20.59-5.63,20.59-14.84,20.59Z"/>
  <polygon class="cls-1" points="365.47 7.99 351.1 7.99 351.1 90.46 403.65 90.46 403.65 77.66 365.47 77.66 365.47 7.99"/>
  <path class="cls-1" d="m436.68,30.02c-16.04,0-28.25,11.61-28.25,30.88s12.09,30.88,28.25,30.88,28.49-11.37,28.49-30.88-12.33-30.88-28.49-30.88Zm0,51.23c-8.86,0-14.36-7.06-14.36-20.35s5.51-20.23,14.36-20.23,14.48,7.06,14.48,20.23-5.51,20.35-14.48,20.35Z"/>
  <path class="cls-1" d="m500.84,30.02c-16.04,0-28.25,11.61-28.25,30.88s12.09,30.88,28.25,30.88,28.49-11.37,28.49-30.88-12.33-30.88-28.49-30.88Zm0,51.23c-8.86,0-14.36-7.06-14.36-20.35s5.51-20.23,14.36-20.23,14.48,7.06,14.48,20.23-5.51,20.35-14.48,20.35Z"/>
  <path class="cls-1" d="m573.25,30.49c-10.06,0-17,5.63-20.11,13.29v-11.97h-13.29v81.99h13.65v-34.35c2.99,6.94,9.22,12.45,19.03,12.45,14.24,0,24.3-11.73,24.3-30.88s-9.94-30.52-23.58-30.52Zm-5.03,51.35c-9.1,0-14.96-7.78-14.96-20.71,0-12.21,5.74-20.59,15.08-20.59s14.6,7.42,14.6,20.83-5.63,20.47-14.72,20.47Z"/>
</svg>