<?xml version="1.0" encoding="UTF-8"?>
<svg id="Grid" xmlns="http://www.w3.org/2000/svg" viewBox="0 0 600 180">
  <defs>
    <style>
      .cls-1 {
        stroke-width: 0px;
      }
    </style>
  </defs>
  <path class="cls-1" d="m80.61,45.46c-16.13,0-29.2,13.07-29.2,29.2s13.07,29.2,29.2,29.2,29.2-13.07,29.2-29.2c0-6.6-2.19-12.69-5.89-17.58h12.43v-11.63h-35.75Zm17.57,29.2c0,9.69-7.88,17.57-17.57,17.57s-17.57-7.88-17.57-17.57,7.88-17.57,17.57-17.57,17.57,7.88,17.57,17.57Z"/>
  <path class="cls-1" d="m57.19,92.19h-11.63c0,26.64,20.09,46.73,46.73,46.73v-11.63c-20.01,0-35.1-15.09-35.1-35.1Z"/>
  <path class="cls-1" d="m87.27,8.5C42.33,8.5,5.77,45.06,5.77,90s36.56,81.5,81.5,81.5,81.5-36.56,81.5-81.5S132.21,8.5,87.27,8.5Zm0,151.37c-38.53,0-69.87-31.34-69.87-69.87S48.74,20.13,87.27,20.13s69.87,31.34,69.87,69.87-31.34,69.87-69.87,69.87Z"/>
  <rect class="cls-1" x="391.63" y="84.64" width="27.2" height="11.58"/>
  <path class="cls-1" d="m227.59,97.19h12.84v.47c-.63,8.19-5.35,13.07-12.44,13.07-9.06,0-14.65-7.48-14.65-20.32,0-12.13,5.43-20.24,14.81-20.24,6.77,0,11.26,4.02,12.44,11.66l8.35-2.68c-1.73-9.92-8.66-17.09-20.47-17.09-14.81,0-24.81,10.87-24.81,28.74s9.45,27.88,22.29,27.88c8.98,0,14.18-5.04,16.14-11.58v10.39h7.09v-27.56h-21.58v7.24Z"/>
  <path class="cls-1" d="m274.44,77.74c-10.55,0-18.59,7.64-18.59,20.32s7.95,20.32,18.59,20.32,18.74-7.48,18.74-20.32-8.11-20.32-18.74-20.32Zm0,33.71c-5.83,0-9.45-4.65-9.45-13.39s3.62-13.31,9.45-13.31,9.53,4.65,9.53,13.31-3.62,13.39-9.53,13.39Z"/>
  <path class="cls-1" d="m316.65,77.74c-10.55,0-18.58,7.64-18.58,20.32s7.95,20.32,18.58,20.32,18.74-7.48,18.74-20.32-8.11-20.32-18.74-20.32Zm0,33.71c-5.83,0-9.45-4.65-9.45-13.39s3.62-13.31,9.45-13.31,9.53,4.65,9.53,13.31-3.62,13.39-9.53,13.39Z"/>
  <path class="cls-1" d="m368.86,86.24c-1.89-4.57-5.91-8.27-12.36-8.27-9.53,0-16.14,7.72-16.14,20.24s6.61,20.24,15.75,20.24c6.38,0,10.79-3.47,12.92-8.35v7.4h8.9v-54.26h-9.06v23Zm-9.61,25.52c-6.14,0-9.77-4.73-9.77-13.62s3.7-13.47,9.84-13.47,9.69,5.04,9.69,13.55-3.7,13.55-9.76,13.55Z"/>
  <polygon class="cls-1" points="442.01 63.24 432.56 63.24 432.56 117.5 467.14 117.5 467.14 109.08 442.01 109.08 442.01 63.24"/>
  <path class="cls-1" d="m488.87,77.74c-10.55,0-18.58,7.64-18.58,20.32s7.95,20.32,18.58,20.32,18.74-7.48,18.74-20.32-8.11-20.32-18.74-20.32Zm0,33.71c-5.83,0-9.45-4.65-9.45-13.39s3.62-13.31,9.45-13.31,9.53,4.65,9.53,13.31-3.62,13.39-9.53,13.39Z"/>
  <path class="cls-1" d="m531.08,77.74c-10.55,0-18.58,7.64-18.58,20.32s7.95,20.32,18.58,20.32,18.74-7.48,18.74-20.32-8.11-20.32-18.74-20.32Zm0,33.71c-5.83,0-9.45-4.65-9.45-13.39s3.62-13.31,9.45-13.31,9.53,4.65,9.53,13.31-3.62,13.39-9.53,13.39Z"/>
  <path class="cls-1" d="m578.72,78.05c-6.61,0-11.18,3.7-13.23,8.74v-7.88h-8.74v53.94h8.98v-22.6c1.97,4.57,6.06,8.19,12.52,8.19,9.37,0,15.99-7.72,15.99-20.32s-6.54-20.08-15.51-20.08Zm-3.31,33.78c-5.98,0-9.84-5.12-9.84-13.62,0-8.03,3.78-13.55,9.92-13.55s9.61,4.88,9.61,13.7-3.7,13.47-9.69,13.47Z"/>
</svg>