<?xml version="1.0" encoding="UTF-8"?>
<svg id="Layer_1" data-name="Layer 1" xmlns="http://www.w3.org/2000/svg" viewBox="0 0 600 520">
  <defs>
    <style>
      .cls-1 {
        fill: #f6f6f1;
        stroke-width: 0px;
      }
    </style>
  </defs>
  <path class="cls-1" d="m300,328.04c87.9,0,159.4-71.51,159.4-159.4S387.9,9.24,300,9.24s-159.4,71.51-159.4,159.4,71.51,159.4,159.4,159.4Zm0-296.31c75.49,0,136.91,61.42,136.91,136.91s-61.42,136.91-136.91,136.91-136.91-61.42-136.91-136.91S224.51,31.73,300,31.73Z"/>
  <path class="cls-1" d="m304.32,265.21v-23.99c-34.73,0-62.98-28.25-62.98-62.98v-7.5h-23.99v7.5c0,47.96,39.02,86.98,86.98,86.98Z"/>
  <path class="cls-1" d="m288.81,194.07c32.75,0,59.31-26.55,59.31-59.31,0-13.15-4.29-25.29-11.53-35.13h24.82v-23.99h-68.11c-1.48-.11-2.98-.19-4.49-.19-32.75,0-59.31,26.55-59.31,59.31s26.55,59.31,59.31,59.31Zm0-94.62c1.06,0,2.11.06,3.15.15v.04h.48c17.77,1.83,31.68,16.88,31.68,35.13,0,19.47-15.84,35.31-35.31,35.31s-35.31-15.84-35.31-35.31,15.84-35.31,35.31-35.31Z"/>
  <rect class="cls-1" x="289.24" y="439.8" width="40.03" height="17.04"/>
  <path class="cls-1" d="m47.83,458.26h18.89v.7c-.93,12.05-7.88,19.24-18.31,19.24-13.33,0-21.56-11.01-21.56-29.9,0-17.85,8-29.78,21.79-29.78,9.97,0,16.57,5.91,18.31,17.15l12.28-3.94c-2.55-14.6-12.75-25.15-30.13-25.15-21.79,0-36.51,15.99-36.51,42.3s13.91,41.03,32.8,41.03c13.21,0,20.86-7.42,23.76-17.04v15.3h10.43v-40.56h-31.75v10.66Z"/>
  <path class="cls-1" d="m116.78,429.64c-15.53,0-27.35,11.24-27.35,29.9s11.71,29.9,27.35,29.9,27.58-11.01,27.58-29.9-11.94-29.9-27.58-29.9Zm0,49.6c-8.58,0-13.91-6.84-13.91-19.7s5.33-19.59,13.91-19.59,14.02,6.84,14.02,19.59-5.33,19.7-14.02,19.7Z"/>
  <path class="cls-1" d="m178.9,429.64c-15.53,0-27.35,11.24-27.35,29.9s11.71,29.9,27.35,29.9,27.58-11.01,27.58-29.9-11.94-29.9-27.58-29.9Zm0,49.6c-8.58,0-13.91-6.84-13.91-19.7s5.33-19.59,13.91-19.59,14.02,6.84,14.02,19.59-5.33,19.7-14.02,19.7Z"/>
  <path class="cls-1" d="m255.73,442.15c-2.78-6.72-8.69-12.17-18.2-12.17-14.02,0-23.76,11.36-23.76,29.79s9.74,29.78,23.18,29.78c9.39,0,15.88-5.1,19.01-12.28v10.89h13.1v-79.85h-13.33v33.84Zm-14.14,37.55c-9.04,0-14.37-6.95-14.37-20.05s5.45-19.82,14.49-19.82,14.26,7.42,14.26,19.93-5.45,19.93-14.37,19.93Z"/>
  <polygon class="cls-1" points="363.39 408.31 349.48 408.31 349.48 488.16 400.36 488.16 400.36 475.76 363.39 475.76 363.39 408.31"/>
  <path class="cls-1" d="m432.34,429.64c-15.53,0-27.35,11.24-27.35,29.9s11.7,29.9,27.35,29.9,27.58-11.01,27.58-29.9-11.94-29.9-27.58-29.9Zm0,49.6c-8.58,0-13.91-6.84-13.91-19.7s5.33-19.59,13.91-19.59,14.02,6.84,14.02,19.59-5.33,19.7-14.02,19.7Z"/>
  <path class="cls-1" d="m494.46,429.64c-15.53,0-27.35,11.24-27.35,29.9s11.7,29.9,27.35,29.9,27.58-11.01,27.58-29.9-11.94-29.9-27.58-29.9Zm0,49.6c-8.58,0-13.91-6.84-13.91-19.7s5.33-19.59,13.91-19.59,14.02,6.84,14.02,19.59-5.33,19.7-14.02,19.7Z"/>
  <path class="cls-1" d="m564.57,430.1c-9.74,0-16.46,5.45-19.47,12.86v-11.59h-12.87v79.39h13.21v-33.26c2.9,6.72,8.92,12.05,18.43,12.05,13.79,0,23.53-11.36,23.53-29.9s-9.62-29.55-22.83-29.55Zm-4.87,49.72c-8.81,0-14.49-7.53-14.49-20.05,0-11.82,5.56-19.93,14.6-19.93s14.14,7.19,14.14,20.17-5.45,19.82-14.26,19.82Z"/>
</svg>