<?xml version="1.0" encoding="UTF-8"?>
<svg id="Layer_1" data-name="Layer 1" xmlns="http://www.w3.org/2000/svg" viewBox="0 0 600 600">
  <defs>
    <style>
      .cls-1 {
        fill: #f6f6f1;
        stroke-width: 0px;
      }
    </style>
  </defs>
  <path class="cls-1" d="m300,13.91C142.25,13.91,13.91,142.25,13.91,300s128.34,286.09,286.09,286.09,286.09-128.34,286.09-286.09S457.75,13.91,300,13.91Zm0,531.36c-135.24,0-245.27-110.03-245.27-245.27S164.76,54.73,300,54.73s245.27,110.03,245.27,245.27-110.03,245.27-245.27,245.27Z"/>
  <path class="cls-1" d="m276.26,143.76c-56.61,0-102.51,45.89-102.51,102.51s45.89,102.51,102.51,102.51,102.51-45.89,102.51-102.51c0-23.17-7.7-44.54-20.66-61.71h41.3v-40.82h-123.15v.03Zm61.68,102.51c0,34.01-27.67,61.68-61.68,61.68s-61.68-27.67-61.68-61.68,27.67-61.68,61.68-61.68,61.68,27.67,61.68,61.68Z"/>
  <path class="cls-1" d="m194.07,307.86h-40.82c0,93.52,70.52,164.04,164.04,164.04v-40.82c-70.24,0-123.22-52.97-123.22-123.22Z"/>
</svg>