<?xml version="1.0" encoding="utf-8"?>
<!-- Generator: Adobe Illustrator 26.0.1, SVG Export Plug-In . SVG Version: 6.00 Build 0)  -->
<svg version="1.1" id="Layer_1" xmlns="http://www.w3.org/2000/svg" xmlns:xlink="http://www.w3.org/1999/xlink" x="0px" y="0px"
	 width="604px" height="604px" viewBox="0 0 604 604" style="enable-background:new 0 0 604 604;" xml:space="preserve">
<style type="text/css">
	.st0{fill:url(#SVGID_1_);}
	.st1{fill:url(#SVGID_00000111153250787889683890000011290983610025916326_);}
	.st2{fill:url(#SVGID_00000067222514897085105150000017731705806948234927_);}
	.st3{fill:url(#SVGID_00000079470387988506309400000012697842876344338585_);}
	.st4{fill:url(#SVGID_00000182499792654344129080000016964863995574339969_);}
	.st5{fill:url(#SVGID_00000001630143591249752180000018372070232133731207_);}
	.st6{fill:url(#SVGID_00000000191586751602801820000009783874220905957285_);}
	.st7{fill:url(#SVGID_00000106137428244352534080000001733806932129589677_);}
	.st8{fill:url(#SVGID_00000081611545015852914940000014641597433056805791_);}
	.st9{fill:url(#SVGID_00000124156312326777158400000008911954165002872990_);}
	.st10{fill:url(#SVGID_00000115507577104142832340000006042048431137892270_);}
	.st11{fill:url(#SVGID_00000062166699204394641870000002703686884211084162_);}
	.st12{fill:url(#SVGID_00000128483271216713781680000007715456828100679342_);}
	.st13{fill:url(#SVGID_00000164473332357793449750000009838642969069330871_);}
	.st14{fill:url(#SVGID_00000178195136368459116410000018385205127679532448_);}
	.st15{fill:url(#SVGID_00000070120060649201213770000002469067428352870809_);}
	.st16{fill:url(#SVGID_00000057122914192991851610000003104642343128439471_);}
	.st17{fill:url(#SVGID_00000180348717640302088970000011791237526964911273_);}
	.st18{fill:url(#SVGID_00000045603179968432734870000014158976162816842651_);}
	.st19{fill:url(#SVGID_00000063616358391752533600000006131138580417656755_);}
	.st20{fill:url(#SVGID_00000044863534102428310910000008670826695998336161_);}
	.st21{fill:url(#SVGID_00000008848317591194636970000004949172855251707308_);}
	.st22{fill:url(#SVGID_00000147924747823237729660000004799923176637206660_);}
	.st23{fill:url(#SVGID_00000041998134701464338280000013690480850284260518_);}
	.st24{fill:url(#SVGID_00000057123676619447002640000000550951818551554719_);}
	.st25{fill:url(#SVGID_00000119077862270637429940000017446025094621431179_);}
	.st26{fill:url(#SVGID_00000007418419820811547020000012002383958139170484_);}
	.st27{fill:url(#SVGID_00000051373712389724022780000003900466622928583337_);}
	.st28{fill:#FFFFFF;}
	.st29{fill:url(#SVGID_00000075857629755390858680000017145812451259491207_);}
	.st30{fill:url(#SVGID_00000096765336306864246750000003530710613003821965_);}
	.st31{fill:url(#SVGID_00000170986488231163906180000011527008873555595944_);}
	.st32{fill:url(#SVGID_00000032621454369587878670000005166963058449395084_);}
	.st33{fill:url(#SVGID_00000044891154257940067850000005190278504623780737_);}
	.st34{fill:url(#SVGID_00000059296623890846217800000014982972354404214196_);}
	.st35{fill:url(#SVGID_00000111187601534295944160000008314293933081385602_);}
	.st36{fill:url(#SVGID_00000042017270375116843500000012648120904754437789_);}
	.st37{fill:url(#SVGID_00000180353045824050674390000005891868352131692676_);}
	.st38{fill:url(#SVGID_00000104676856350401913130000010440503335098998696_);}
	.st39{fill:url(#SVGID_00000060005235960204348860000015549673353829318293_);}
	.st40{fill:url(#SVGID_00000111176763682466555390000005567452368086214812_);}
	.st41{fill:url(#SVGID_00000074435835137126826700000006493934645551975830_);}
	.st42{fill:url(#SVGID_00000009569667502722218790000001814791976272937890_);}
	.st43{fill:url(#SVGID_00000129190256413603531440000009703829552219674537_);}
	.st44{fill:url(#SVGID_00000042000125273896208550000010606898680611930801_);}
	.st45{fill:url(#SVGID_00000041998386400289705280000001415116601646744975_);}
	.st46{fill:url(#SVGID_00000099663141671835977320000014992444646747468452_);}
	.st47{fill:url(#SVGID_00000065762139357202148130000014717047296271482797_);}
	.st48{fill:url(#SVGID_00000111187431233855111170000003088108161900069307_);}
	.st49{fill:url(#SVGID_00000139275285626741836250000011990008062982897794_);}
	.st50{fill:url(#SVGID_00000064342761964744044670000004392567042051812273_);}
	.st51{fill:url(#SVGID_00000071531953237056421950000005663015348974698887_);}
	.st52{fill:url(#SVGID_00000031898519261181207540000014986043822985361584_);}
	.st53{fill:url(#SVGID_00000151506862915469123560000010390715479585755303_);}
	.st54{fill:url(#SVGID_00000146483556821437402510000001328339891436741808_);}
	.st55{fill:url(#SVGID_00000051361085467078124580000006463408329577571763_);}
	.st56{fill:url(#SVGID_00000020399332509660482390000010870324851584495777_);}
	.st57{fill:url(#SVGID_00000137131457392143710300000010512762136419463852_);}
	.st58{fill:url(#SVGID_00000052065805255988760670000008072834836611243668_);}
	.st59{fill:url(#SVGID_00000088100915837039438780000003967825550095841702_);}
	.st60{fill:url(#SVGID_00000052095607456775981120000014107295221674381224_);}
	.st61{fill:url(#SVGID_00000064315363840268809020000015831903492297865137_);}
	.st62{fill:url(#SVGID_00000098939446926207216440000004721464730929023668_);}
</style>
<path class="st28" d="M457.8,78.1c-0.6,5.9-1.8,11.5-2.9,16.9c-2.1,10-4.3,20.3-2.6,32.2c2.4,16.7,10.7,32.2,23.6,43.7
	c9.8,8.8,13,10.1,14.7,10.1c0.4,0,0.7-0.1,1-0.1c1.6-0.3,3-1.4,3.7-2.8c0.6-1.2,1.1-2.4,1.6-3.6l0.3-0.7
	c11.5-27.5,14.9-51.9,10.3-72.4C502.7,79.7,486,42.1,454.3,38c-0.2,0-0.4,0-0.6-0.1c-0.1,0-0.1,0-0.2,0c-1.5-0.1-3.1,0.4-4.2,1.5
	c-2.8,2.8-1.2,5.9,0.6,9.4C452.8,54.8,459,66.9,457.8,78.1z M462.6,125.9c-1.4-10.1,0.5-19.1,2.4-28.7c1.2-5.7,2.4-11.5,3.1-18
	c0.2-2.2,0.2-4.4,0.1-6.6c5.4,9,10.4,19.3,12.4,29c2.2,10.5,1.4,20.2,0.6,29.7c-0.9,10.4-1.8,21.1,1.7,32.1c0,0,0,0-0.1-0.1
	C471.8,153.4,464.6,140.1,462.6,125.9z M497.5,103.7c3.5,15.5,1.7,33.8-5.4,54.5c-2.2-8.3-1.5-16.8-0.7-26.1
	c0.8-9.7,1.8-20.7-0.8-32.7c-3.4-16.1-13.5-32.9-21.8-44.6C483.2,65.1,493.4,85.3,497.5,103.7z"/>
<path class="st28" d="M306.1,118.2c-15.3,1.6-26.4,2.8-32.7-2.1c-0.1-0.1-0.2-0.2-0.3-0.2c-0.1-0.1-0.2-0.1-0.3-0.2
	c-0.5-0.3-1.1-0.5-1.7-0.6c-0.1,0-0.2,0-0.3,0c-0.2,0-0.4,0-0.6,0c-0.1,0-0.2,0-0.3,0c-0.2,0-0.4,0-0.6,0.1c-0.1,0-0.2,0-0.3,0.1
	c-0.3,0.1-0.6,0.2-0.9,0.3c0,0,0,0,0,0c-0.2,0.1-0.5,0.2-0.7,0.4c0,0-0.1,0.1-0.1,0.1c0,0-0.1,0-0.1,0c-0.1,0-0.1,0.1-0.1,0.1
	c-0.2,0.1-0.4,0.3-0.5,0.5c-0.1,0.1-0.1,0.2-0.2,0.2c-0.1,0.2-0.3,0.3-0.4,0.5c0,0.1-0.1,0.1-0.1,0.2c-0.2,0.3-0.3,0.5-0.4,0.8
	c0,0.1,0,0.1-0.1,0.2c-0.1,0.2-0.1,0.5-0.2,0.7c0,0.1,0,0.2,0,0.3c0,0.2,0,0.4,0,0.6c0,0.1,0,0.2,0,0.3c0,0.2,0,0.4,0.1,0.6
	c0,0.1,0,0.2,0.1,0.3c0,0,0,0.1,0,0.1c0.2,0.6,4.3,15.7,15,31.9c14.4,21.7,33.9,35,56.4,38.3c29.8,4.4,47,2.9,60.8,1.7
	c10.5-0.9,18.8-1.7,30.1,0.2c17.2,2.8,27.1,10.5,31.3,14.6c0.9,1,1.8,2,2.7,3c0.1,0.1,0.2,0.2,0.3,0.3c0.1,0.1,0.2,0.2,0.4,0.3
	c0.2,0.1,0.4,0.3,0.6,0.4c0.1,0.1,0.2,0.2,0.4,0.2c0.2,0.1,0.5,0.2,0.7,0.3c0.1,0,0.2,0.1,0.3,0.1c0.4,0.1,0.7,0.1,1.1,0.1
	c0.4,0,0.7,0,1.1-0.1c0.1,0,0.2-0.1,0.3-0.1c0.3-0.1,0.5-0.2,0.8-0.3c0.1,0,0.1,0,0.2-0.1c0.1,0,0.1-0.1,0.2-0.1
	c0.1-0.1,0.3-0.2,0.4-0.2c0.1-0.1,0.3-0.2,0.4-0.3c0.1,0,0.1-0.1,0.2-0.1c0,0,0.1-0.1,0.1-0.1c0.2-0.1,0.3-0.3,0.4-0.5
	c0.1-0.1,0.2-0.2,0.2-0.3c0.1-0.2,0.2-0.3,0.3-0.5c0.1-0.1,0.1-0.2,0.2-0.3c0.1-0.2,0.2-0.5,0.3-0.7c0-0.1,0-0.1,0.1-0.2
	c0.1-0.3,0.1-0.6,0.1-0.9c0-0.1,0-0.2,0-0.3c0-0.2,0-0.4,0-0.7c0-0.1-0.1-0.3-0.1-0.4c0-0.1,0-0.3-0.1-0.4c-0.9-3-22.4-73.3-86.3-86
	C350.6,113.5,324.9,116.2,306.1,118.2z M413.7,182c-5.8,0-11.2,0.5-17.1,1c-13.9,1.2-29.7,2.6-58.4-1.6c-28-4.1-44.9-25.1-54-41.6
	c14.7,10.2,38.8,21.9,75,24.2c45.1,2.9,59.7,5.4,77.1,20.8c-2.2-0.6-4.6-1.1-7.1-1.5C423.5,182.4,418.5,182,413.7,182z M447.4,181
	c-21.7-20.8-36.5-24-87.5-27.3c-35.3-2.3-58.3-14.2-71.5-23.8c5.6-0.1,11.8-0.7,18.8-1.5c18.1-1.9,42.9-4.6,74.8,1.8
	C414.7,136.8,435.5,161.1,447.4,181z"/>
<path class="st28" d="M333.2,16.8c0.1,0,0.1,0,0.2,0c1,0.4,7.1,3.2,14.6,17.2c6.4,11.9,7.2,19.6,7.9,27c0.7,7.5,1.4,14.6,7.9,23.3
	c12.9,17.6,56.5,20.4,61.4,20.6c0.1,0,0.2,0,0.2,0c0,0,0,0,0,0c0,0,0,0,0,0c0.3,0,0.6,0,1-0.1c0,0,0.1,0,0.1,0c0.1,0,0.1,0,0.2-0.1
	c0.2-0.1,0.4-0.1,0.6-0.2c0.1,0,0.2-0.1,0.3-0.1c0.2-0.1,0.4-0.2,0.5-0.3c0.1-0.1,0.2-0.1,0.3-0.2c0.2-0.2,0.5-0.4,0.7-0.6
	c0,0,0,0,0-0.1c0.2-0.2,0.4-0.4,0.5-0.7c0.1-0.1,0.1-0.2,0.2-0.3c0.1-0.2,0.2-0.4,0.3-0.5c0-0.1,0.1-0.2,0.1-0.3
	c0-0.1,0.1-0.2,0.1-0.3c0.4-1.4,9.9-34.1-12.4-70.3C398.4-0.8,336.5,6.3,333.8,6.6c-0.1,0-0.3,0.1-0.4,0.1c-0.1,0-0.3,0-0.4,0.1
	c-0.3,0.1-0.5,0.2-0.8,0.3c0,0-0.1,0-0.1,0c-1.8,0.8-3.2,2.6-3.2,4.7C329.1,14.3,330.8,16.4,333.2,16.8z M372.2,78.2
	c-4.7-6.5-5.2-11.4-5.9-18.2c-0.8-7.6-1.7-17.1-9.1-30.9c-1-1.8-1.9-3.4-2.9-5c7.1,3.9,16.2,9.9,27.2,19.1
	c22.9,19.1,32.9,40.2,36.8,50.7C403.5,92.4,379.3,87.9,372.2,78.2z M409.2,36.4c9.3,15.1,12.4,29.6,13,40.8
	c-6.2-12-16.7-27.4-34.1-41.9c-10.4-8.7-19.2-14.7-26.5-18.9C379.1,17.5,400.4,22.1,409.2,36.4z"/>
<path class="st28" d="M229.8,171c-2.1,1.1-4.2,0.9-6.5-0.1l-2.6,7c3.8,1.8,8.2,1.5,12.8-0.8c7.4-3.9,10.2-11.7,6.5-18.8
	c-3.7-7.1-11.8-9.2-19.2-5.3c-4.5,2.4-7.2,5.9-7.9,10l7.2,1.8c0.4-2.4,1.5-4.3,3.6-5.3c3.2-1.7,6.6-0.6,8.4,2.9
	C234,165.9,233,169.3,229.8,171z"/>
<path class="st28" d="M180.2,184.2l-6.6,6.2l26.1,11.1l6.3-5.9l-9.6-26.7l-6.5,6.1l1.8,4.5l-7.2,6.8L180.2,184.2z M194.3,185.7
	l2.7,6.5l-6.3-3L194.3,185.7z"/>
<path class="st28" d="M177.6,230.2l6.4-10.8l-22.3-13.4l-4.5,7.5l5.6,3.4l-1.2,2l-7.9,0.4l-4.8,8l9.7-0.6c-0.2,3.5,1.3,6.5,4.5,8.4
	C168.2,238.4,173.8,236.4,177.6,230.2z M166.8,223.1l1.6-2.7l5.2,3.1l-1.6,2.7c-1.2,2.1-2.8,2.5-4.5,1.5
	C166,226.8,165.6,225.2,166.8,223.1z"/>
<path class="st28" d="M148.4,270.4c0.5,2.6,2.1,4.3,4.5,5c3.8,1,7.4-1.4,9.3-8.4l3.7-13.4l-25.1-6.9l-3.9,14.1
	c-1.9,6.9-0.4,11.3,4,12.5C143.9,274.2,146.5,273.1,148.4,270.4z M152.9,263.2l1.1-3.9l3.7,1l-1.1,3.9c-0.5,1.9-1.4,2.6-2.6,2.3
	C152.8,266.2,152.4,265.1,152.9,263.2z M143,261.8l1.4-5.1l3.9,1.1l-1.4,5.1c-0.5,1.9-1.4,2.6-2.7,2.3
	C142.9,264.8,142.5,263.6,143,261.8z"/>
<path class="st28" d="M130.9,306.4c0.1,8.5,6,14.6,13.8,14.5c7.9-0.1,13.5-6.4,13.4-14.9c-0.1-8.5-6-14.6-13.8-14.5
	C136.4,291.6,130.8,297.9,130.9,306.4z M144.4,300.3c4.1-0.1,6.5,2.5,6.6,5.7c0.1,3.2-2.4,5.9-6.4,5.9c-4.1,0.1-6.5-2.5-6.6-5.7
	C138,303,140.4,300.4,144.4,300.3z"/>
<polygon class="st28" points="143.1,366.8 167.9,359 165.4,350.9 154.1,354.4 162.4,341.4 160.3,334.5 135.4,342.3 138,350.4 
	149.3,346.9 140.9,359.9 "/>
<polygon class="st28" points="185.5,428.8 204.6,411.1 198.8,404.9 190.2,412.9 192.1,397.6 187.2,392.3 168.1,410 173.9,416.3 
	182.6,408.2 180.6,423.5 "/>
<polygon class="st28" points="231.1,437.6 234.6,431.9 216.7,420.7 202.8,442.8 221.2,454.3 224.7,448.6 213.7,441.7 215.5,438.8 
	224.8,444.7 228.2,439.3 218.8,433.5 220.5,430.9 "/>
<path class="st28" d="M252.3,467.4c7.7,2.3,13.4-0.6,15.7-8.1l4.1-13.7l-8.3-2.5l-4.1,13.5c-1.1,3.8-3,4.8-5.4,4.1
	c-2.3-0.7-3.4-2.6-2.2-6.4l4.1-13.5l-8.4-2.5l-4.1,13.7C241.5,459.4,244.7,465.1,252.3,467.4z"/>
<polygon class="st28" points="300.4,474.2 301.1,455 308.7,455.2 308.9,448.4 284.9,447.6 284.7,454.4 292.3,454.7 291.6,473.9 "/>
<path class="st28" d="M343.3,469.1l9.1-2.1l-7.1-6.6c2.7-2.2,3.8-5.4,3-9.1c-1.3-5.9-6.6-8.6-13.7-7l-12.2,2.7l5.7,25.4l8.6-1.9
	l-1.4-6.4l2.3-0.5L343.3,469.1z M333.7,457.8l-1.3-6l3.1-0.7c2.4-0.5,3.7,0.3,4.2,2.2c0.4,1.9-0.5,3.2-2.8,3.8L333.7,457.8z"/>
<path class="st28" d="M389.1,450.4l8-4.3l-22.4-17.4l-7.6,4.1l2.4,28.3l7.8-4.3l-0.6-4.8l8.7-4.7L389.1,450.4z M375.8,445.3l-0.9-7
	l5.3,4.5L375.8,445.3z"/>
<polygon class="st28" points="427.2,419.9 422.5,415 414,423.1 400.8,409.1 394.4,415.1 412.3,434 "/>
<path class="st28" d="M462.1,362.8l3.5-8.4l-28.4,0.6l-3.3,8l19.7,20.5l3.4-8.2l-3.5-3.4l3.8-9.1L462.1,362.8z M448.5,367.2
	l-5.1-4.8l7,0.2L448.5,367.2z"/>
<path class="st28" d="M471.5,322.5c0.9-8.7-3.3-15.1-11.4-16c-8-0.9-13.6,4.5-14.5,13.2l-1.4,12.8l25.9,2.8L471.5,322.5z
	 M464.6,322.1l-0.4,3.7l-12.3-1.3l0.4-3.7c0.4-3.7,2.9-5.9,6.8-5.5C463.1,315.7,465,318.4,464.6,322.1z"/>
<path class="st28" d="M444.6,270c-1.1,2.9-1.2,6.6-0.7,10.1c1.3,8,5.8,11.3,10.6,10.6c9.6-1.5,4.7-15.3,7.9-15.8
	c0.9-0.1,1.5,0.7,1.9,3.1c0.4,2.8,0.1,6.2-1,8.9l6.8,1.8c1.2-2.8,1.5-7.3,0.9-11.6c-1.3-8-5.9-11.3-10.6-10.6
	c-9.5,1.5-4.6,15.3-7.7,15.8c-0.9,0.1-1.7-0.5-2.1-3.1c-0.4-2.2-0.1-4.7,0.8-7.5L444.6,270z"/>
<path class="st28" d="M231,276.6c5.3,0,11.4-1.6,15.7-4.6v-15.3h-10.6v9.1c-1.5,0.6-2.9,0.9-4.4,0.9c-5.2,0-8.6-3.6-8.6-9
	c0-5.6,3.4-9,8.8-9c3.2,0,5.8,1.3,8.1,4l7.8-6.9c-3.7-4.5-9.4-7-16.5-7c-11.9,0-20.4,7.8-20.4,18.9
	C210.8,268.8,219.3,276.6,231,276.6z"/>
<path class="st28" d="M276,238.8c-11.8,0-20.4,8-20.4,18.9c0,10.9,8.6,18.9,20.4,18.9s20.4-8,20.4-18.9
	C296.4,246.7,287.8,238.8,276,238.8z M276,266.7c-4.5,0-8.1-3.4-8.1-9c0-5.6,3.6-9,8.1-9s8.1,3.4,8.1,9
	C284.2,263.3,280.5,266.7,276,266.7z"/>
<path class="st28" d="M345.4,257.7c0-10.9-8.6-18.9-20.4-18.9c-11.8,0-20.4,8-20.4,18.9c0,10.9,8.6,18.9,20.4,18.9
	C336.8,276.6,345.4,268.6,345.4,257.7z M316.9,257.7c0-5.6,3.6-9,8.1-9c4.5,0,8.1,3.4,8.1,9c0,5.6-3.6,9-8.1,9
	C320.5,266.7,316.9,263.3,316.9,257.7z"/>
<path class="st28" d="M393.2,257.7c0-11.2-8.3-18.1-20.4-18.1H355v36.1h17.8C384.9,275.7,393.2,268.9,393.2,257.7z M367.2,266.2
	v-17.1h5.1c5.1,0,8.6,3,8.6,8.6c0,5.5-3.5,8.6-8.6,8.6H367.2z"/>
<polygon class="st28" points="247,355.1 230.7,355.1 230.7,328.4 218.5,328.4 218.5,364.6 247,364.6 "/>
<path class="st28" d="M294.4,346.5c0-10.9-8.6-18.9-20.4-18.9c-11.8,0-20.4,8-20.4,18.9c0,10.9,8.6,18.9,20.4,18.9
	C285.8,365.4,294.4,357.4,294.4,346.5z M265.9,346.5c0-5.6,3.6-9,8.1-9c4.5,0,8.1,3.4,8.1,9c0,5.6-3.6,9-8.1,9
	C269.5,355.5,265.9,352.1,265.9,346.5z"/>
<path class="st28" d="M343.4,346.5c0-10.9-8.6-18.9-20.4-18.9s-20.4,8-20.4,18.9c0,10.9,8.6,18.9,20.4,18.9S343.4,357.4,343.4,346.5
	z M314.9,346.5c0-5.6,3.6-9,8.1-9c4.5,0,8.1,3.4,8.1,9c0,5.6-3.6,9-8.1,9C318.5,355.5,314.9,352.1,314.9,346.5z"/>
<path class="st28" d="M353,364.6h12.2v-8.9h5.2c10.1,0,16.5-5.3,16.5-13.6s-6.4-13.6-16.5-13.6H353V364.6z M365.2,337.8h4.4
	c3.4,0,5,1.6,5,4.2c0,2.6-1.6,4.2-5,4.2h-4.4V337.8z"/>
<rect x="282.7" y="297.7" class="st28" width="38.6" height="11.8"/>
<path class="st28" d="M506,213.7c-1.1-2.6-4.2-3.8-6.8-2.7c-2.6,1.1-3.8,4.2-2.7,6.8c11.7,26.8,17.6,55.3,17.6,84.8
	c0,117-95.2,212.2-212.2,212.2c-117,0-212.2-95.2-212.2-212.2c0-117,95.2-212.2,212.2-212.2c8.4,0,16.8,0.5,25.1,1.5
	c2.9,0.3,5.4-1.7,5.7-4.5c0.3-2.8-1.7-5.4-4.5-5.7c-8.7-1-17.5-1.5-26.3-1.5C179.3,80.2,79.5,180,79.5,302.6S179.3,525.1,302,525.1
	s222.5-99.8,222.5-222.5C524.5,271.7,518.3,241.8,506,213.7z"/>
</svg>
