<?xml version="1.0" encoding="utf-8"?>
<!-- Generator: Adobe Illustrator 26.0.1, SVG Export Plug-In . SVG Version: 6.00 Build 0)  -->
<svg version="1.1" id="Layer_1" xmlns="http://www.w3.org/2000/svg" xmlns:xlink="http://www.w3.org/1999/xlink" x="0px" y="0px"
	 width="604px" height="604px" viewBox="0 0 604 604" style="enable-background:new 0 0 604 604;" xml:space="preserve">
<style type="text/css">
	.st0{fill:url(#SVGID_1_);}
	.st1{fill:url(#SVGID_00000039094270178608618410000008899578965317291157_);}
	.st2{fill:url(#SVGID_00000109714426748301161490000005932049893145112469_);}
	.st3{fill:url(#SVGID_00000155830904602144642790000016877061770619362699_);}
	.st4{fill:url(#SVGID_00000109002531949123896400000006294670133548045709_);}
	.st5{fill:url(#SVGID_00000062174190446092635540000011938973406200058773_);}
	.st6{fill:url(#SVGID_00000142881429531001285150000001709723579582996617_);}
	.st7{fill:url(#SVGID_00000126325250369713751920000000363066259983339145_);}
	.st8{fill:url(#SVGID_00000029725236118797803740000006118539978813804715_);}
	.st9{fill:url(#SVGID_00000017478233206664166820000016478622598599412149_);}
	.st10{fill:url(#SVGID_00000108309018929059008510000002757007052134568591_);}
	.st11{fill:url(#SVGID_00000073680647043512982600000005746964406869833627_);}
	.st12{fill:url(#SVGID_00000113316170480830254790000011500879394396065688_);}
	.st13{fill:url(#SVGID_00000088109091749180254790000011099300485273531009_);}
	.st14{fill:url(#SVGID_00000108277139297654098800000001348517413083141559_);}
	.st15{fill:url(#SVGID_00000130625256367569530340000015130371386396912783_);}
	.st16{fill:url(#SVGID_00000065762430174939623100000016609868629110527664_);}
	.st17{fill:url(#SVGID_00000166663687053965103700000008668824312235982015_);}
	.st18{fill:url(#SVGID_00000066481546336861351440000005640065700207903116_);}
	.st19{fill:url(#SVGID_00000110434055894488384360000005797365389874735753_);}
	.st20{fill:url(#SVGID_00000155117329208568870500000006975395635534201260_);}
	.st21{fill:url(#SVGID_00000160870810403933294720000003856390826080965280_);}
	.st22{fill:url(#SVGID_00000182528847793000253310000007445160840421761214_);}
	.st23{fill:url(#SVGID_00000052823817598491232340000015592879588770812556_);}
	.st24{fill:url(#SVGID_00000029043103352820779790000011577385757399301798_);}
	.st25{fill:url(#SVGID_00000093134483753476739600000007533982299817697205_);}
	.st26{fill:url(#SVGID_00000107578452331865754740000014836078892798250131_);}
	.st27{fill:url(#SVGID_00000165221914136320692810000002661166173837564559_);}
	.st28{fill:#FFFFFF;}
	.st29{fill:url(#SVGID_00000148618982976697359790000017790136855956492178_);}
	.st30{fill:url(#SVGID_00000157271477160374093640000001699348899851896250_);}
	.st31{fill:url(#SVGID_00000092426070125642728020000015602121463050343839_);}
	.st32{fill:url(#SVGID_00000103255226456347402810000005704832337965912234_);}
	.st33{fill:url(#SVGID_00000012460990200203031070000014898414836531994282_);}
	.st34{fill:url(#SVGID_00000074433984765879522970000011819105395894229155_);}
	.st35{fill:url(#SVGID_00000010295511812190249390000015842487278134613936_);}
	.st36{fill:url(#SVGID_00000043440627672108598330000008922955782038246557_);}
	.st37{fill:url(#SVGID_00000172410827607597330500000005820006983054587552_);}
	.st38{fill:url(#SVGID_00000026882292753667763400000007049261302926957737_);}
	.st39{fill:url(#SVGID_00000183956132425580774380000015459188436887820460_);}
	.st40{fill:url(#SVGID_00000047752421872335588100000011669716200062984078_);}
	.st41{fill:url(#SVGID_00000053511453710249456690000000346493280804356765_);}
	.st42{fill:url(#SVGID_00000052079796214614370880000016825209471019752116_);}
	.st43{fill:url(#SVGID_00000147922047652569498020000006158441749721906836_);}
	.st44{fill:url(#SVGID_00000170997589441020503090000013043832697690063753_);}
	.st45{fill:url(#SVGID_00000075124322530642749070000017764875496371759247_);}
	.st46{fill:url(#SVGID_00000165952217308639036530000006201603987240345491_);}
	.st47{fill:url(#SVGID_00000155857448080866173320000006289219413514669464_);}
	.st48{fill:url(#SVGID_00000031177788427835371930000006785444153038438792_);}
	.st49{fill:url(#SVGID_00000120545343987570354310000001404621684128831157_);}
	.st50{fill:url(#SVGID_00000010270516714695851030000010766237816753021574_);}
	.st51{fill:url(#SVGID_00000147215809788781217710000000156295301801334461_);}
	.st52{fill:url(#SVGID_00000085947380946070028240000018030225504141665972_);}
	.st53{fill:url(#SVGID_00000168796668200494185790000012380730381054490505_);}
	.st54{fill:url(#SVGID_00000113340764623212102790000013917542462855530374_);}
	.st55{fill:url(#SVGID_00000180328403870172308260000008230603097074522756_);}
	.st56{fill:url(#SVGID_00000031203051831805387520000015902366160269512873_);}
	.st57{fill:url(#SVGID_00000011005071581608273570000009885036803368773819_);}
	.st58{fill:url(#SVGID_00000153666698006572322680000017053177211608627879_);}
	.st59{fill:url(#SVGID_00000144300474916205902910000013703315749096478089_);}
	.st60{fill:url(#SVGID_00000181086090305869538600000012856314955511404963_);}
	.st61{fill:url(#SVGID_00000123425288209696172480000010070471573623531454_);}
	.st62{fill:url(#SVGID_00000008834601131790673960000005663065342099101079_);}
</style>
<g>
	<path d="M457.8,78.1c-0.6,5.9-1.8,11.5-2.9,16.9c-2.1,10-4.3,20.3-2.6,32.2c2.4,16.7,10.7,32.2,23.6,43.7
		c9.8,8.8,13,10.1,14.7,10.1c0.4,0,0.7-0.1,1-0.1c1.6-0.3,3-1.4,3.7-2.8c0.6-1.2,1.1-2.4,1.6-3.6l0.3-0.7
		c11.5-27.5,14.9-51.9,10.3-72.4C502.7,79.7,486,42.1,454.3,38c-0.2,0-0.4,0-0.6-0.1c-0.1,0-0.1,0-0.2,0c-1.5-0.1-3.1,0.4-4.2,1.5
		c-2.8,2.8-1.2,5.9,0.6,9.4C452.8,54.8,459,66.9,457.8,78.1z M462.6,125.9c-1.4-10.1,0.5-19.1,2.4-28.7c1.2-5.7,2.4-11.5,3.1-18
		c0.2-2.2,0.2-4.4,0.1-6.6c5.4,9,10.4,19.3,12.4,29c2.2,10.5,1.4,20.2,0.6,29.7c-0.9,10.4-1.8,21.1,1.7,32.1c0,0,0,0-0.1-0.1
		C471.8,153.4,464.6,140.1,462.6,125.9z M497.5,103.7c3.5,15.5,1.7,33.8-5.4,54.5c-2.2-8.3-1.5-16.8-0.7-26.1
		c0.8-9.7,1.8-20.7-0.8-32.7c-3.4-16.1-13.5-32.9-21.8-44.6C483.2,65.1,493.4,85.3,497.5,103.7z"/>
	<path d="M306.1,118.2c-15.3,1.6-26.4,2.8-32.7-2.1c-0.1-0.1-0.2-0.2-0.3-0.2c-0.1-0.1-0.2-0.1-0.3-0.2c-0.5-0.3-1.1-0.5-1.7-0.6
		c-0.1,0-0.2,0-0.3,0c-0.2,0-0.4,0-0.6,0c-0.1,0-0.2,0-0.3,0c-0.2,0-0.4,0-0.6,0.1c-0.1,0-0.2,0-0.3,0.1c-0.3,0.1-0.6,0.2-0.9,0.3
		c0,0,0,0,0,0c-0.2,0.1-0.5,0.2-0.7,0.4c0,0-0.1,0.1-0.1,0.1c0,0-0.1,0-0.1,0c-0.1,0-0.1,0.1-0.1,0.1c-0.2,0.1-0.4,0.3-0.5,0.5
		c-0.1,0.1-0.1,0.2-0.2,0.2c-0.1,0.2-0.3,0.3-0.4,0.5c0,0.1-0.1,0.1-0.1,0.2c-0.2,0.3-0.3,0.5-0.4,0.8c0,0.1,0,0.1-0.1,0.2
		c-0.1,0.2-0.1,0.5-0.2,0.7c0,0.1,0,0.2,0,0.3c0,0.2,0,0.4,0,0.6c0,0.1,0,0.2,0,0.3c0,0.2,0,0.4,0.1,0.6c0,0.1,0,0.2,0.1,0.3
		c0,0,0,0.1,0,0.1c0.2,0.6,4.3,15.7,15,31.9c14.4,21.7,33.9,35,56.4,38.3c29.8,4.4,47,2.9,60.8,1.7c10.5-0.9,18.8-1.7,30.1,0.2
		c17.2,2.8,27.1,10.5,31.3,14.6c0.9,1,1.8,2,2.7,3c0.1,0.1,0.2,0.2,0.3,0.3c0.1,0.1,0.2,0.2,0.4,0.3c0.2,0.1,0.4,0.3,0.6,0.4
		c0.1,0.1,0.2,0.2,0.4,0.2c0.2,0.1,0.5,0.2,0.7,0.3c0.1,0,0.2,0.1,0.3,0.1c0.4,0.1,0.7,0.1,1.1,0.1c0.4,0,0.7,0,1.1-0.1
		c0.1,0,0.2-0.1,0.3-0.1c0.3-0.1,0.5-0.2,0.8-0.3c0.1,0,0.1,0,0.2-0.1c0.1,0,0.1-0.1,0.2-0.1c0.1-0.1,0.3-0.2,0.4-0.2
		c0.1-0.1,0.3-0.2,0.4-0.3c0.1,0,0.1-0.1,0.2-0.1c0,0,0.1-0.1,0.1-0.1c0.2-0.1,0.3-0.3,0.4-0.5c0.1-0.1,0.2-0.2,0.2-0.3
		c0.1-0.2,0.2-0.3,0.3-0.5c0.1-0.1,0.1-0.2,0.2-0.3c0.1-0.2,0.2-0.5,0.3-0.7c0-0.1,0-0.1,0.1-0.2c0.1-0.3,0.1-0.6,0.1-0.9
		c0-0.1,0-0.2,0-0.3c0-0.2,0-0.4,0-0.7c0-0.1-0.1-0.3-0.1-0.4c0-0.1,0-0.3-0.1-0.4c-0.9-3-22.4-73.3-86.3-86
		C350.6,113.5,324.9,116.2,306.1,118.2z M413.7,182c-5.8,0-11.2,0.5-17.1,1c-13.9,1.2-29.7,2.6-58.4-1.6c-28-4.1-44.9-25.1-54-41.6
		c14.7,10.2,38.8,21.9,75,24.2c45.1,2.9,59.7,5.4,77.1,20.8c-2.2-0.6-4.6-1.1-7.1-1.5C423.5,182.4,418.5,182,413.7,182z M447.4,181
		c-21.7-20.8-36.5-24-87.5-27.3c-35.3-2.3-58.3-14.2-71.5-23.8c5.6-0.1,11.8-0.7,18.8-1.5c18.1-1.9,42.9-4.6,74.8,1.8
		C414.7,136.8,435.5,161.1,447.4,181z"/>
	<path d="M333.2,16.8c0.1,0,0.1,0,0.2,0c1,0.4,7.1,3.2,14.6,17.2c6.4,11.9,7.2,19.6,7.9,27c0.7,7.5,1.4,14.6,7.9,23.3
		c12.9,17.6,56.5,20.4,61.4,20.6c0.1,0,0.2,0,0.2,0c0,0,0,0,0,0c0,0,0,0,0,0c0.3,0,0.6,0,1-0.1c0,0,0.1,0,0.1,0c0.1,0,0.1,0,0.2-0.1
		c0.2-0.1,0.4-0.1,0.6-0.2c0.1,0,0.2-0.1,0.3-0.1c0.2-0.1,0.4-0.2,0.5-0.3c0.1-0.1,0.2-0.1,0.3-0.2c0.2-0.2,0.5-0.4,0.7-0.6
		c0,0,0,0,0-0.1c0.2-0.2,0.4-0.4,0.5-0.7c0.1-0.1,0.1-0.2,0.2-0.3c0.1-0.2,0.2-0.4,0.3-0.5c0-0.1,0.1-0.2,0.1-0.3
		c0-0.1,0.1-0.2,0.1-0.3c0.4-1.4,9.9-34.1-12.4-70.3C398.4-0.8,336.5,6.3,333.8,6.6c-0.1,0-0.3,0.1-0.4,0.1c-0.1,0-0.3,0-0.4,0.1
		c-0.3,0.1-0.5,0.2-0.8,0.3c0,0-0.1,0-0.1,0c-1.8,0.8-3.2,2.6-3.2,4.7C329.1,14.3,330.8,16.4,333.2,16.8z M372.2,78.2
		c-4.7-6.5-5.2-11.4-5.9-18.2c-0.8-7.6-1.7-17.1-9.1-30.9c-1-1.8-1.9-3.4-2.9-5c7.1,3.9,16.2,9.9,27.2,19.1
		c22.9,19.1,32.9,40.2,36.8,50.7C403.5,92.4,379.3,87.9,372.2,78.2z M409.2,36.4c9.3,15.1,12.4,29.6,13,40.8
		c-6.2-12-16.7-27.4-34.1-41.9c-10.4-8.7-19.2-14.7-26.5-18.9C379.1,17.5,400.4,22.1,409.2,36.4z"/>
	<path d="M229.8,171c-2.1,1.1-4.2,0.9-6.5-0.1l-2.6,7c3.8,1.8,8.2,1.5,12.8-0.8c7.4-3.9,10.2-11.7,6.5-18.8
		c-3.7-7.1-11.8-9.2-19.2-5.3c-4.5,2.4-7.2,5.9-7.9,10l7.2,1.8c0.4-2.4,1.5-4.3,3.6-5.3c3.2-1.7,6.6-0.6,8.4,2.9
		C234,165.9,233,169.3,229.8,171z"/>
	<path d="M180.2,184.2l-6.6,6.2l26.1,11.1l6.3-5.9l-9.6-26.7l-6.5,6.1l1.8,4.5l-7.2,6.8L180.2,184.2z M194.3,185.7l2.7,6.5l-6.3-3
		L194.3,185.7z"/>
	<path d="M177.6,230.2l6.4-10.8l-22.3-13.4l-4.5,7.5l5.6,3.4l-1.2,2l-7.9,0.4l-4.8,8l9.7-0.6c-0.2,3.5,1.3,6.5,4.5,8.4
		C168.2,238.4,173.8,236.4,177.6,230.2z M166.8,223.1l1.6-2.7l5.2,3.1l-1.6,2.7c-1.2,2.1-2.8,2.5-4.5,1.5
		C166,226.8,165.6,225.2,166.8,223.1z"/>
	<path d="M148.4,270.4c0.5,2.6,2.1,4.3,4.5,5c3.8,1,7.4-1.4,9.3-8.4l3.7-13.4l-25.1-6.9l-3.9,14.1c-1.9,6.9-0.4,11.3,4,12.5
		C143.9,274.2,146.5,273.1,148.4,270.4z M152.9,263.2l1.1-3.9l3.7,1l-1.1,3.9c-0.5,1.9-1.4,2.6-2.6,2.3
		C152.8,266.2,152.4,265.1,152.9,263.2z M143,261.8l1.4-5.1l3.9,1.1l-1.4,5.1c-0.5,1.9-1.4,2.6-2.7,2.3
		C142.9,264.8,142.5,263.6,143,261.8z"/>
	<path d="M130.9,306.4c0.1,8.5,6,14.6,13.8,14.5c7.9-0.1,13.5-6.4,13.4-14.9c-0.1-8.5-6-14.6-13.8-14.5
		C136.4,291.6,130.8,297.9,130.9,306.4z M144.4,300.3c4.1-0.1,6.5,2.5,6.6,5.7c0.1,3.2-2.4,5.9-6.4,5.9c-4.1,0.1-6.5-2.5-6.6-5.7
		C138,303,140.4,300.4,144.4,300.3z"/>
	<polygon points="143.1,366.8 167.9,359 165.4,350.9 154.1,354.4 162.4,341.4 160.3,334.5 135.4,342.3 138,350.4 149.3,346.9 
		140.9,359.9 	"/>
	<polygon points="185.5,428.8 204.6,411.1 198.8,404.9 190.2,412.9 192.1,397.6 187.2,392.3 168.1,410 173.9,416.3 182.6,408.2 
		180.6,423.5 	"/>
	<polygon points="231.1,437.6 234.6,431.9 216.7,420.7 202.8,442.8 221.2,454.3 224.7,448.6 213.7,441.7 215.5,438.8 224.8,444.7 
		228.2,439.3 218.8,433.5 220.5,430.9 	"/>
	<path d="M252.3,467.4c7.7,2.3,13.4-0.6,15.7-8.1l4.1-13.7l-8.3-2.5l-4.1,13.5c-1.1,3.8-3,4.8-5.4,4.1c-2.3-0.7-3.4-2.6-2.2-6.4
		l4.1-13.5l-8.4-2.5l-4.1,13.7C241.5,459.4,244.7,465.1,252.3,467.4z"/>
	<polygon points="300.4,474.2 301.1,455 308.7,455.2 308.9,448.4 284.9,447.6 284.7,454.4 292.3,454.7 291.6,473.9 	"/>
	<path d="M343.3,469.1l9.1-2.1l-7.1-6.6c2.7-2.2,3.8-5.4,3-9.1c-1.3-5.9-6.6-8.6-13.7-7l-12.2,2.7l5.7,25.4l8.6-1.9l-1.4-6.4
		l2.3-0.5L343.3,469.1z M333.7,457.8l-1.3-6l3.1-0.7c2.4-0.5,3.7,0.3,4.2,2.2c0.4,1.9-0.5,3.2-2.8,3.8L333.7,457.8z"/>
	<path d="M389.1,450.4l8-4.3l-22.4-17.4l-7.6,4.1l2.4,28.3l7.8-4.3l-0.6-4.8l8.7-4.7L389.1,450.4z M375.8,445.3l-0.9-7l5.3,4.5
		L375.8,445.3z"/>
	<polygon points="427.2,419.9 422.5,415 414,423.1 400.8,409.1 394.4,415.1 412.3,434 	"/>
	<path d="M462.1,362.8l3.5-8.4l-28.4,0.6l-3.3,8l19.7,20.5l3.4-8.2l-3.5-3.4l3.8-9.1L462.1,362.8z M448.5,367.2l-5.1-4.8l7,0.2
		L448.5,367.2z"/>
	<path d="M471.5,322.5c0.9-8.7-3.3-15.1-11.4-16c-8-0.9-13.6,4.5-14.5,13.2l-1.4,12.8l25.9,2.8L471.5,322.5z M464.6,322.1l-0.4,3.7
		l-12.3-1.3l0.4-3.7c0.4-3.7,2.9-5.9,6.8-5.5C463.1,315.7,465,318.4,464.6,322.1z"/>
	<path d="M444.6,270c-1.1,2.9-1.2,6.6-0.7,10.1c1.3,8,5.8,11.3,10.6,10.6c9.6-1.5,4.7-15.3,7.9-15.8c0.9-0.1,1.5,0.7,1.9,3.1
		c0.4,2.8,0.1,6.2-1,8.9l6.8,1.8c1.2-2.8,1.5-7.3,0.9-11.6c-1.3-8-5.9-11.3-10.6-10.6c-9.5,1.5-4.6,15.3-7.7,15.8
		c-0.9,0.1-1.7-0.5-2.1-3.1c-0.4-2.2-0.1-4.7,0.8-7.5L444.6,270z"/>
	<path d="M231,276.6c5.3,0,11.4-1.6,15.7-4.6v-15.3h-10.6v9.1c-1.5,0.6-2.9,0.9-4.4,0.9c-5.2,0-8.6-3.6-8.6-9c0-5.6,3.4-9,8.8-9
		c3.2,0,5.8,1.3,8.1,4l7.8-6.9c-3.7-4.5-9.4-7-16.5-7c-11.9,0-20.4,7.8-20.4,18.9C210.8,268.8,219.3,276.6,231,276.6z"/>
	<path d="M276,238.8c-11.8,0-20.4,8-20.4,18.9c0,10.9,8.6,18.9,20.4,18.9s20.4-8,20.4-18.9C296.4,246.7,287.8,238.8,276,238.8z
		 M276,266.7c-4.5,0-8.1-3.4-8.1-9c0-5.6,3.6-9,8.1-9s8.1,3.4,8.1,9C284.2,263.3,280.5,266.7,276,266.7z"/>
	<path d="M345.4,257.7c0-10.9-8.6-18.9-20.4-18.9c-11.8,0-20.4,8-20.4,18.9c0,10.9,8.6,18.9,20.4,18.9
		C336.8,276.6,345.4,268.6,345.4,257.7z M316.9,257.7c0-5.6,3.6-9,8.1-9c4.5,0,8.1,3.4,8.1,9c0,5.6-3.6,9-8.1,9
		C320.5,266.7,316.9,263.3,316.9,257.7z"/>
	<path d="M393.2,257.7c0-11.2-8.3-18.1-20.4-18.1H355v36.1h17.8C384.9,275.7,393.2,268.9,393.2,257.7z M367.2,266.2v-17.1h5.1
		c5.1,0,8.6,3,8.6,8.6c0,5.5-3.5,8.6-8.6,8.6H367.2z"/>
	<polygon points="247,355.1 230.7,355.1 230.7,328.4 218.5,328.4 218.5,364.6 247,364.6 	"/>
	<path d="M294.4,346.5c0-10.9-8.6-18.9-20.4-18.9c-11.8,0-20.4,8-20.4,18.9c0,10.9,8.6,18.9,20.4,18.9
		C285.8,365.4,294.4,357.4,294.4,346.5z M265.9,346.5c0-5.6,3.6-9,8.1-9c4.5,0,8.1,3.4,8.1,9c0,5.6-3.6,9-8.1,9
		C269.5,355.5,265.9,352.1,265.9,346.5z"/>
	<path d="M343.4,346.5c0-10.9-8.6-18.9-20.4-18.9s-20.4,8-20.4,18.9c0,10.9,8.6,18.9,20.4,18.9S343.4,357.4,343.4,346.5z
		 M314.9,346.5c0-5.6,3.6-9,8.1-9c4.5,0,8.1,3.4,8.1,9c0,5.6-3.6,9-8.1,9C318.5,355.5,314.9,352.1,314.9,346.5z"/>
	<path d="M353,364.6h12.2v-8.9h5.2c10.1,0,16.5-5.3,16.5-13.6s-6.4-13.6-16.5-13.6H353V364.6z M365.2,337.8h4.4c3.4,0,5,1.6,5,4.2
		c0,2.6-1.6,4.2-5,4.2h-4.4V337.8z"/>
	<rect x="282.7" y="297.7" width="38.6" height="11.8"/>
	<path d="M506,213.7c-1.1-2.6-4.2-3.8-6.8-2.7c-2.6,1.1-3.8,4.2-2.7,6.8c11.7,26.8,17.6,55.3,17.6,84.8
		c0,117-95.2,212.2-212.2,212.2c-117,0-212.2-95.2-212.2-212.2c0-117,95.2-212.2,212.2-212.2c8.4,0,16.8,0.5,25.1,1.5
		c2.9,0.3,5.4-1.7,5.7-4.5c0.3-2.8-1.7-5.4-4.5-5.7c-8.7-1-17.5-1.5-26.3-1.5C179.3,80.2,79.5,180,79.5,302.6S179.3,525.1,302,525.1
		s222.5-99.8,222.5-222.5C524.5,271.7,518.3,241.8,506,213.7z"/>
</g>
</svg>
