<?xml version="1.0" encoding="utf-8"?>
<!-- Generator: Adobe Illustrator 26.0.1, SVG Export Plug-In . SVG Version: 6.00 Build 0)  -->
<svg version="1.1" id="Layer_1" xmlns="http://www.w3.org/2000/svg" xmlns:xlink="http://www.w3.org/1999/xlink" x="0px" y="0px"
	 width="604px" height="604px" viewBox="0 0 604 604" style="enable-background:new 0 0 604 604;" xml:space="preserve">
<style type="text/css">
	.st0{fill:url(#SVGID_1_);}
	.st1{fill:url(#SVGID_00000063630805499534905130000016761672832259296415_);}
	.st2{fill:url(#SVGID_00000115475127868555704850000014954236942483810455_);}
	.st3{fill:url(#SVGID_00000039095913340470922080000015398376898616695685_);}
	.st4{fill:url(#SVGID_00000178902818274076426830000014726467698776429233_);}
	.st5{fill:url(#SVGID_00000128481496125980261930000012239428821431290241_);}
	.st6{fill:url(#SVGID_00000061470013522170338690000014590618498508129409_);}
	.st7{fill:url(#SVGID_00000149349430390025882360000011420600527136709544_);}
	.st8{fill:url(#SVGID_00000040535416008955938530000018300762739083173540_);}
	.st9{fill:url(#SVGID_00000013871646134181252960000017870970205154875547_);}
	.st10{fill:url(#SVGID_00000029760333788790960650000003465292894572003484_);}
	.st11{fill:url(#SVGID_00000106848602325095738380000008811037242654552494_);}
	.st12{fill:url(#SVGID_00000071538986520147335840000013563430073105372300_);}
	.st13{fill:url(#SVGID_00000124882261887657611870000015526755670596113553_);}
	.st14{fill:url(#SVGID_00000044874086443410466470000017524006817501069738_);}
	.st15{fill:url(#SVGID_00000058583384669243079300000017142143689552085655_);}
	.st16{fill:url(#SVGID_00000047037168795833308650000018113264452892045728_);}
	.st17{fill:url(#SVGID_00000026126561964200610470000013115686286552953766_);}
	.st18{fill:url(#SVGID_00000116954986485404789940000015003511977859060899_);}
	.st19{fill:url(#SVGID_00000123418525723894864640000017398972049154004390_);}
	.st20{fill:url(#SVGID_00000078023224253239623860000007812523613245501371_);}
	.st21{fill:url(#SVGID_00000070813115285914186250000002022729342673251993_);}
	.st22{fill:url(#SVGID_00000057863145738138830430000007774270317125311127_);}
	.st23{fill:url(#SVGID_00000137101191823860904180000011120704867986429831_);}
	.st24{fill:url(#SVGID_00000157996807402380885300000017468769790605053578_);}
	.st25{fill:url(#SVGID_00000058578441513705841990000013986519893138105776_);}
	.st26{fill:url(#SVGID_00000098930045631150459190000011583201600608947090_);}
	.st27{fill:url(#SVGID_00000142870075758405727360000004128865530137759640_);}
	.st28{fill:#FFFFFF;}
	.st29{fill:url(#SVGID_00000019671066080266985320000011633338988953084605_);}
	.st30{fill:url(#SVGID_00000062187584186776392460000007388129748568511389_);}
	.st31{fill:url(#SVGID_00000039821180961917049180000005176485498452138419_);}
	.st32{fill:url(#SVGID_00000076564469263840600590000016749857877382056083_);}
	.st33{fill:url(#SVGID_00000140007019473812351500000013176446795335263894_);}
	.st34{fill:url(#SVGID_00000122707737788274728000000003672670671241260466_);}
	.st35{fill:url(#SVGID_00000057869107782652902610000002652874479390825622_);}
	.st36{fill:url(#SVGID_00000028312659338246551940000008596176507869470849_);}
	.st37{fill:url(#SVGID_00000116209989725294858770000007747636033340810415_);}
	.st38{fill:url(#SVGID_00000168091033749456291510000011360047626862504858_);}
	.st39{fill:url(#SVGID_00000128465694981879089270000003583606566196428188_);}
	.st40{fill:url(#SVGID_00000090264491925269086260000003873753008264137869_);}
	.st41{fill:url(#SVGID_00000127749947776313235310000016087013615335577477_);}
	.st42{fill:url(#SVGID_00000012457877080404821000000004902885026417889709_);}
	.st43{fill:url(#SVGID_00000115477348214486594890000004795590817272616111_);}
	.st44{fill:url(#SVGID_00000011747901994757138290000014482140795398914196_);}
	.st45{fill:url(#SVGID_00000118370981587743966720000011332217946223401381_);}
	.st46{fill:url(#SVGID_00000139288750950237524320000004228315334681377448_);}
	.st47{fill:url(#SVGID_00000039131770893336592810000013332166568092052913_);}
	.st48{fill:url(#SVGID_00000160168171775664799390000003549723679543911301_);}
	.st49{fill:url(#SVGID_00000054949464154782961790000010817872323861084076_);}
	.st50{fill:url(#SVGID_00000026156852363520564920000012889732582571844517_);}
	.st51{fill:url(#SVGID_00000039115322971496795680000010507986418512478882_);}
	.st52{fill:url(#SVGID_00000078013414931234842770000004762525685697779841_);}
	.st53{fill:url(#SVGID_00000139977355793621134550000005913193867920298917_);}
	.st54{fill:url(#SVGID_00000135689359760097242540000006422375664222473123_);}
	.st55{fill:url(#SVGID_00000056386160789443508360000000623036194159902353_);}
	.st56{fill:url(#SVGID_00000091013013896679828640000011547190529086413184_);}
	.st57{fill:url(#SVGID_00000114760839001437894750000002268372644109434020_);}
	.st58{fill:url(#SVGID_00000052816235160685379250000012159144354149606071_);}
	.st59{fill:url(#SVGID_00000076566043430041236590000001669646648621465531_);}
	.st60{fill:url(#SVGID_00000045605610576559960250000002824334580597392543_);}
	.st61{fill:url(#SVGID_00000071556716701886993870000005661372082518784393_);}
	.st62{fill:url(#SVGID_00000035532831863760741260000000203102426030575782_);}
</style>
<g>
	<linearGradient id="SVGID_1_" gradientUnits="userSpaceOnUse" x1="462.8369" y1="109.8366" x2="509.5077" y2="109.8366">
		<stop  offset="0" style="stop-color:#336249"/>
		<stop  offset="5.000000e-05" style="stop-color:#336249"/>
		<stop  offset="0.9977" style="stop-color:#78B857"/>
		<stop  offset="1" style="stop-color:#78B857"/>
	</linearGradient>
	<path class="st0" d="M462.8,45.8c0,0,37,12,44.8,55.6c7.7,43.6-10.3,72.4-10.3,72.4s-14.8-22.5-10.8-35.8
		c4-13.3,10.4-39.8-2.3-59.4C471.5,59.1,462.8,45.8,462.8,45.8z"/>
	
		<linearGradient id="SVGID_00000119110838358255695950000008059156938075257746_" gradientUnits="userSpaceOnUse" x1="448.3718" y1="115.5939" x2="488.7783" y2="115.5939">
		<stop  offset="0" style="stop-color:#336249"/>
		<stop  offset="5.000000e-05" style="stop-color:#336249"/>
		<stop  offset="0.9977" style="stop-color:#78B857"/>
		<stop  offset="1" style="stop-color:#78B857"/>
	</linearGradient>
	<path style="fill:url(#SVGID_00000119110838358255695950000008059156938075257746_);" d="M459.4,57.9c0,0,17.3,8.6,23.6,37.5
		c6.3,28.8-11,37.5-4.6,56.5c6.3,19,10.4,21.3,10.4,21.3s-39.2-24.2-40.4-45S465.3,77.9,459.4,57.9z"/>
	
		<linearGradient id="SVGID_00000022541668756419487030000017623875927366588582_" gradientUnits="userSpaceOnUse" x1="352.1537" y1="54.2864" x2="430.9689" y2="54.2864">
		<stop  offset="0" style="stop-color:#336249"/>
		<stop  offset="5.000000e-05" style="stop-color:#336249"/>
		<stop  offset="0.9977" style="stop-color:#78B857"/>
		<stop  offset="1" style="stop-color:#78B857"/>
	</linearGradient>
	<path style="fill:url(#SVGID_00000022541668756419487030000017623875927366588582_);" d="M352.2,13c0,0,41.8-4.4,65.9,18
		s7.2,65,7.2,65S414.4,53.3,393.6,36C376.6,21.8,352.2,13,352.2,13z"/>
	
		<linearGradient id="SVGID_00000151515166789102183480000009523073636631828357_" gradientUnits="userSpaceOnUse" x1="333.427" y1="56.9781" x2="425.2415" y2="56.9781">
		<stop  offset="0" style="stop-color:#336249"/>
		<stop  offset="5.000000e-05" style="stop-color:#336249"/>
		<stop  offset="0.9977" style="stop-color:#78B857"/>
		<stop  offset="1" style="stop-color:#78B857"/>
	</linearGradient>
	<path style="fill:url(#SVGID_00000151515166789102183480000009523073636631828357_);" d="M333.4,16.8c0,0,41.8,1.7,61.4,28.7
		s30.4,50.5,30.4,50.5s-55.5,8.3-61.4-18.5S359.7,34.7,333.4,16.8z"/>
	
		<linearGradient id="SVGID_00000165193926919635703750000008904459311777302423_" gradientUnits="userSpaceOnUse" x1="271.2027" y1="155.3436" x2="460.4633" y2="155.3436">
		<stop  offset="0" style="stop-color:#336249"/>
		<stop  offset="5.000000e-05" style="stop-color:#336249"/>
		<stop  offset="0.9977" style="stop-color:#78B857"/>
		<stop  offset="1" style="stop-color:#78B857"/>
	</linearGradient>
	<path style="fill:url(#SVGID_00000165193926919635703750000008904459311777302423_);" d="M272.8,115.7c0,0-12.8,8.5,33.3,2.5
		c46-6,74.9,3.2,91,10.1c16.1,6.9,51.1,38.6,61.1,61.1c10,22.5-12.7-30-84.2-31.1C302.6,157.1,272.8,115.7,272.8,115.7z"/>
	
		<linearGradient id="SVGID_00000030462845810524630230000001591830539528172457_" gradientUnits="userSpaceOnUse" x1="270.2943" y1="170.475" x2="458.8086" y2="170.475">
		<stop  offset="0" style="stop-color:#336249"/>
		<stop  offset="5.000000e-05" style="stop-color:#336249"/>
		<stop  offset="0.9977" style="stop-color:#78B857"/>
		<stop  offset="1" style="stop-color:#78B857"/>
	</linearGradient>
	<path style="fill:url(#SVGID_00000030462845810524630230000001591830539528172457_);" d="M270.3,132.9
		c28.2,18.4,42.4,28.8,66.3,32.3c23.9,3.5,43.5-1.2,69.5,5.8c26.1,6.9,52.7,37.1,52.7,37.1s-39.7-24.4-92.9-14.1
		C312.7,204.4,270.3,132.9,270.3,132.9z"/>
	<path d="M457.8,78.1c-0.6,5.9-1.8,11.5-2.9,16.9c-2.1,10-4.3,20.3-2.6,32.2c2.4,16.7,10.7,32.2,23.6,43.7
		c9.8,8.8,13,10.1,14.7,10.1c0.4,0,0.7-0.1,1-0.1c1.6-0.3,3-1.4,3.7-2.8c0.6-1.2,1.1-2.4,1.6-3.6l0.3-0.7
		c11.5-27.5,14.9-51.9,10.3-72.4C502.7,79.7,486,42.1,454.3,38c-0.2,0-0.4,0-0.6-0.1c-0.1,0-0.1,0-0.2,0c-1.5-0.1-3.1,0.4-4.2,1.5
		c-2.8,2.8-1.2,5.9,0.6,9.4C452.8,54.8,459,66.9,457.8,78.1z M462.6,125.9c-1.4-10.1,0.5-19.1,2.4-28.7c1.2-5.7,2.4-11.5,3.1-18
		c0.2-2.2,0.2-4.4,0.1-6.6c5.4,9,10.4,19.3,12.4,29c2.2,10.5,1.4,20.2,0.6,29.7c-0.9,10.4-1.8,21.1,1.7,32.1c0,0,0,0-0.1-0.1
		C471.8,153.4,464.6,140.1,462.6,125.9z M497.5,103.7c3.5,15.5,1.7,33.8-5.4,54.5c-2.2-8.3-1.5-16.8-0.7-26.1
		c0.8-9.7,1.8-20.7-0.8-32.7c-3.4-16.1-13.5-32.9-21.8-44.6C483.2,65.1,493.4,85.3,497.5,103.7z"/>
	<path d="M306.1,118.2c-15.3,1.6-26.4,2.8-32.7-2.1c-0.1-0.1-0.2-0.2-0.3-0.2c-0.1-0.1-0.2-0.1-0.3-0.2c-0.5-0.3-1.1-0.5-1.7-0.6
		c-0.1,0-0.2,0-0.3,0c-0.2,0-0.4,0-0.6,0c-0.1,0-0.2,0-0.3,0c-0.2,0-0.4,0-0.6,0.1c-0.1,0-0.2,0-0.3,0.1c-0.3,0.1-0.6,0.2-0.9,0.3
		c0,0,0,0,0,0c-0.2,0.1-0.5,0.2-0.7,0.4c0,0-0.1,0.1-0.1,0.1c0,0-0.1,0-0.1,0c-0.1,0-0.1,0.1-0.1,0.1c-0.2,0.1-0.4,0.3-0.5,0.5
		c-0.1,0.1-0.1,0.2-0.2,0.2c-0.1,0.2-0.3,0.3-0.4,0.5c0,0.1-0.1,0.1-0.1,0.2c-0.2,0.3-0.3,0.5-0.4,0.8c0,0.1,0,0.1-0.1,0.2
		c-0.1,0.2-0.1,0.5-0.2,0.7c0,0.1,0,0.2,0,0.3c0,0.2,0,0.4,0,0.6c0,0.1,0,0.2,0,0.3c0,0.2,0,0.4,0.1,0.6c0,0.1,0,0.2,0.1,0.3
		c0,0,0,0.1,0,0.1c0.2,0.6,4.3,15.7,15,31.9c14.4,21.7,33.9,35,56.4,38.3c29.8,4.4,47,2.9,60.8,1.7c10.5-0.9,18.8-1.7,30.1,0.2
		c17.2,2.8,27.1,10.5,31.3,14.6c0.9,1,1.8,2,2.7,3c0.1,0.1,0.2,0.2,0.3,0.3c0.1,0.1,0.2,0.2,0.4,0.3c0.2,0.1,0.4,0.3,0.6,0.4
		c0.1,0.1,0.2,0.2,0.4,0.2c0.2,0.1,0.5,0.2,0.7,0.3c0.1,0,0.2,0.1,0.3,0.1c0.4,0.1,0.7,0.1,1.1,0.1c0.4,0,0.7,0,1.1-0.1
		c0.1,0,0.2-0.1,0.3-0.1c0.3-0.1,0.5-0.2,0.8-0.3c0.1,0,0.1,0,0.2-0.1c0.1,0,0.1-0.1,0.2-0.1c0.1-0.1,0.3-0.2,0.4-0.2
		c0.1-0.1,0.3-0.2,0.4-0.3c0.1,0,0.1-0.1,0.2-0.1c0,0,0.1-0.1,0.1-0.1c0.2-0.1,0.3-0.3,0.4-0.5c0.1-0.1,0.2-0.2,0.2-0.3
		c0.1-0.2,0.2-0.3,0.3-0.5c0.1-0.1,0.1-0.2,0.2-0.3c0.1-0.2,0.2-0.5,0.3-0.7c0-0.1,0-0.1,0.1-0.2c0.1-0.3,0.1-0.6,0.1-0.9
		c0-0.1,0-0.2,0-0.3c0-0.2,0-0.4,0-0.7c0-0.1-0.1-0.3-0.1-0.4c0-0.1,0-0.3-0.1-0.4c-0.9-3-22.4-73.3-86.3-86
		C350.6,113.5,324.9,116.2,306.1,118.2z M413.7,182c-5.8,0-11.2,0.5-17.1,1c-13.9,1.2-29.7,2.6-58.4-1.6c-28-4.1-44.9-25.1-54-41.6
		c14.7,10.2,38.8,21.9,75,24.2c45.1,2.9,59.7,5.4,77.1,20.8c-2.2-0.6-4.6-1.1-7.1-1.5C423.5,182.4,418.5,182,413.7,182z M447.4,181
		c-21.7-20.8-36.5-24-87.5-27.3c-35.3-2.3-58.3-14.2-71.5-23.8c5.6-0.1,11.8-0.7,18.8-1.5c18.1-1.9,42.9-4.6,74.8,1.8
		C414.7,136.8,435.5,161.1,447.4,181z"/>
	<path d="M333.2,16.8c0.1,0,0.1,0,0.2,0c1,0.4,7.1,3.2,14.6,17.2c6.4,11.9,7.2,19.6,7.9,27c0.7,7.5,1.4,14.6,7.9,23.3
		c12.9,17.6,56.5,20.4,61.4,20.6c0.1,0,0.2,0,0.2,0c0,0,0,0,0,0c0,0,0,0,0,0c0.3,0,0.6,0,1-0.1c0,0,0.1,0,0.1,0c0.1,0,0.1,0,0.2-0.1
		c0.2-0.1,0.4-0.1,0.6-0.2c0.1,0,0.2-0.1,0.3-0.1c0.2-0.1,0.4-0.2,0.5-0.3c0.1-0.1,0.2-0.1,0.3-0.2c0.2-0.2,0.5-0.4,0.7-0.6
		c0,0,0,0,0-0.1c0.2-0.2,0.4-0.4,0.5-0.7c0.1-0.1,0.1-0.2,0.2-0.3c0.1-0.2,0.2-0.4,0.3-0.5c0-0.1,0.1-0.2,0.1-0.3
		c0-0.1,0.1-0.2,0.1-0.3c0.4-1.4,9.9-34.1-12.4-70.3C398.4-0.8,336.5,6.3,333.8,6.6c-0.1,0-0.3,0.1-0.4,0.1c-0.1,0-0.3,0-0.4,0.1
		c-0.3,0.1-0.5,0.2-0.8,0.3c0,0-0.1,0-0.1,0c-1.8,0.8-3.2,2.6-3.2,4.7C329.1,14.3,330.8,16.4,333.2,16.8z M372.2,78.2
		c-4.7-6.5-5.2-11.4-5.9-18.2c-0.8-7.6-1.7-17.1-9.1-30.9c-1-1.8-1.9-3.4-2.9-5c7.1,3.9,16.2,9.9,27.2,19.1
		c22.9,19.1,32.9,40.2,36.8,50.7C403.5,92.4,379.3,87.9,372.2,78.2z M409.2,36.4c9.3,15.1,12.4,29.6,13,40.8
		c-6.2-12-16.7-27.4-34.1-41.9c-10.4-8.7-19.2-14.7-26.5-18.9C379.1,17.5,400.4,22.1,409.2,36.4z"/>
	
		<linearGradient id="SVGID_00000020384963765965499630000009993546705992954535_" gradientUnits="userSpaceOnUse" x1="142.994" y1="80.2372" x2="524.4709" y2="461.7141">
		<stop  offset="0" style="stop-color:#336249"/>
		<stop  offset="5.000000e-05" style="stop-color:#336249"/>
		<stop  offset="0.9977" style="stop-color:#78B857"/>
		<stop  offset="1" style="stop-color:#78B857"/>
	</linearGradient>
	<path style="fill:url(#SVGID_00000020384963765965499630000009993546705992954535_);" d="M229.8,171c-2.1,1.1-4.2,0.9-6.5-0.1
		l-2.6,7c3.8,1.8,8.2,1.5,12.8-0.8c7.4-3.9,10.2-11.7,6.5-18.8c-3.7-7.1-11.8-9.2-19.2-5.3c-4.5,2.4-7.2,5.9-7.9,10l7.2,1.8
		c0.4-2.4,1.5-4.3,3.6-5.3c3.2-1.7,6.6-0.6,8.4,2.9C234,165.9,233,169.3,229.8,171z"/>
	
		<linearGradient id="SVGID_00000028311664030839592530000010613975088428713648_" gradientUnits="userSpaceOnUse" x1="114.2902" y1="108.9409" x2="495.7671" y2="490.4178">
		<stop  offset="0" style="stop-color:#336249"/>
		<stop  offset="5.000000e-05" style="stop-color:#336249"/>
		<stop  offset="0.9977" style="stop-color:#78B857"/>
		<stop  offset="1" style="stop-color:#78B857"/>
	</linearGradient>
	<path style="fill:url(#SVGID_00000028311664030839592530000010613975088428713648_);" d="M180.2,184.2l-6.6,6.2l26.1,11.1l6.3-5.9
		l-9.6-26.7l-6.5,6.1l1.8,4.5l-7.2,6.8L180.2,184.2z M194.3,185.7l2.7,6.5l-6.3-3L194.3,185.7z"/>
	
		<linearGradient id="SVGID_00000183240078637295705720000016427935569105909147_" gradientUnits="userSpaceOnUse" x1="83.1013" y1="140.1299" x2="464.5782" y2="521.6068">
		<stop  offset="0" style="stop-color:#336249"/>
		<stop  offset="5.000000e-05" style="stop-color:#336249"/>
		<stop  offset="0.9977" style="stop-color:#78B857"/>
		<stop  offset="1" style="stop-color:#78B857"/>
	</linearGradient>
	<path style="fill:url(#SVGID_00000183240078637295705720000016427935569105909147_);" d="M177.6,230.2l6.4-10.8l-22.3-13.4
		l-4.5,7.5l5.6,3.4l-1.2,2l-7.9,0.4l-4.8,8l9.7-0.6c-0.2,3.5,1.3,6.5,4.5,8.4C168.2,238.4,173.8,236.4,177.6,230.2z M166.8,223.1
		l1.6-2.7l5.2,3.1l-1.6,2.7c-1.2,2.1-2.8,2.5-4.5,1.5C166,226.8,165.6,225.2,166.8,223.1z"/>
	
		<linearGradient id="SVGID_00000123441118247779661430000005194767930445735579_" gradientUnits="userSpaceOnUse" x1="56.2524" y1="166.9788" x2="437.7293" y2="548.4557">
		<stop  offset="0" style="stop-color:#336249"/>
		<stop  offset="5.000000e-05" style="stop-color:#336249"/>
		<stop  offset="0.9977" style="stop-color:#78B857"/>
		<stop  offset="1" style="stop-color:#78B857"/>
	</linearGradient>
	<path style="fill:url(#SVGID_00000123441118247779661430000005194767930445735579_);" d="M148.4,270.4c0.5,2.6,2.1,4.3,4.5,5
		c3.8,1,7.4-1.4,9.3-8.4l3.7-13.4l-25.1-6.9l-3.9,14.1c-1.9,6.9-0.4,11.3,4,12.5C143.9,274.2,146.5,273.1,148.4,270.4z M152.9,263.2
		l1.1-3.9l3.7,1l-1.1,3.9c-0.5,1.9-1.4,2.6-2.6,2.3C152.8,266.2,152.4,265.1,152.9,263.2z M143,261.8l1.4-5.1l3.9,1.1l-1.4,5.1
		c-0.5,1.9-1.4,2.6-2.7,2.3C142.9,264.8,142.5,263.6,143,261.8z"/>
	
		<linearGradient id="SVGID_00000083060487145109036060000005465748917078106506_" gradientUnits="userSpaceOnUse" x1="30.7989" y1="192.4323" x2="412.2758" y2="573.9092">
		<stop  offset="0" style="stop-color:#336249"/>
		<stop  offset="5.000000e-05" style="stop-color:#336249"/>
		<stop  offset="0.9977" style="stop-color:#78B857"/>
		<stop  offset="1" style="stop-color:#78B857"/>
	</linearGradient>
	<path style="fill:url(#SVGID_00000083060487145109036060000005465748917078106506_);" d="M130.9,306.4c0.1,8.5,6,14.6,13.8,14.5
		c7.9-0.1,13.5-6.4,13.4-14.9c-0.1-8.5-6-14.6-13.8-14.5C136.4,291.6,130.8,297.9,130.9,306.4z M144.4,300.3
		c4.1-0.1,6.5,2.5,6.6,5.7c0.1,3.2-2.4,5.9-6.4,5.9c-4.1,0.1-6.5-2.5-6.6-5.7C138,303,140.4,300.4,144.4,300.3z"/>
	
		<linearGradient id="SVGID_00000001642351878360906120000002642891207213411463_" gradientUnits="userSpaceOnUse" x1="12.1229" y1="211.1083" x2="393.5998" y2="592.5851">
		<stop  offset="0" style="stop-color:#336249"/>
		<stop  offset="5.000000e-05" style="stop-color:#336249"/>
		<stop  offset="0.9977" style="stop-color:#78B857"/>
		<stop  offset="1" style="stop-color:#78B857"/>
	</linearGradient>
	<polygon style="fill:url(#SVGID_00000001642351878360906120000002642891207213411463_);" points="143.1,366.8 167.9,359 
		165.4,350.9 154.1,354.4 162.4,341.4 160.3,334.5 135.4,342.3 138,350.4 149.3,346.9 140.9,359.9 	"/>
	
		<linearGradient id="SVGID_00000003075955984259737430000000025828104509617311_" gradientUnits="userSpaceOnUse" x1="-0.4774" y1="223.7085" x2="380.9995" y2="605.1854">
		<stop  offset="0" style="stop-color:#336249"/>
		<stop  offset="5.000000e-05" style="stop-color:#336249"/>
		<stop  offset="0.9977" style="stop-color:#78B857"/>
		<stop  offset="1" style="stop-color:#78B857"/>
	</linearGradient>
	<polygon style="fill:url(#SVGID_00000003075955984259737430000000025828104509617311_);" points="185.5,428.8 204.6,411.1 
		198.8,404.9 190.2,412.9 192.1,397.6 187.2,392.3 168.1,410 173.9,416.3 182.6,408.2 180.6,423.5 	"/>
	
		<linearGradient id="SVGID_00000093873230453695321500000003594717401525216657_" gradientUnits="userSpaceOnUse" x1="2.2942" y1="220.937" x2="383.7711" y2="602.4139">
		<stop  offset="0" style="stop-color:#336249"/>
		<stop  offset="5.000000e-05" style="stop-color:#336249"/>
		<stop  offset="0.9977" style="stop-color:#78B857"/>
		<stop  offset="1" style="stop-color:#78B857"/>
	</linearGradient>
	<polygon style="fill:url(#SVGID_00000093873230453695321500000003594717401525216657_);" points="231.1,437.6 234.6,431.9 
		216.7,420.7 202.8,442.8 221.2,454.3 224.7,448.6 213.7,441.7 215.5,438.8 224.8,444.7 228.2,439.3 218.8,433.5 220.5,430.9 	"/>
	
		<linearGradient id="SVGID_00000126307417404060379770000013375724610297793948_" gradientUnits="userSpaceOnUse" x1="13.8108" y1="209.4203" x2="395.2878" y2="590.8972">
		<stop  offset="0" style="stop-color:#336249"/>
		<stop  offset="5.000000e-05" style="stop-color:#336249"/>
		<stop  offset="0.9977" style="stop-color:#78B857"/>
		<stop  offset="1" style="stop-color:#78B857"/>
	</linearGradient>
	<path style="fill:url(#SVGID_00000126307417404060379770000013375724610297793948_);" d="M252.3,467.4c7.7,2.3,13.4-0.6,15.7-8.1
		l4.1-13.7l-8.3-2.5l-4.1,13.5c-1.1,3.8-3,4.8-5.4,4.1c-2.3-0.7-3.4-2.6-2.2-6.4l4.1-13.5l-8.4-2.5l-4.1,13.7
		C241.5,459.4,244.7,465.1,252.3,467.4z"/>
	
		<linearGradient id="SVGID_00000139296043399056622680000012923015005446074554_" gradientUnits="userSpaceOnUse" x1="31.1832" y1="192.048" x2="412.66" y2="573.5249">
		<stop  offset="0" style="stop-color:#336249"/>
		<stop  offset="5.000000e-05" style="stop-color:#336249"/>
		<stop  offset="0.9977" style="stop-color:#78B857"/>
		<stop  offset="1" style="stop-color:#78B857"/>
	</linearGradient>
	<polygon style="fill:url(#SVGID_00000139296043399056622680000012923015005446074554_);" points="300.4,474.2 301.1,455 
		308.7,455.2 308.9,448.4 284.9,447.6 284.7,454.4 292.3,454.7 291.6,473.9 	"/>
	
		<linearGradient id="SVGID_00000036948403412198659450000000006033015968735672_" gradientUnits="userSpaceOnUse" x1="50.2711" y1="172.9601" x2="431.748" y2="554.437">
		<stop  offset="0" style="stop-color:#336249"/>
		<stop  offset="5.000000e-05" style="stop-color:#336249"/>
		<stop  offset="0.9977" style="stop-color:#78B857"/>
		<stop  offset="1" style="stop-color:#78B857"/>
	</linearGradient>
	<path style="fill:url(#SVGID_00000036948403412198659450000000006033015968735672_);" d="M343.3,469.1l9.1-2.1l-7.1-6.6
		c2.7-2.2,3.8-5.4,3-9.1c-1.3-5.9-6.6-8.6-13.7-7l-12.2,2.7l5.7,25.4l8.6-1.9l-1.4-6.4l2.3-0.5L343.3,469.1z M333.7,457.8l-1.3-6
		l3.1-0.7c2.4-0.5,3.7,0.3,4.2,2.2c0.4,1.9-0.5,3.2-2.8,3.8L333.7,457.8z"/>
	
		<linearGradient id="SVGID_00000085973579438349124430000012507537303359554433_" gradientUnits="userSpaceOnUse" x1="76.5036" y1="146.7276" x2="457.9805" y2="528.2045">
		<stop  offset="0" style="stop-color:#336249"/>
		<stop  offset="5.000000e-05" style="stop-color:#336249"/>
		<stop  offset="0.9977" style="stop-color:#78B857"/>
		<stop  offset="1" style="stop-color:#78B857"/>
	</linearGradient>
	<path style="fill:url(#SVGID_00000085973579438349124430000012507537303359554433_);" d="M389.1,450.4l8-4.3l-22.4-17.4l-7.6,4.1
		l2.4,28.3l7.8-4.3l-0.6-4.8l8.7-4.7L389.1,450.4z M375.8,445.3l-0.9-7l5.3,4.5L375.8,445.3z"/>
	
		<linearGradient id="SVGID_00000016768463582117965870000004990939356360914831_" gradientUnits="userSpaceOnUse" x1="108.0557" y1="115.1755" x2="489.5326" y2="496.6524">
		<stop  offset="0" style="stop-color:#336249"/>
		<stop  offset="5.000000e-05" style="stop-color:#336249"/>
		<stop  offset="0.9977" style="stop-color:#78B857"/>
		<stop  offset="1" style="stop-color:#78B857"/>
	</linearGradient>
	<polygon style="fill:url(#SVGID_00000016768463582117965870000004990939356360914831_);" points="427.2,419.9 422.5,415 414,423.1 
		400.8,409.1 394.4,415.1 412.3,434 	"/>
	
		<linearGradient id="SVGID_00000033362257930704366190000016351169743378302645_" gradientUnits="userSpaceOnUse" x1="156.9113" y1="66.3199" x2="538.3882" y2="447.7968">
		<stop  offset="0" style="stop-color:#336249"/>
		<stop  offset="5.000000e-05" style="stop-color:#336249"/>
		<stop  offset="0.9977" style="stop-color:#78B857"/>
		<stop  offset="1" style="stop-color:#78B857"/>
	</linearGradient>
	<path style="fill:url(#SVGID_00000033362257930704366190000016351169743378302645_);" d="M462.1,362.8l3.5-8.4l-28.4,0.6l-3.3,8
		l19.7,20.5l3.4-8.2l-3.5-3.4l3.8-9.1L462.1,362.8z M448.5,367.2l-5.1-4.8l7,0.2L448.5,367.2z"/>
	
		<linearGradient id="SVGID_00000067947405800778733900000013837668252554949262_" gradientUnits="userSpaceOnUse" x1="179.0361" y1="44.195" x2="560.513" y2="425.6719">
		<stop  offset="0" style="stop-color:#336249"/>
		<stop  offset="5.000000e-05" style="stop-color:#336249"/>
		<stop  offset="0.9977" style="stop-color:#78B857"/>
		<stop  offset="1" style="stop-color:#78B857"/>
	</linearGradient>
	<path style="fill:url(#SVGID_00000067947405800778733900000013837668252554949262_);" d="M471.5,322.5c0.9-8.7-3.3-15.1-11.4-16
		c-8-0.9-13.6,4.5-14.5,13.2l-1.4,12.8l25.9,2.8L471.5,322.5z M464.6,322.1l-0.4,3.7l-12.3-1.3l0.4-3.7c0.4-3.7,2.9-5.9,6.8-5.5
		C463.1,315.7,465,318.4,464.6,322.1z"/>
	
		<linearGradient id="SVGID_00000001639424380811368700000013396570021457883525_" gradientUnits="userSpaceOnUse" x1="201.0864" y1="22.1447" x2="582.5633" y2="403.6216">
		<stop  offset="0" style="stop-color:#336249"/>
		<stop  offset="5.000000e-05" style="stop-color:#336249"/>
		<stop  offset="0.9977" style="stop-color:#78B857"/>
		<stop  offset="1" style="stop-color:#78B857"/>
	</linearGradient>
	<path style="fill:url(#SVGID_00000001639424380811368700000013396570021457883525_);" d="M444.6,270c-1.1,2.9-1.2,6.6-0.7,10.1
		c1.3,8,5.8,11.3,10.6,10.6c9.6-1.5,4.7-15.3,7.9-15.8c0.9-0.1,1.5,0.7,1.9,3.1c0.4,2.8,0.1,6.2-1,8.9l6.8,1.8
		c1.2-2.8,1.5-7.3,0.9-11.6c-1.3-8-5.9-11.3-10.6-10.6c-9.5,1.5-4.6,15.3-7.7,15.8c-0.9,0.1-1.7-0.5-2.1-3.1
		c-0.4-2.2-0.1-4.7,0.8-7.5L444.6,270z"/>
	<path d="M231,276.6c5.3,0,11.4-1.6,15.7-4.6v-15.3h-10.6v9.1c-1.5,0.6-2.9,0.9-4.4,0.9c-5.2,0-8.6-3.6-8.6-9c0-5.6,3.4-9,8.8-9
		c3.2,0,5.8,1.3,8.1,4l7.8-6.9c-3.7-4.5-9.4-7-16.5-7c-11.9,0-20.4,7.8-20.4,18.9C210.8,268.8,219.3,276.6,231,276.6z"/>
	<path d="M276,238.8c-11.8,0-20.4,8-20.4,18.9c0,10.9,8.6,18.9,20.4,18.9s20.4-8,20.4-18.9C296.4,246.7,287.8,238.8,276,238.8z
		 M276,266.7c-4.5,0-8.1-3.4-8.1-9c0-5.6,3.6-9,8.1-9s8.1,3.4,8.1,9C284.2,263.3,280.5,266.7,276,266.7z"/>
	<path d="M345.4,257.7c0-10.9-8.6-18.9-20.4-18.9c-11.8,0-20.4,8-20.4,18.9c0,10.9,8.6,18.9,20.4,18.9
		C336.8,276.6,345.4,268.6,345.4,257.7z M316.9,257.7c0-5.6,3.6-9,8.1-9c4.5,0,8.1,3.4,8.1,9c0,5.6-3.6,9-8.1,9
		C320.5,266.7,316.9,263.3,316.9,257.7z"/>
	<path d="M393.2,257.7c0-11.2-8.3-18.1-20.4-18.1H355v36.1h17.8C384.9,275.7,393.2,268.9,393.2,257.7z M367.2,266.2v-17.1h5.1
		c5.1,0,8.6,3,8.6,8.6c0,5.5-3.5,8.6-8.6,8.6H367.2z"/>
	<polygon points="247,355.1 230.7,355.1 230.7,328.4 218.5,328.4 218.5,364.6 247,364.6 	"/>
	<path d="M294.4,346.5c0-10.9-8.6-18.9-20.4-18.9c-11.8,0-20.4,8-20.4,18.9c0,10.9,8.6,18.9,20.4,18.9
		C285.8,365.4,294.4,357.4,294.4,346.5z M265.9,346.5c0-5.6,3.6-9,8.1-9c4.5,0,8.1,3.4,8.1,9c0,5.6-3.6,9-8.1,9
		C269.5,355.5,265.9,352.1,265.9,346.5z"/>
	<path d="M343.4,346.5c0-10.9-8.6-18.9-20.4-18.9s-20.4,8-20.4,18.9c0,10.9,8.6,18.9,20.4,18.9S343.4,357.4,343.4,346.5z
		 M314.9,346.5c0-5.6,3.6-9,8.1-9c4.5,0,8.1,3.4,8.1,9c0,5.6-3.6,9-8.1,9C318.5,355.5,314.9,352.1,314.9,346.5z"/>
	<path d="M353,364.6h12.2v-8.9h5.2c10.1,0,16.5-5.3,16.5-13.6s-6.4-13.6-16.5-13.6H353V364.6z M365.2,337.8h4.4c3.4,0,5,1.6,5,4.2
		c0,2.6-1.6,4.2-5,4.2h-4.4V337.8z"/>
	<rect x="282.7" y="297.7" width="38.6" height="11.8"/>
	<path d="M506,213.7c-1.1-2.6-4.2-3.8-6.8-2.7c-2.6,1.1-3.8,4.2-2.7,6.8c11.7,26.8,17.6,55.3,17.6,84.8
		c0,117-95.2,212.2-212.2,212.2c-117,0-212.2-95.2-212.2-212.2c0-117,95.2-212.2,212.2-212.2c8.4,0,16.8,0.5,25.1,1.5
		c2.9,0.3,5.4-1.7,5.7-4.5c0.3-2.8-1.7-5.4-4.5-5.7c-8.7-1-17.5-1.5-26.3-1.5C179.3,80.2,79.5,180,79.5,302.6S179.3,525.1,302,525.1
		s222.5-99.8,222.5-222.5C524.5,271.7,518.3,241.8,506,213.7z"/>
</g>
</svg>
