<?xml version="1.0" encoding="utf-8"?>
<!-- Generator: Adobe Illustrator 26.0.1, SVG Export Plug-In . SVG Version: 6.00 Build 0)  -->
<svg version="1.1" id="Layer_1" xmlns="http://www.w3.org/2000/svg" xmlns:xlink="http://www.w3.org/1999/xlink" x="0px" y="0px"
	 width="604px" height="604px" viewBox="0 0 604 604" style="enable-background:new 0 0 604 604;" xml:space="preserve">
<style type="text/css">
	.st0{fill:url(#SVGID_1_);}
	.st1{fill:url(#SVGID_00000151530428292722964000000008905068085286525091_);}
	.st2{fill:url(#SVGID_00000070816170203544856570000016479064818393385877_);}
	.st3{fill:url(#SVGID_00000052820193617074523080000010352992311330640001_);}
	.st4{fill:url(#SVGID_00000008118311145583059460000004774136638378846112_);}
	.st5{fill:url(#SVGID_00000170280264593121849680000012304739226427606942_);}
	.st6{fill:url(#SVGID_00000091006805831551892210000005364568187807864505_);}
	.st7{fill:url(#SVGID_00000110463541572678021300000008026642958243439542_);}
	.st8{fill:url(#SVGID_00000168838447377487090640000007490197722890609548_);}
	.st9{fill:url(#SVGID_00000140010086539728801560000009733317061882822813_);}
	.st10{fill:url(#SVGID_00000097498042338946936010000003679153324528200328_);}
	.st11{fill:url(#SVGID_00000088128038865879363680000009578018247597247389_);}
	.st12{fill:url(#SVGID_00000175307741805401929510000012547630830441759934_);}
	.st13{fill:url(#SVGID_00000052818574200796838230000000766279740760687030_);}
	.st14{fill:url(#SVGID_00000090974937504396412610000017216468546044001424_);}
	.st15{fill:url(#SVGID_00000132767317258575869600000003522469019117560990_);}
	.st16{fill:url(#SVGID_00000183236039197634848870000007605021436129283213_);}
	.st17{fill:url(#SVGID_00000132810505576766658960000001886797726463823262_);}
	.st18{fill:url(#SVGID_00000005255350035926242600000000108364590245110177_);}
	.st19{fill:url(#SVGID_00000128484972080838617970000002374379193528362406_);}
	.st20{fill:url(#SVGID_00000047777493843843685710000016480744772873852088_);}
	.st21{fill:url(#SVGID_00000131335874991626235230000002241247075749255609_);}
	.st22{fill:url(#SVGID_00000167389919977995062900000000785603294907448988_);}
	.st23{fill:url(#SVGID_00000119109706464442122910000006793813981232410780_);}
	.st24{fill:url(#SVGID_00000029016646368411707610000015661666136320207261_);}
	.st25{fill:url(#SVGID_00000153668598679486817500000000048438087584911508_);}
	.st26{fill:url(#SVGID_00000101070531015017981180000014040053653915481263_);}
	.st27{fill:url(#SVGID_00000096045469934941536850000006670071466398643849_);}
	.st28{fill:#FFFFFF;}
	.st29{fill:url(#SVGID_00000033329563528913232410000009943399324865818263_);}
	.st30{fill:url(#SVGID_00000073712487313622786270000017308454750492587199_);}
	.st31{fill:url(#SVGID_00000137105241506023300040000017098056583886395287_);}
	.st32{fill:url(#SVGID_00000098939992952880198580000002561036829268906131_);}
	.st33{fill:url(#SVGID_00000103985615517613587340000009236685433320025789_);}
	.st34{fill:url(#SVGID_00000007406992928327791400000015119642609310131618_);}
	.st35{fill:url(#SVGID_00000172416992923020679390000016708289178789258645_);}
	.st36{fill:url(#SVGID_00000027589649737699243280000006565045178286650793_);}
	.st37{fill:url(#SVGID_00000133502539990321918770000009262601635216312238_);}
	.st38{fill:url(#SVGID_00000178926412272293777250000012430202494166651272_);}
	.st39{fill:url(#SVGID_00000071517416619890492310000005783555984877486210_);}
	.st40{fill:url(#SVGID_00000163035326941821000250000005248115198358712722_);}
	.st41{fill:url(#SVGID_00000121997293594193167360000013823313958343495344_);}
	.st42{fill:url(#SVGID_00000178923401183532311620000016211162567354417339_);}
	.st43{fill:url(#SVGID_00000133528386839609952290000001524448727040533431_);}
	.st44{fill:url(#SVGID_00000041286084722632309590000003701330969991118482_);}
	.st45{fill:url(#SVGID_00000088098200840506058420000002457237585346616197_);}
	.st46{fill:url(#SVGID_00000044144705533234835330000006485597963016288163_);}
	.st47{fill:url(#SVGID_00000085226297864381018980000008293254713610684819_);}
	.st48{fill:url(#SVGID_00000034808738259370331950000016795007229266745490_);}
	.st49{fill:url(#SVGID_00000065756162592241160140000008469280404361109399_);}
	.st50{fill:url(#SVGID_00000077319686309448896190000007074313299794543497_);}
	.st51{fill:url(#SVGID_00000057838409161135755010000014269182823042854784_);}
	.st52{fill:url(#SVGID_00000130643186156135764370000003000249263709575081_);}
	.st53{fill:url(#SVGID_00000170271655172632011100000000057844913651579789_);}
	.st54{fill:url(#SVGID_00000140013639641881179400000010703526512595383954_);}
	.st55{fill:url(#SVGID_00000163066245515122545700000009160699544871963543_);}
	.st56{fill:url(#SVGID_00000070098709751294278340000015625831759799977869_);}
	.st57{fill:url(#SVGID_00000036213975047405563090000009141604975516430493_);}
	.st58{fill:url(#SVGID_00000107568988839449374460000001422950637299994546_);}
	.st59{fill:url(#SVGID_00000109004311439496645230000000251530753752279472_);}
	.st60{fill:url(#SVGID_00000096058395342082884310000014788286684305238443_);}
	.st61{fill:url(#SVGID_00000048470424581644181590000003624760924893030329_);}
	.st62{fill:url(#SVGID_00000111907721979966735440000015481763956470170268_);}
</style>
<linearGradient id="SVGID_1_" gradientUnits="userSpaceOnUse" x1="462.8369" y1="109.8366" x2="509.5077" y2="109.8366">
	<stop  offset="0" style="stop-color:#336249"/>
	<stop  offset="5.000000e-05" style="stop-color:#336249"/>
	<stop  offset="0.9977" style="stop-color:#78B857"/>
	<stop  offset="1" style="stop-color:#78B857"/>
</linearGradient>
<path class="st0" d="M462.8,45.8c0,0,37,12,44.8,55.6c7.7,43.6-10.3,72.4-10.3,72.4s-14.8-22.5-10.8-35.8c4-13.3,10.4-39.8-2.3-59.4
	C471.5,59.1,462.8,45.8,462.8,45.8z"/>
<linearGradient id="SVGID_00000144313058928083590950000008210733375249222799_" gradientUnits="userSpaceOnUse" x1="448.3718" y1="115.5939" x2="488.7783" y2="115.5939">
	<stop  offset="0" style="stop-color:#336249"/>
	<stop  offset="5.000000e-05" style="stop-color:#336249"/>
	<stop  offset="0.9977" style="stop-color:#78B857"/>
	<stop  offset="1" style="stop-color:#78B857"/>
</linearGradient>
<path style="fill:url(#SVGID_00000144313058928083590950000008210733375249222799_);" d="M459.4,57.9c0,0,17.3,8.6,23.6,37.5
	c6.3,28.8-11,37.5-4.6,56.5c6.3,19,10.4,21.3,10.4,21.3s-39.2-24.2-40.4-45S465.3,77.9,459.4,57.9z"/>
<linearGradient id="SVGID_00000085211997972607395170000013733874414682080147_" gradientUnits="userSpaceOnUse" x1="352.1537" y1="54.2864" x2="430.9689" y2="54.2864">
	<stop  offset="0" style="stop-color:#336249"/>
	<stop  offset="5.000000e-05" style="stop-color:#336249"/>
	<stop  offset="0.9977" style="stop-color:#78B857"/>
	<stop  offset="1" style="stop-color:#78B857"/>
</linearGradient>
<path style="fill:url(#SVGID_00000085211997972607395170000013733874414682080147_);" d="M352.2,13c0,0,41.8-4.4,65.9,18
	s7.2,65,7.2,65S414.4,53.3,393.6,36C376.6,21.8,352.2,13,352.2,13z"/>
<linearGradient id="SVGID_00000098191602317663905440000014486633205466683568_" gradientUnits="userSpaceOnUse" x1="333.427" y1="56.9781" x2="425.2415" y2="56.9781">
	<stop  offset="0" style="stop-color:#336249"/>
	<stop  offset="5.000000e-05" style="stop-color:#336249"/>
	<stop  offset="0.9977" style="stop-color:#78B857"/>
	<stop  offset="1" style="stop-color:#78B857"/>
</linearGradient>
<path style="fill:url(#SVGID_00000098191602317663905440000014486633205466683568_);" d="M333.4,16.8c0,0,41.8,1.7,61.4,28.7
	s30.4,50.5,30.4,50.5s-55.5,8.3-61.4-18.5S359.7,34.7,333.4,16.8z"/>
<linearGradient id="SVGID_00000058578894169653525430000001914409907249385646_" gradientUnits="userSpaceOnUse" x1="271.2027" y1="155.3436" x2="460.4633" y2="155.3436">
	<stop  offset="0" style="stop-color:#336249"/>
	<stop  offset="5.000000e-05" style="stop-color:#336249"/>
	<stop  offset="0.9977" style="stop-color:#78B857"/>
	<stop  offset="1" style="stop-color:#78B857"/>
</linearGradient>
<path style="fill:url(#SVGID_00000058578894169653525430000001914409907249385646_);" d="M272.8,115.7c0,0-12.8,8.5,33.3,2.5
	c46-6,74.9,3.2,91,10.1c16.1,6.9,51.1,38.6,61.1,61.1c10,22.5-12.7-30-84.2-31.1C302.6,157.1,272.8,115.7,272.8,115.7z"/>
<linearGradient id="SVGID_00000041268457175530402360000014313801826532168112_" gradientUnits="userSpaceOnUse" x1="270.2943" y1="170.475" x2="458.8086" y2="170.475">
	<stop  offset="0" style="stop-color:#336249"/>
	<stop  offset="5.000000e-05" style="stop-color:#336249"/>
	<stop  offset="0.9977" style="stop-color:#78B857"/>
	<stop  offset="1" style="stop-color:#78B857"/>
</linearGradient>
<path style="fill:url(#SVGID_00000041268457175530402360000014313801826532168112_);" d="M270.3,132.9
	c28.2,18.4,42.4,28.8,66.3,32.3c23.9,3.5,43.5-1.2,69.5,5.8c26.1,6.9,52.7,37.1,52.7,37.1s-39.7-24.4-92.9-14.1
	C312.7,204.4,270.3,132.9,270.3,132.9z"/>
<path class="st28" d="M457.8,78.1c-0.6,5.9-1.8,11.5-2.9,16.9c-2.1,10-4.3,20.3-2.6,32.2c2.4,16.7,10.7,32.2,23.6,43.7
	c9.8,8.8,13,10.1,14.7,10.1c0.4,0,0.7-0.1,1-0.1c1.6-0.3,3-1.4,3.7-2.8c0.6-1.2,1.1-2.4,1.6-3.6l0.3-0.7
	c11.5-27.5,14.9-51.9,10.3-72.4C502.7,79.7,486,42.1,454.3,38c-0.2,0-0.4,0-0.6-0.1c-0.1,0-0.1,0-0.2,0c-1.5-0.1-3.1,0.4-4.2,1.5
	c-2.8,2.8-1.2,5.9,0.6,9.4C452.8,54.8,459,66.9,457.8,78.1z M462.6,125.9c-1.4-10.1,0.5-19.1,2.4-28.7c1.2-5.7,2.4-11.5,3.1-18
	c0.2-2.2,0.2-4.4,0.1-6.6c5.4,9,10.4,19.3,12.4,29c2.2,10.5,1.4,20.2,0.6,29.7c-0.9,10.4-1.8,21.1,1.7,32.1c0,0,0,0-0.1-0.1
	C471.8,153.4,464.6,140.1,462.6,125.9z M497.5,103.7c3.5,15.5,1.7,33.8-5.4,54.5c-2.2-8.3-1.5-16.8-0.7-26.1
	c0.8-9.7,1.8-20.7-0.8-32.7c-3.4-16.1-13.5-32.9-21.8-44.6C483.2,65.1,493.4,85.3,497.5,103.7z"/>
<path class="st28" d="M306.1,118.2c-15.3,1.6-26.4,2.8-32.7-2.1c-0.1-0.1-0.2-0.2-0.3-0.2c-0.1-0.1-0.2-0.1-0.3-0.2
	c-0.5-0.3-1.1-0.5-1.7-0.6c-0.1,0-0.2,0-0.3,0c-0.2,0-0.4,0-0.6,0c-0.1,0-0.2,0-0.3,0c-0.2,0-0.4,0-0.6,0.1c-0.1,0-0.2,0-0.3,0.1
	c-0.3,0.1-0.6,0.2-0.9,0.3c0,0,0,0,0,0c-0.2,0.1-0.5,0.2-0.7,0.4c0,0-0.1,0.1-0.1,0.1c0,0-0.1,0-0.1,0c-0.1,0-0.1,0.1-0.1,0.1
	c-0.2,0.1-0.4,0.3-0.5,0.5c-0.1,0.1-0.1,0.2-0.2,0.2c-0.1,0.2-0.3,0.3-0.4,0.5c0,0.1-0.1,0.1-0.1,0.2c-0.2,0.3-0.3,0.5-0.4,0.8
	c0,0.1,0,0.1-0.1,0.2c-0.1,0.2-0.1,0.5-0.2,0.7c0,0.1,0,0.2,0,0.3c0,0.2,0,0.4,0,0.6c0,0.1,0,0.2,0,0.3c0,0.2,0,0.4,0.1,0.6
	c0,0.1,0,0.2,0.1,0.3c0,0,0,0.1,0,0.1c0.2,0.6,4.3,15.7,15,31.9c14.4,21.7,33.9,35,56.4,38.3c29.8,4.4,47,2.9,60.8,1.7
	c10.5-0.9,18.8-1.7,30.1,0.2c17.2,2.8,27.1,10.5,31.3,14.6c0.9,1,1.8,2,2.7,3c0.1,0.1,0.2,0.2,0.3,0.3c0.1,0.1,0.2,0.2,0.4,0.3
	c0.2,0.1,0.4,0.3,0.6,0.4c0.1,0.1,0.2,0.2,0.4,0.2c0.2,0.1,0.5,0.2,0.7,0.3c0.1,0,0.2,0.1,0.3,0.1c0.4,0.1,0.7,0.1,1.1,0.1
	c0.4,0,0.7,0,1.1-0.1c0.1,0,0.2-0.1,0.3-0.1c0.3-0.1,0.5-0.2,0.8-0.3c0.1,0,0.1,0,0.2-0.1c0.1,0,0.1-0.1,0.2-0.1
	c0.1-0.1,0.3-0.2,0.4-0.2c0.1-0.1,0.3-0.2,0.4-0.3c0.1,0,0.1-0.1,0.2-0.1c0,0,0.1-0.1,0.1-0.1c0.2-0.1,0.3-0.3,0.4-0.5
	c0.1-0.1,0.2-0.2,0.2-0.3c0.1-0.2,0.2-0.3,0.3-0.5c0.1-0.1,0.1-0.2,0.2-0.3c0.1-0.2,0.2-0.5,0.3-0.7c0-0.1,0-0.1,0.1-0.2
	c0.1-0.3,0.1-0.6,0.1-0.9c0-0.1,0-0.2,0-0.3c0-0.2,0-0.4,0-0.7c0-0.1-0.1-0.3-0.1-0.4c0-0.1,0-0.3-0.1-0.4c-0.9-3-22.4-73.3-86.3-86
	C350.6,113.5,324.9,116.2,306.1,118.2z M413.7,182c-5.8,0-11.2,0.5-17.1,1c-13.9,1.2-29.7,2.6-58.4-1.6c-28-4.1-44.9-25.1-54-41.6
	c14.7,10.2,38.8,21.9,75,24.2c45.1,2.9,59.7,5.4,77.1,20.8c-2.2-0.6-4.6-1.1-7.1-1.5C423.5,182.4,418.5,182,413.7,182z M447.4,181
	c-21.7-20.8-36.5-24-87.5-27.3c-35.3-2.3-58.3-14.2-71.5-23.8c5.6-0.1,11.8-0.7,18.8-1.5c18.1-1.9,42.9-4.6,74.8,1.8
	C414.7,136.8,435.5,161.1,447.4,181z"/>
<path class="st28" d="M333.2,16.8c0.1,0,0.1,0,0.2,0c1,0.4,7.1,3.2,14.6,17.2c6.4,11.9,7.2,19.6,7.9,27c0.7,7.5,1.4,14.6,7.9,23.3
	c12.9,17.6,56.5,20.4,61.4,20.6c0.1,0,0.2,0,0.2,0c0,0,0,0,0,0c0,0,0,0,0,0c0.3,0,0.6,0,1-0.1c0,0,0.1,0,0.1,0c0.1,0,0.1,0,0.2-0.1
	c0.2-0.1,0.4-0.1,0.6-0.2c0.1,0,0.2-0.1,0.3-0.1c0.2-0.1,0.4-0.2,0.5-0.3c0.1-0.1,0.2-0.1,0.3-0.2c0.2-0.2,0.5-0.4,0.7-0.6
	c0,0,0,0,0-0.1c0.2-0.2,0.4-0.4,0.5-0.7c0.1-0.1,0.1-0.2,0.2-0.3c0.1-0.2,0.2-0.4,0.3-0.5c0-0.1,0.1-0.2,0.1-0.3
	c0-0.1,0.1-0.2,0.1-0.3c0.4-1.4,9.9-34.1-12.4-70.3C398.4-0.8,336.5,6.3,333.8,6.6c-0.1,0-0.3,0.1-0.4,0.1c-0.1,0-0.3,0-0.4,0.1
	c-0.3,0.1-0.5,0.2-0.8,0.3c0,0-0.1,0-0.1,0c-1.8,0.8-3.2,2.6-3.2,4.7C329.1,14.3,330.8,16.4,333.2,16.8z M372.2,78.2
	c-4.7-6.5-5.2-11.4-5.9-18.2c-0.8-7.6-1.7-17.1-9.1-30.9c-1-1.8-1.9-3.4-2.9-5c7.1,3.9,16.2,9.9,27.2,19.1
	c22.9,19.1,32.9,40.2,36.8,50.7C403.5,92.4,379.3,87.9,372.2,78.2z M409.2,36.4c9.3,15.1,12.4,29.6,13,40.8
	c-6.2-12-16.7-27.4-34.1-41.9c-10.4-8.7-19.2-14.7-26.5-18.9C379.1,17.5,400.4,22.1,409.2,36.4z"/>
<linearGradient id="SVGID_00000127738973437536362780000009893071142957039014_" gradientUnits="userSpaceOnUse" x1="157.2522" y1="95.0612" x2="495.1139" y2="430.2625">
	<stop  offset="0" style="stop-color:#336249"/>
	<stop  offset="5.000000e-05" style="stop-color:#336249"/>
	<stop  offset="0.9977" style="stop-color:#78B857"/>
	<stop  offset="1" style="stop-color:#78B857"/>
</linearGradient>
<path style="fill:url(#SVGID_00000127738973437536362780000009893071142957039014_);" d="M229.8,171c-2.1,1.1-4.2,0.9-6.5-0.1
	l-2.6,7c3.8,1.8,8.2,1.5,12.8-0.8c7.4-3.9,10.2-11.7,6.5-18.8c-3.7-7.1-11.8-9.2-19.2-5.3c-4.5,2.4-7.2,5.9-7.9,10l7.2,1.8
	c0.4-2.4,1.5-4.3,3.6-5.3c3.2-1.7,6.6-0.6,8.4,2.9C234,165.9,233,169.3,229.8,171z"/>
<linearGradient id="SVGID_00000024000628287967871830000015909363221541735301_" gradientUnits="userSpaceOnUse" x1="128.723" y1="123.8168" x2="466.5847" y2="459.0182">
	<stop  offset="0" style="stop-color:#336249"/>
	<stop  offset="5.000000e-05" style="stop-color:#336249"/>
	<stop  offset="0.9977" style="stop-color:#78B857"/>
	<stop  offset="1" style="stop-color:#78B857"/>
</linearGradient>
<path style="fill:url(#SVGID_00000024000628287967871830000015909363221541735301_);" d="M180.2,184.2l-6.6,6.2l26.1,11.1l6.3-5.9
	l-9.6-26.7l-6.5,6.1l1.8,4.5l-7.2,6.8L180.2,184.2z M194.3,185.7l2.7,6.5l-6.3-3L194.3,185.7z"/>
<linearGradient id="SVGID_00000132792026830338808200000010967054547237620610_" gradientUnits="userSpaceOnUse" x1="97.6082" y1="155.1786" x2="435.4698" y2="490.38">
	<stop  offset="0" style="stop-color:#336249"/>
	<stop  offset="5.000000e-05" style="stop-color:#336249"/>
	<stop  offset="0.9977" style="stop-color:#78B857"/>
	<stop  offset="1" style="stop-color:#78B857"/>
</linearGradient>
<path style="fill:url(#SVGID_00000132792026830338808200000010967054547237620610_);" d="M177.6,230.2l6.4-10.8l-22.3-13.4l-4.5,7.5
	l5.6,3.4l-1.2,2l-7.9,0.4l-4.8,8l9.7-0.6c-0.2,3.5,1.3,6.5,4.5,8.4C168.2,238.4,173.8,236.4,177.6,230.2z M166.8,223.1l1.6-2.7
	l5.2,3.1l-1.6,2.7c-1.2,2.1-2.8,2.5-4.5,1.5C166,226.8,165.6,225.2,166.8,223.1z"/>
<linearGradient id="SVGID_00000067223878667574564190000007934616197022026376_" gradientUnits="userSpaceOnUse" x1="70.817" y1="182.1824" x2="408.6786" y2="517.3838">
	<stop  offset="0" style="stop-color:#336249"/>
	<stop  offset="5.000000e-05" style="stop-color:#336249"/>
	<stop  offset="0.9977" style="stop-color:#78B857"/>
	<stop  offset="1" style="stop-color:#78B857"/>
</linearGradient>
<path style="fill:url(#SVGID_00000067223878667574564190000007934616197022026376_);" d="M148.4,270.4c0.5,2.6,2.1,4.3,4.5,5
	c3.8,1,7.4-1.4,9.3-8.4l3.7-13.4l-25.1-6.9l-3.9,14.1c-1.9,6.9-0.4,11.3,4,12.5C143.9,274.2,146.5,273.1,148.4,270.4z M152.9,263.2
	l1.1-3.9l3.7,1l-1.1,3.9c-0.5,1.9-1.4,2.6-2.6,2.3C152.8,266.2,152.4,265.1,152.9,263.2z M143,261.8l1.4-5.1l3.9,1.1l-1.4,5.1
	c-0.5,1.9-1.4,2.6-2.7,2.3C142.9,264.8,142.5,263.6,143,261.8z"/>
<linearGradient id="SVGID_00000142890304152523716080000009236058146634333088_" gradientUnits="userSpaceOnUse" x1="45.3936" y1="207.8076" x2="383.2552" y2="543.009">
	<stop  offset="0" style="stop-color:#336249"/>
	<stop  offset="5.000000e-05" style="stop-color:#336249"/>
	<stop  offset="0.9977" style="stop-color:#78B857"/>
	<stop  offset="1" style="stop-color:#78B857"/>
</linearGradient>
<path style="fill:url(#SVGID_00000142890304152523716080000009236058146634333088_);" d="M130.9,306.4c0.1,8.5,6,14.6,13.8,14.5
	c7.9-0.1,13.5-6.4,13.4-14.9c-0.1-8.5-6-14.6-13.8-14.5C136.4,291.6,130.8,297.9,130.9,306.4z M144.4,300.3c4.1-0.1,6.5,2.5,6.6,5.7
	c0.1,3.2-2.4,5.9-6.4,5.9c-4.1,0.1-6.5-2.5-6.6-5.7C138,303,140.4,300.4,144.4,300.3z"/>
<linearGradient id="SVGID_00000179636368877004293160000018055942339307368854_" gradientUnits="userSpaceOnUse" x1="26.6901" y1="226.6595" x2="364.5518" y2="561.8608">
	<stop  offset="0" style="stop-color:#336249"/>
	<stop  offset="5.000000e-05" style="stop-color:#336249"/>
	<stop  offset="0.9977" style="stop-color:#78B857"/>
	<stop  offset="1" style="stop-color:#78B857"/>
</linearGradient>
<polygon style="fill:url(#SVGID_00000179636368877004293160000018055942339307368854_);" points="143.1,366.8 167.9,359 
	165.4,350.9 154.1,354.4 162.4,341.4 160.3,334.5 135.4,342.3 138,350.4 149.3,346.9 140.9,359.9 "/>
<linearGradient id="SVGID_00000080889804268111904740000015546724216688951936_" gradientUnits="userSpaceOnUse" x1="13.9536" y1="239.4971" x2="351.8153" y2="574.6985">
	<stop  offset="0" style="stop-color:#336249"/>
	<stop  offset="5.000000e-05" style="stop-color:#336249"/>
	<stop  offset="0.9977" style="stop-color:#78B857"/>
	<stop  offset="1" style="stop-color:#78B857"/>
</linearGradient>
<polygon style="fill:url(#SVGID_00000080889804268111904740000015546724216688951936_);" points="185.5,428.8 204.6,411.1 
	198.8,404.9 190.2,412.9 192.1,397.6 187.2,392.3 168.1,410 173.9,416.3 182.6,408.2 180.6,423.5 "/>
<linearGradient id="SVGID_00000112615767678265439440000004787884493406510977_" gradientUnits="userSpaceOnUse" x1="16.5977" y1="236.832" x2="354.4594" y2="572.0334">
	<stop  offset="0" style="stop-color:#336249"/>
	<stop  offset="5.000000e-05" style="stop-color:#336249"/>
	<stop  offset="0.9977" style="stop-color:#78B857"/>
	<stop  offset="1" style="stop-color:#78B857"/>
</linearGradient>
<polygon style="fill:url(#SVGID_00000112615767678265439440000004787884493406510977_);" points="231.1,437.6 234.6,431.9 
	216.7,420.7 202.8,442.8 221.2,454.3 224.7,448.6 213.7,441.7 215.5,438.8 224.8,444.7 228.2,439.3 218.8,433.5 220.5,430.9 "/>
<linearGradient id="SVGID_00000088844399817450951370000010951988824332143039_" gradientUnits="userSpaceOnUse" x1="27.9549" y1="225.3846" x2="365.8166" y2="560.586">
	<stop  offset="0" style="stop-color:#336249"/>
	<stop  offset="5.000000e-05" style="stop-color:#336249"/>
	<stop  offset="0.9977" style="stop-color:#78B857"/>
	<stop  offset="1" style="stop-color:#78B857"/>
</linearGradient>
<path style="fill:url(#SVGID_00000088844399817450951370000010951988824332143039_);" d="M252.3,467.4c7.7,2.3,13.4-0.6,15.7-8.1
	l4.1-13.7l-8.3-2.5l-4.1,13.5c-1.1,3.8-3,4.8-5.4,4.1c-2.3-0.7-3.4-2.6-2.2-6.4l4.1-13.5l-8.4-2.5l-4.1,13.7
	C241.5,459.4,244.7,465.1,252.3,467.4z"/>
<linearGradient id="SVGID_00000157296061374787245590000005126052314922178718_" gradientUnits="userSpaceOnUse" x1="45.1646" y1="208.0384" x2="383.0263" y2="543.2397">
	<stop  offset="0" style="stop-color:#336249"/>
	<stop  offset="5.000000e-05" style="stop-color:#336249"/>
	<stop  offset="0.9977" style="stop-color:#78B857"/>
	<stop  offset="1" style="stop-color:#78B857"/>
</linearGradient>
<polygon style="fill:url(#SVGID_00000157296061374787245590000005126052314922178718_);" points="300.4,474.2 301.1,455 
	308.7,455.2 308.9,448.4 284.9,447.6 284.7,454.4 292.3,454.7 291.6,473.9 "/>
<linearGradient id="SVGID_00000060013569578675501000000013632319147288430745_" gradientUnits="userSpaceOnUse" x1="64.1077" y1="188.945" x2="401.9694" y2="524.1463">
	<stop  offset="0" style="stop-color:#336249"/>
	<stop  offset="5.000000e-05" style="stop-color:#336249"/>
	<stop  offset="0.9977" style="stop-color:#78B857"/>
	<stop  offset="1" style="stop-color:#78B857"/>
</linearGradient>
<path style="fill:url(#SVGID_00000060013569578675501000000013632319147288430745_);" d="M343.3,469.1l9.1-2.1l-7.1-6.6
	c2.7-2.2,3.8-5.4,3-9.1c-1.3-5.9-6.6-8.6-13.7-7l-12.2,2.7l5.7,25.4l8.6-1.9l-1.4-6.4l2.3-0.5L343.3,469.1z M333.7,457.8l-1.3-6
	l3.1-0.7c2.4-0.5,3.7,0.3,4.2,2.2c0.4,1.9-0.5,3.2-2.8,3.8L333.7,457.8z"/>
<linearGradient id="SVGID_00000104706417545837760040000002579941392195522180_" gradientUnits="userSpaceOnUse" x1="90.1568" y1="162.6891" x2="428.0185" y2="497.8905">
	<stop  offset="0" style="stop-color:#336249"/>
	<stop  offset="5.000000e-05" style="stop-color:#336249"/>
	<stop  offset="0.9977" style="stop-color:#78B857"/>
	<stop  offset="1" style="stop-color:#78B857"/>
</linearGradient>
<path style="fill:url(#SVGID_00000104706417545837760040000002579941392195522180_);" d="M389.1,450.4l8-4.3l-22.4-17.4l-7.6,4.1
	l2.4,28.3l7.8-4.3l-0.6-4.8l8.7-4.7L389.1,450.4z M375.8,445.3l-0.9-7l5.3,4.5L375.8,445.3z"/>
<linearGradient id="SVGID_00000050657155894310631400000017060664168163660460_" gradientUnits="userSpaceOnUse" x1="121.5738" y1="131.0228" x2="459.4355" y2="466.2242">
	<stop  offset="0" style="stop-color:#336249"/>
	<stop  offset="5.000000e-05" style="stop-color:#336249"/>
	<stop  offset="0.9977" style="stop-color:#78B857"/>
	<stop  offset="1" style="stop-color:#78B857"/>
</linearGradient>
<polygon style="fill:url(#SVGID_00000050657155894310631400000017060664168163660460_);" points="427.2,419.9 422.5,415 414,423.1 
	400.8,409.1 394.4,415.1 412.3,434 "/>
<linearGradient id="SVGID_00000102541171750859836780000009748240235170944171_" gradientUnits="userSpaceOnUse" x1="170.2619" y1="81.9483" x2="508.1235" y2="417.1497">
	<stop  offset="0" style="stop-color:#336249"/>
	<stop  offset="5.000000e-05" style="stop-color:#336249"/>
	<stop  offset="0.9977" style="stop-color:#78B857"/>
	<stop  offset="1" style="stop-color:#78B857"/>
</linearGradient>
<path style="fill:url(#SVGID_00000102541171750859836780000009748240235170944171_);" d="M462.1,362.8l3.5-8.4l-28.4,0.6l-3.3,8
	l19.7,20.5l3.4-8.2l-3.5-3.4l3.8-9.1L462.1,362.8z M448.5,367.2l-5.1-4.8l7,0.2L448.5,367.2z"/>
<linearGradient id="SVGID_00000143592836449191875890000016888542216844895666_" gradientUnits="userSpaceOnUse" x1="192.3999" y1="59.6345" x2="530.2616" y2="394.8359">
	<stop  offset="0" style="stop-color:#336249"/>
	<stop  offset="5.000000e-05" style="stop-color:#336249"/>
	<stop  offset="0.9977" style="stop-color:#78B857"/>
	<stop  offset="1" style="stop-color:#78B857"/>
</linearGradient>
<path style="fill:url(#SVGID_00000143592836449191875890000016888542216844895666_);" d="M471.5,322.5c0.9-8.7-3.3-15.1-11.4-16
	c-8-0.9-13.6,4.5-14.5,13.2l-1.4,12.8l25.9,2.8L471.5,322.5z M464.6,322.1l-0.4,3.7l-12.3-1.3l0.4-3.7c0.4-3.7,2.9-5.9,6.8-5.5
	C463.1,315.7,465,318.4,464.6,322.1z"/>
<linearGradient id="SVGID_00000075121082731492436260000002115895681923625121_" gradientUnits="userSpaceOnUse" x1="214.4438" y1="37.4157" x2="552.3055" y2="372.6171">
	<stop  offset="0" style="stop-color:#336249"/>
	<stop  offset="5.000000e-05" style="stop-color:#336249"/>
	<stop  offset="0.9977" style="stop-color:#78B857"/>
	<stop  offset="1" style="stop-color:#78B857"/>
</linearGradient>
<path style="fill:url(#SVGID_00000075121082731492436260000002115895681923625121_);" d="M444.6,270c-1.1,2.9-1.2,6.6-0.7,10.1
	c1.3,8,5.8,11.3,10.6,10.6c9.6-1.5,4.7-15.3,7.9-15.8c0.9-0.1,1.5,0.7,1.9,3.1c0.4,2.8,0.1,6.2-1,8.9l6.8,1.8
	c1.2-2.8,1.5-7.3,0.9-11.6c-1.3-8-5.9-11.3-10.6-10.6c-9.5,1.5-4.6,15.3-7.7,15.8c-0.9,0.1-1.7-0.5-2.1-3.1
	c-0.4-2.2-0.1-4.7,0.8-7.5L444.6,270z"/>
<path class="st28" d="M231,276.6c5.3,0,11.4-1.6,15.7-4.6v-15.3h-10.6v9.1c-1.5,0.6-2.9,0.9-4.4,0.9c-5.2,0-8.6-3.6-8.6-9
	c0-5.6,3.4-9,8.8-9c3.2,0,5.8,1.3,8.1,4l7.8-6.9c-3.7-4.5-9.4-7-16.5-7c-11.9,0-20.4,7.8-20.4,18.9
	C210.8,268.8,219.3,276.6,231,276.6z"/>
<path class="st28" d="M276,238.8c-11.8,0-20.4,8-20.4,18.9c0,10.9,8.6,18.9,20.4,18.9s20.4-8,20.4-18.9
	C296.4,246.7,287.8,238.8,276,238.8z M276,266.7c-4.5,0-8.1-3.4-8.1-9c0-5.6,3.6-9,8.1-9s8.1,3.4,8.1,9
	C284.2,263.3,280.5,266.7,276,266.7z"/>
<path class="st28" d="M345.4,257.7c0-10.9-8.6-18.9-20.4-18.9c-11.8,0-20.4,8-20.4,18.9c0,10.9,8.6,18.9,20.4,18.9
	C336.8,276.6,345.4,268.6,345.4,257.7z M316.9,257.7c0-5.6,3.6-9,8.1-9c4.5,0,8.1,3.4,8.1,9c0,5.6-3.6,9-8.1,9
	C320.5,266.7,316.9,263.3,316.9,257.7z"/>
<path class="st28" d="M393.2,257.7c0-11.2-8.3-18.1-20.4-18.1H355v36.1h17.8C384.9,275.7,393.2,268.9,393.2,257.7z M367.2,266.2
	v-17.1h5.1c5.1,0,8.6,3,8.6,8.6c0,5.5-3.5,8.6-8.6,8.6H367.2z"/>
<polygon class="st28" points="247,355.1 230.7,355.1 230.7,328.4 218.5,328.4 218.5,364.6 247,364.6 "/>
<path class="st28" d="M294.4,346.5c0-10.9-8.6-18.9-20.4-18.9c-11.8,0-20.4,8-20.4,18.9c0,10.9,8.6,18.9,20.4,18.9
	C285.8,365.4,294.4,357.4,294.4,346.5z M265.9,346.5c0-5.6,3.6-9,8.1-9c4.5,0,8.1,3.4,8.1,9c0,5.6-3.6,9-8.1,9
	C269.5,355.5,265.9,352.1,265.9,346.5z"/>
<path class="st28" d="M343.4,346.5c0-10.9-8.6-18.9-20.4-18.9s-20.4,8-20.4,18.9c0,10.9,8.6,18.9,20.4,18.9S343.4,357.4,343.4,346.5
	z M314.9,346.5c0-5.6,3.6-9,8.1-9c4.5,0,8.1,3.4,8.1,9c0,5.6-3.6,9-8.1,9C318.5,355.5,314.9,352.1,314.9,346.5z"/>
<path class="st28" d="M353,364.6h12.2v-8.9h5.2c10.1,0,16.5-5.3,16.5-13.6s-6.4-13.6-16.5-13.6H353V364.6z M365.2,337.8h4.4
	c3.4,0,5,1.6,5,4.2c0,2.6-1.6,4.2-5,4.2h-4.4V337.8z"/>
<rect x="282.7" y="297.7" class="st28" width="38.6" height="11.8"/>
<path class="st28" d="M506,213.7c-1.1-2.6-4.2-3.8-6.8-2.7c-2.6,1.1-3.8,4.2-2.7,6.8c11.7,26.8,17.6,55.3,17.6,84.8
	c0,117-95.2,212.2-212.2,212.2c-117,0-212.2-95.2-212.2-212.2c0-117,95.2-212.2,212.2-212.2c8.4,0,16.8,0.5,25.1,1.5
	c2.9,0.3,5.4-1.7,5.7-4.5c0.3-2.8-1.7-5.4-4.5-5.7c-8.7-1-17.5-1.5-26.3-1.5C179.3,80.2,79.5,180,79.5,302.6S179.3,525.1,302,525.1
	s222.5-99.8,222.5-222.5C524.5,271.7,518.3,241.8,506,213.7z"/>
</svg>
