<?xml version="1.0" encoding="UTF-8" standalone="no"?>
<svg
   id="Layer_1"
   data-name="Layer 1"
   viewBox="0 0 1000 290"
   version="1.1"
   xml:space="preserve"
   sodipodi:docname="gl-lockup-subsite-template.svg"
   inkscape:version="1.2.2 (b0a8486541, 2022-12-01)"
   xmlns:inkscape="http://www.inkscape.org/namespaces/inkscape"
   xmlns:sodipodi="http://sodipodi.sourceforge.net/DTD/sodipodi-0.dtd"
   xmlns="http://www.w3.org/2000/svg"
   xmlns:svg="http://www.w3.org/2000/svg"><sodipodi:namedview
     id="namedview20"
     pagecolor="#ffffff"
     bordercolor="#666666"
     borderopacity="1.0"
     inkscape:showpageshadow="2"
     inkscape:pageopacity="0.0"
     inkscape:pagecheckerboard="0"
     inkscape:deskcolor="#d1d1d1"
     showgrid="false"
     inkscape:zoom="0.8137931"
     inkscape:cx="831.90678"
     inkscape:cy="151.75847"
     inkscape:window-width="1660"
     inkscape:window-height="1370"
     inkscape:window-x="1147"
     inkscape:window-y="32"
     inkscape:window-maximized="0"
     inkscape:current-layer="Layer_1" /><defs
     id="defs4"><style
       id="style2">
      .cls-1 {
        stroke-width: 0px;
      }
    </style></defs><text
     xml:space="preserve"
     style="font-weight:500;font-size:132.474px;line-height:1.25;font-family:'ABC Social';-inkscape-font-specification:'ABC Social Medium';word-spacing:0px;fill:#fafaf5;fill-opacity:1;stroke-width:13.2474"
     x="329.91367"
     y="259.57999"
     id="text1801"><tspan
       id="tspan1799"
       x="329.91367"
       y="259.57999"
       style="fill:#fafaf5;fill-opacity:1;stroke-width:13.2474">Subsite</tspan></text><path
     class="cls-1"
     d="m 130.91,70.08 c -27.13,0 -49.13,22 -49.13,49.13 0,27.13 21.99,49.13 49.13,49.13 27.14,0 49.13,-22 49.13,-49.13 0,-11.11 -3.69,-21.35 -9.9,-29.58 h 20.92 V 70.06 h -60.14 z m 29.56,49.13 c 0,16.3 -13.26,29.56 -29.56,29.56 -16.3,0 -29.56,-13.26 -29.56,-29.56 0,-16.3 13.26,-29.56 29.56,-29.56 16.3,0 29.56,13.26 29.56,29.56 z"
     id="path6"
     style="fill:#fafaf5;fill-opacity:1" /><path
     class="cls-1"
     d="M 91.52,148.68 H 71.95 c 0,44.82 33.8,78.62 78.62,78.62 v -19.57 c -33.67,0 -59.05,-25.39 -59.05,-59.05 z"
     id="path8"
     style="fill:#fafaf5;fill-opacity:1" /><path
     class="cls-1"
     d="M 142.11,7.89 C 66.51,7.89 5,69.4 5,145 5,220.6 66.51,282.11 142.11,282.11 217.71,282.11 279.22,220.6 279.22,145 279.22,69.4 217.72,7.89 142.11,7.89 Z m 0,254.66 C 77.29,262.55 24.56,209.82 24.56,145 24.56,80.18 77.3,27.45 142.11,27.45 c 64.81,0 117.55,52.73 117.55,117.55 0,64.82 -52.73,117.55 -117.55,117.55 z"
     id="path10"
     style="fill:#fafaf5;fill-opacity:1" /><g
     id="g1075"
     transform="translate(1.9392214,0.775002)"
     style="fill:#fafaf5;fill-opacity:1"><rect
       class="cls-1"
       x="654.15002"
       y="67.115005"
       width="45.77"
       height="19.48"
       id="rect12"
       style="fill:#fafaf5;fill-opacity:1" /><path
       class="cls-1"
       d="m 378.18,88.214999 h 21.6 v 0.8 C 398.72,102.795 390.77,111.005 378.85,111.005 c -15.24,0 -24.64,-12.590001 -24.64,-34.180001 0,-20.4 9.14,-34.05 24.91,-34.05 11.39,0 18.95,6.76 20.93,19.61 l 14.04,-4.5 c -2.91,-16.69 -14.57,-28.75 -34.45,-28.75 -24.91,0 -41.73,18.28 -41.73,48.36 0,30.080001 15.9,46.900001 37.49,46.900001 15.1,0 23.85,-8.48 27.16,-19.47 v 17.49 h 11.92 V 76.044999 h -36.3 v 12.19 z"
       id="path14"
       style="fill:#fafaf5;fill-opacity:1" /><path
       class="cls-1"
       d="m 457.01,55.494999 c -17.75,0 -31.27,12.85 -31.27,34.18 0,21.330001 13.38,34.180001 31.27,34.180001 17.89,0 31.53,-12.59 31.53,-34.180001 0,-21.59 -13.65,-34.18 -31.53,-34.18 z m 0,56.700001 c -9.81,0 -15.9,-7.82 -15.9,-22.520001 0,-14.7 6.09,-22.39 15.9,-22.39 9.81,0 16.03,7.82 16.03,22.39 0,14.570001 -6.09,22.520001 -16.03,22.520001 z"
       id="path16"
       style="fill:#fafaf5;fill-opacity:1" /><path
       class="cls-1"
       d="m 528.01,55.494999 c -17.75,0 -31.27,12.85 -31.27,34.18 0,21.330001 13.38,34.180001 31.27,34.180001 17.89,0 31.53,-12.59 31.53,-34.180001 0,-21.59 -13.65,-34.18 -31.53,-34.18 z m 0,56.700001 c -9.8,0 -15.9,-7.82 -15.9,-22.520001 0,-14.7 6.09,-22.39 15.9,-22.39 9.81,0 16.03,7.82 16.03,22.39 0,14.570001 -6.09,22.520001 -16.03,22.520001 z"
       id="path18"
       style="fill:#fafaf5;fill-opacity:1" /><path
       class="cls-1"
       d="m 615.85,69.804999 c -3.18,-7.68 -9.94,-13.91 -20.8,-13.91 -16.03,0 -27.16,12.98 -27.16,34.05 0,21.070001 11.13,34.050001 26.5,34.050001 10.73,0 18.15,-5.83 21.73,-14.04 v 12.45 h 14.97 V 31.124999 h -15.24 v 38.69 z M 599.69,112.735 c -10.33,0 -16.43,-7.95 -16.43,-22.920001 0,-14.97 6.23,-22.65 16.56,-22.65 10.33,0 16.3,8.48 16.3,22.79 0,14.310001 -6.23,22.790001 -16.43,22.790001 z"
       id="path20"
       style="fill:#fafaf5;fill-opacity:1" /><polygon
       class="cls-1"
       points="738.92,177.1 738.92,99.99 723.02,99.99 723.02,191.27 781.18,191.27 781.18,177.1 "
       id="polygon22"
       transform="translate(0,-68.875001)"
       style="fill:#fafaf5;fill-opacity:1" /><path
       class="cls-1"
       d="m 817.74,55.494999 c -17.75,0 -31.26,12.85 -31.26,34.18 0,21.330001 13.38,34.180001 31.26,34.180001 17.88,0 31.53,-12.59 31.53,-34.180001 0,-21.59 -13.65,-34.18 -31.53,-34.18 z m 0,56.700001 c -9.8,0 -15.9,-7.82 -15.9,-22.520001 0,-14.7 6.09,-22.39 15.9,-22.39 9.81,0 16.03,7.82 16.03,22.39 0,14.570001 -6.09,22.520001 -16.03,22.520001 z"
       id="path24"
       style="fill:#fafaf5;fill-opacity:1" /><path
       class="cls-1"
       d="m 888.75,55.494999 c -17.75,0 -31.26,12.85 -31.26,34.18 0,21.330001 13.38,34.180001 31.26,34.180001 17.88,0 31.53,-12.59 31.53,-34.180001 0,-21.59 -13.65,-34.18 -31.53,-34.18 z m 0,56.700001 c -9.8,0 -15.9,-7.82 -15.9,-22.520001 0,-14.7 6.09,-22.39 15.9,-22.39 9.81,0 16.03,7.82 16.03,22.39 0,14.570001 -6.09,22.520001 -16.03,22.520001 z"
       id="path26"
       style="fill:#fafaf5;fill-opacity:1" /><path
       class="cls-1"
       d="m 968.9,56.024999 c -11.13,0 -18.81,6.23 -22.26,14.71 v -13.25 H 931.93 V 148.235 h 15.1 v -38.02 c 3.31,7.68 10.2,13.78 21.07,13.78 15.77,0 26.89,-12.98 26.89,-34.180001 0,-21.2 -11,-33.78 -26.1,-33.78 z M 963.33,112.865 c -10.07,0 -16.56,-8.61 -16.56,-22.920001 0,-13.51 6.36,-22.79 16.69,-22.79 10.33,0 16.16,8.21 16.16,23.05 0,14.840001 -6.23,22.650001 -16.3,22.650001 z"
       id="path28"
       style="fill:#fafaf5;fill-opacity:1" /></g><text
     xml:space="preserve"
     style="font-weight:500;font-size:36px;line-height:1.25;font-family:'ABC Social';-inkscape-font-specification:'ABC Social Medium';word-spacing:0px"
     x="-1.1160001"
     y="369.70331"
     id="text962"><tspan
       sodipodi:role="line"
       x="-1.1160001"
       y="369.70331"
       style="font-size:36px"
       id="tspan970">Sub-site logo template: do not save over this file</tspan><tspan
       sodipodi:role="line"
       x="-1.1160001"
       y="414.70331"
       style="font-size:36px"
       id="tspan968">- Install &quot;ABC Social&quot; typeface set</tspan><tspan
       sodipodi:role="line"
       x="-1.1160001"
       y="459.70331"
       style="font-size:36px"
       id="tspan974">- Open in Inkscape</tspan><tspan
       sodipodi:role="line"
       x="-1.1160001"
       y="504.70331"
       style="font-size:36px"
       id="tspan964">- Edit &quot;Subsite&quot; text as needed</tspan><tspan
       sodipodi:role="line"
       x="-1.1160001"
       y="549.70331"
       style="font-size:36px"
       id="tspan966">- Convert text object to path</tspan><tspan
       sodipodi:role="line"
       x="-1.1160001"
       y="594.70331"
       style="font-size:36px"
       id="tspan978">- Delete these instructions</tspan><tspan
       sodipodi:role="line"
       x="-1.1160001"
       y="639.70331"
       style="font-size:36px"
       id="tspan976">- Save as... → Plain SVG</tspan></text></svg>
