<?xml version="1.0" encoding="UTF-8" standalone="no"?>
<svg
   id="Layer_1"
   data-name="Layer 1"
   viewBox="0 0 1000 290"
   version="1.1"
   xml:space="preserve"
   xmlns="http://www.w3.org/2000/svg"
   xmlns:svg="http://www.w3.org/2000/svg"><defs
     id="defs4"><style
       id="style2">
      .cls-1 {
        stroke-width: 0px;
      }
    </style></defs><g
     aria-label="Test Pages"
     id="text1801"
     style="font-weight:500;font-size:132.474px;line-height:1.25;font-family:'ABC Social';-inkscape-font-specification:'ABC Social Medium';word-spacing:0px;fill:#fafaf5;stroke-width:13.2474"><path
       d="m 377.73678,259.57999 v -77.23234 h 30.20407 V 168.3054 h -76.30502 v 14.04225 h 30.20407 v 77.23234 z"
       id="path1656" /><path
       d="m 460.53321,227.3888 c 0,-21.19584 -10.86286,-34.70818 -30.07159,-34.70818 -17.75152,0 -31.26387,12.58503 -31.26387,34.17829 0,20.66594 11.26029,34.17829 31.66129,34.17829 15.7644,0 25.43501,-8.61081 29.40923,-18.81131 l -12.45256,-5.16648 c -2.91443,7.68349 -8.21339,12.45255 -16.42678,12.45255 -11.39276,0 -16.95667,-7.94844 -17.35409,-19.47368 h 46.49837 z m -30.20407,-23.58037 c 8.74329,0 14.57214,5.29896 15.10204,15.89688 h -30.99892 c 1.05979,-10.06802 6.88865,-15.89688 15.89688,-15.89688 z"
       id="path1658" /><path
       d="m 469.01146,242.22589 c 2.25206,11.26029 12.58503,19.20873 28.61438,19.20873 16.42678,0 27.0247,-7.81596 27.0247,-20.66594 0,-9.14071 -5.29896,-15.89688 -17.88399,-19.20873 l -11.26029,-3.0469 c -7.1536,-1.98711 -10.2005,-3.84175 -10.2005,-8.34587 0,-4.23916 3.84175,-7.28607 11.12782,-7.28607 8.34586,0 12.45255,5.16649 13.64482,10.46545 l 12.84998,-3.44432 c -2.78196,-10.7304 -12.71751,-17.22162 -25.83243,-17.22162 -14.83709,0 -25.30254,7.41854 -25.30254,19.20873 0,9.27318 5.96133,15.89688 17.61905,18.8113 l 10.59792,2.91443 c 7.94844,2.11959 10.46544,4.23917 10.46544,9.00823 0,4.76907 -4.23917,8.47834 -12.58503,8.47834 -8.61081,0 -14.30719,-5.43143 -15.63193,-12.58503 z"
       id="path1660" /><path
       d="m 542.93193,206.06049 v 34.97314 c 0,13.37987 7.02112,19.8711 20.13604,19.8711 4.76907,0 9.00824,-1.19227 11.39277,-2.38454 v -11.12781 c -2.64948,0.79484 -4.76907,1.19226 -7.41855,1.19226 -6.49122,0 -9.53812,-2.517 -9.53812,-9.53812 v -32.98603 h 16.2943 v -11.39276 h -16.42678 v -19.34121 h -14.43966 v 19.34121 h -14.3072 v 11.39276 z"
       id="path1662" /><path
       d="m 631.68945,259.57999 v -34.44324 h 22.52058 c 19.8711,0 30.73397,-11.79019 30.73397,-28.74686 0,-16.8242 -10.33297,-28.08449 -29.80665,-28.08449 h -39.34477 v 91.27459 z m 0,-47.55817 v -30.60149 h 20.13605 c 11.26029,0 16.8242,4.63659 16.8242,15.10203 0,10.33297 -5.82886,15.49946 -17.35409,15.49946 z"
       id="path1664" /><path
       d="m 754.09553,249.77691 c -3.97422,0 -5.82886,-1.72216 -5.82886,-7.41854 v -24.37522 c 0,-16.42678 -9.93555,-25.30253 -27.95201,-25.30253 -15.63194,0 -26.75975,7.94844 -27.42212,19.60615 l 14.17472,2.38453 v -1.19227 c 0.52989,-6.75617 5.5639,-10.46544 13.2474,-10.46544 9.40565,0 13.37987,4.50411 13.37987,12.7175 v 3.5768 c -3.17938,-0.26495 -6.49123,-0.5299 -10.46545,-0.5299 -17.35409,0.26495 -31.26386,6.22628 -31.26386,22.78553 0,12.71751 8.87576,19.8711 21.19584,19.8711 10.99534,0 18.54636,-5.82885 21.85821,-14.04224 0.5299,8.47833 5.43143,13.37987 14.43967,13.37987 3.31185,0 6.75617,-0.79484 8.87575,-2.11958 v -9.6706 c -1.45721,0.66237 -2.91442,0.79484 -4.23916,0.79484 z m -36.03293,0.5299 c -7.02112,0 -11.26029,-3.70928 -11.26029,-9.80308 0,-9.00823 7.68349,-12.32008 20.00357,-12.58503 2.51701,0 4.76907,0.13247 6.88865,0.26495 v 4.63659 c 0,10.99534 -6.22628,17.48657 -15.63193,17.48657 z"
       id="path1666" /><path
       d="m 780.59039,239.44394 c 3.84174,1.32474 8.08091,2.11958 12.7175,2.11958 17.3541,0 27.68707,-9.93555 28.48191,-24.37521 v -3.31185 c 0.5299,-8.08092 4.37164,-10.99535 11.26029,-10.99535 h 2.11959 l -1.0598,-12.32008 c -10.46544,-0.13247 -14.96956,5.03402 -15.49945,15.23451 -3.97422,-7.94844 -13.2474,-12.84997 -25.17006,-12.84997 -17.08915,0 -28.61439,10.59791 -28.61439,24.50768 0,8.47834 3.97422,14.96957 10.2005,19.20873 -5.96133,1.85464 -11.65771,6.6237 -11.65771,13.37988 0,6.22628 3.5768,9.93555 9.00823,11.39276 -5.82886,1.72216 -10.73039,5.29896 -10.73039,11.39277 0,9.40565 10.46544,14.43966 30.33654,14.43966 25.56748,0 36.82777,-7.68349 36.82777,-20.66594 0,-10.2005 -7.81596,-15.89688 -20.79841,-15.89688 h -24.24275 c -6.22627,0 -9.00823,-1.58969 -9.00823,-5.03401 0,-2.91443 2.78196,-5.16649 5.82886,-6.22628 z m 12.7175,-36.1654 c 8.21339,0 14.04225,4.37164 14.04225,14.04224 0,9.6706 -5.82886,14.17472 -14.04225,14.17472 -8.21339,0 -13.90977,-4.50412 -13.90977,-14.04225 0,-9.6706 5.69638,-14.17471 13.90977,-14.17471 z m 13.11493,59.87824 c 5.69638,0 8.74328,1.85464 8.74328,5.69639 0,5.69638 -6.22628,8.47833 -22.52058,8.47833 -12.7175,0 -19.20873,-2.25206 -19.20873,-7.55102 0,-3.84174 3.5768,-6.6237 9.6706,-6.6237 z"
       id="path1668" /><path
       d="m 898.62488,227.3888 c 0,-21.19584 -10.86287,-34.70818 -30.0716,-34.70818 -17.75151,0 -31.26386,12.58503 -31.26386,34.17829 0,20.66594 11.26029,34.17829 31.66128,34.17829 15.76441,0 25.43501,-8.61081 29.40923,-18.81131 l -12.45255,-5.16648 c -2.91443,7.68349 -8.21339,12.45255 -16.42678,12.45255 -11.39276,0 -16.95667,-7.94844 -17.35409,-19.47368 h 46.49837 z m -30.20407,-23.58037 c 8.74328,0 14.57214,5.29896 15.10203,15.89688 h -30.99891 c 1.05979,-10.06802 6.88865,-15.89688 15.89688,-15.89688 z"
       id="path1670" /><path
       d="m 907.10313,242.22589 c 2.25206,11.26029 12.58503,19.20873 28.61439,19.20873 16.42677,0 27.02469,-7.81596 27.02469,-20.66594 0,-9.14071 -5.29896,-15.89688 -17.88399,-19.20873 l -11.26029,-3.0469 c -7.15359,-1.98711 -10.20049,-3.84175 -10.20049,-8.34587 0,-4.23916 3.84174,-7.28607 11.12781,-7.28607 8.34586,0 12.45256,5.16649 13.64482,10.46545 l 12.84998,-3.44432 c -2.78195,-10.7304 -12.7175,-17.22162 -25.83243,-17.22162 -14.83709,0 -25.30253,7.41854 -25.30253,19.20873 0,9.27318 5.96133,15.89688 17.61904,18.8113 l 10.59792,2.91443 c 7.94844,2.11959 10.46545,4.23917 10.46545,9.00823 0,4.76907 -4.23917,8.47834 -12.58503,8.47834 -8.61081,0 -14.3072,-5.43143 -15.63194,-12.58503 z"
       id="path1672" /></g><path
     class="cls-1"
     d="m 130.91,70.08 c -27.13,0 -49.13,22 -49.13,49.13 0,27.13 21.99,49.13 49.13,49.13 27.14,0 49.13,-22 49.13,-49.13 0,-11.11 -3.69,-21.35 -9.9,-29.58 h 20.92 V 70.06 h -60.14 z m 29.56,49.13 c 0,16.3 -13.26,29.56 -29.56,29.56 -16.3,0 -29.56,-13.26 -29.56,-29.56 0,-16.3 13.26,-29.56 29.56,-29.56 16.3,0 29.56,13.26 29.56,29.56 z"
     id="path6"
     style="fill:#fafaf5;fill-opacity:1" /><path
     class="cls-1"
     d="M 91.52,148.68 H 71.95 c 0,44.82 33.8,78.62 78.62,78.62 v -19.57 c -33.67,0 -59.05,-25.39 -59.05,-59.05 z"
     id="path8"
     style="fill:#fafaf5;fill-opacity:1" /><path
     class="cls-1"
     d="M 142.11,7.89 C 66.51,7.89 5,69.4 5,145 5,220.6 66.51,282.11 142.11,282.11 217.71,282.11 279.22,220.6 279.22,145 279.22,69.4 217.72,7.89 142.11,7.89 Z m 0,254.66 C 77.29,262.55 24.56,209.82 24.56,145 24.56,80.18 77.3,27.45 142.11,27.45 c 64.81,0 117.55,52.73 117.55,117.55 0,64.82 -52.73,117.55 -117.55,117.55 z"
     id="path10"
     style="fill:#fafaf5;fill-opacity:1" /><g
     id="g1075"
     transform="translate(1.9392214,0.775002)"
     style="fill:#fafaf5;fill-opacity:1"><rect
       class="cls-1"
       x="654.15002"
       y="67.115005"
       width="45.77"
       height="19.48"
       id="rect12"
       style="fill:#fafaf5;fill-opacity:1" /><path
       class="cls-1"
       d="m 378.18,88.214999 h 21.6 v 0.8 C 398.72,102.795 390.77,111.005 378.85,111.005 c -15.24,0 -24.64,-12.590001 -24.64,-34.180001 0,-20.4 9.14,-34.05 24.91,-34.05 11.39,0 18.95,6.76 20.93,19.61 l 14.04,-4.5 c -2.91,-16.69 -14.57,-28.75 -34.45,-28.75 -24.91,0 -41.73,18.28 -41.73,48.36 0,30.080001 15.9,46.900001 37.49,46.900001 15.1,0 23.85,-8.48 27.16,-19.47 v 17.49 h 11.92 V 76.044999 h -36.3 v 12.19 z"
       id="path14"
       style="fill:#fafaf5;fill-opacity:1" /><path
       class="cls-1"
       d="m 457.01,55.494999 c -17.75,0 -31.27,12.85 -31.27,34.18 0,21.330001 13.38,34.180001 31.27,34.180001 17.89,0 31.53,-12.59 31.53,-34.180001 0,-21.59 -13.65,-34.18 -31.53,-34.18 z m 0,56.700001 c -9.81,0 -15.9,-7.82 -15.9,-22.520001 0,-14.7 6.09,-22.39 15.9,-22.39 9.81,0 16.03,7.82 16.03,22.39 0,14.570001 -6.09,22.520001 -16.03,22.520001 z"
       id="path16"
       style="fill:#fafaf5;fill-opacity:1" /><path
       class="cls-1"
       d="m 528.01,55.494999 c -17.75,0 -31.27,12.85 -31.27,34.18 0,21.330001 13.38,34.180001 31.27,34.180001 17.89,0 31.53,-12.59 31.53,-34.180001 0,-21.59 -13.65,-34.18 -31.53,-34.18 z m 0,56.700001 c -9.8,0 -15.9,-7.82 -15.9,-22.520001 0,-14.7 6.09,-22.39 15.9,-22.39 9.81,0 16.03,7.82 16.03,22.39 0,14.570001 -6.09,22.520001 -16.03,22.520001 z"
       id="path18"
       style="fill:#fafaf5;fill-opacity:1" /><path
       class="cls-1"
       d="m 615.85,69.804999 c -3.18,-7.68 -9.94,-13.91 -20.8,-13.91 -16.03,0 -27.16,12.98 -27.16,34.05 0,21.070001 11.13,34.050001 26.5,34.050001 10.73,0 18.15,-5.83 21.73,-14.04 v 12.45 h 14.97 V 31.124999 h -15.24 v 38.69 z M 599.69,112.735 c -10.33,0 -16.43,-7.95 -16.43,-22.920001 0,-14.97 6.23,-22.65 16.56,-22.65 10.33,0 16.3,8.48 16.3,22.79 0,14.310001 -6.23,22.790001 -16.43,22.790001 z"
       id="path20"
       style="fill:#fafaf5;fill-opacity:1" /><polygon
       class="cls-1"
       points="738.92,177.1 738.92,99.99 723.02,99.99 723.02,191.27 781.18,191.27 781.18,177.1 "
       id="polygon22"
       transform="translate(0,-68.875001)"
       style="fill:#fafaf5;fill-opacity:1" /><path
       class="cls-1"
       d="m 817.74,55.494999 c -17.75,0 -31.26,12.85 -31.26,34.18 0,21.330001 13.38,34.180001 31.26,34.180001 17.88,0 31.53,-12.59 31.53,-34.180001 0,-21.59 -13.65,-34.18 -31.53,-34.18 z m 0,56.700001 c -9.8,0 -15.9,-7.82 -15.9,-22.520001 0,-14.7 6.09,-22.39 15.9,-22.39 9.81,0 16.03,7.82 16.03,22.39 0,14.570001 -6.09,22.520001 -16.03,22.520001 z"
       id="path24"
       style="fill:#fafaf5;fill-opacity:1" /><path
       class="cls-1"
       d="m 888.75,55.494999 c -17.75,0 -31.26,12.85 -31.26,34.18 0,21.330001 13.38,34.180001 31.26,34.180001 17.88,0 31.53,-12.59 31.53,-34.180001 0,-21.59 -13.65,-34.18 -31.53,-34.18 z m 0,56.700001 c -9.8,0 -15.9,-7.82 -15.9,-22.520001 0,-14.7 6.09,-22.39 15.9,-22.39 9.81,0 16.03,7.82 16.03,22.39 0,14.570001 -6.09,22.520001 -16.03,22.520001 z"
       id="path26"
       style="fill:#fafaf5;fill-opacity:1" /><path
       class="cls-1"
       d="m 968.9,56.024999 c -11.13,0 -18.81,6.23 -22.26,14.71 v -13.25 H 931.93 V 148.235 h 15.1 v -38.02 c 3.31,7.68 10.2,13.78 21.07,13.78 15.77,0 26.89,-12.98 26.89,-34.180001 0,-21.2 -11,-33.78 -26.1,-33.78 z M 963.33,112.865 c -10.07,0 -16.56,-8.61 -16.56,-22.920001 0,-13.51 6.36,-22.79 16.69,-22.79 10.33,0 16.16,8.21 16.16,23.05 0,14.840001 -6.23,22.650001 -16.3,22.650001 z"
       id="path28"
       style="fill:#fafaf5;fill-opacity:1" /></g></svg>
