<?xml version="1.0" encoding="UTF-8" standalone="no"?>
<svg
   id="Layer_1"
   data-name="Layer 1"
   viewBox="0 0 1000 290"
   version="1.1"
   xml:space="preserve"
   xmlns="http://www.w3.org/2000/svg"
   xmlns:svg="http://www.w3.org/2000/svg"><defs
     id="defs4"><style
       id="style2">
      .cls-1 {
        stroke-width: 0px;
      }
    </style></defs><g
     aria-label="Studio"
     id="text1801"
     style="font-weight:500;font-size:132.474px;line-height:1.25;font-family:'ABC Social';-inkscape-font-specification:'ABC Social Medium';word-spacing:0px;fill:#fafaf5;stroke-width:13.2474"><path
       d="m 334.68273,234.67487 c 2.38453,15.36699 12.45256,26.89223 34.17829,26.89223 20.13605,0 32.45613,-10.86287 32.45613,-26.4948 0,-14.70462 -9.80307,-22.91801 -24.11027,-27.81954 l -11.39276,-3.84175 c -7.68349,-2.64948 -13.37987,-6.0938 -13.37987,-13.51235 0,-7.68349 6.49122,-11.39276 15.23451,-11.39276 9.93555,0 16.2943,5.69638 17.75151,15.10204 l 0.13248,1.98711 14.04224,-3.5768 -0.13247,-1.72216 c -2.51701,-14.57214 -13.11493,-23.9778 -31.39634,-23.9778 -17.08915,0 -30.6015,8.61081 -30.6015,25.03759 0,15.49945 11.12782,22.52058 23.05048,26.75974 l 10.2005,3.44433 c 9.93555,3.70927 14.57214,7.15359 14.57214,14.83709 0,7.28607 -5.82886,12.32008 -16.16183,12.32008 -11.39276,0 -18.41389,-5.56391 -20.93089,-18.14894 l -0.39742,-2.11958 -13.7773,4.63659 z"
       id="path1393" /><path
       d="m 421.05584,206.06049 v 34.97314 c 0,13.37987 7.02112,19.8711 20.13605,19.8711 4.76906,0 9.00823,-1.19227 11.39276,-2.38454 v -11.12781 c -2.64948,0.79484 -4.76906,1.19226 -7.41854,1.19226 -6.49123,0 -9.53813,-2.517 -9.53813,-9.53812 v -32.98603 h 16.2943 v -11.39276 h -16.42677 v -19.34121 h -14.43967 v 19.34121 h -14.30719 v 11.39276 z"
       id="path1395" /><path
       d="m 484.51096,261.0372 c 10.99534,0 18.54636,-6.75617 21.99068,-16.02935 v 14.57214 h 14.83709 v -64.91226 h -15.10204 v 32.0587 c 0,14.3072 -6.88864,21.59327 -16.2943,21.59327 -7.41854,0 -11.12781,-5.03402 -11.12781,-15.36699 v -38.28498 h -14.96957 v 41.99425 c 0,14.83709 7.02113,24.37522 20.66595,24.37522 z"
       id="path1397" /><path
       d="m 582.27671,206.98781 c -3.17937,-7.68349 -9.93555,-13.90977 -20.79842,-13.90977 -16.02935,0 -27.15717,12.98245 -27.15717,34.04582 0,21.85821 11.12782,34.04581 26.4948,34.04581 10.7304,0 18.14894,-5.82885 21.72574,-14.04224 v 12.45256 h 14.96956 V 168.3054 h -15.23451 z m -16.16183,42.92157 c -10.33297,0 -16.42677,-7.94844 -16.42677,-22.918 0,-14.43966 6.22628,-22.65305 16.55925,-22.65305 9.93555,0 16.2943,8.47833 16.2943,22.78553 0,13.64482 -6.22628,22.78552 -16.42678,22.78552 z"
       id="path1399" /><path
       d="M 628.90759,183.40744 V 167.77551 H 614.0705 v 15.63193 z m 0.13247,76.17255 v -64.91226 h -15.10203 v 64.91226 z"
       id="path1401" /><path
       d="m 673.15384,261.0372 c 17.88399,0 31.52881,-12.58503 31.52881,-34.17829 0,-21.19584 -13.64482,-34.17829 -31.52881,-34.17829 -17.75152,0 -31.26387,12.84997 -31.26387,34.17829 0,21.46079 13.37988,34.17829 31.26387,34.17829 z m 0,-11.65771 c -9.80308,0 -15.89688,-7.81597 -15.89688,-22.52058 0,-14.70462 6.0938,-22.38811 15.89688,-22.38811 9.93555,0 16.02935,7.81597 16.02935,22.38811 0,14.70461 -6.0938,22.52058 -16.02935,22.52058 z"
       id="path1403" /></g><path
     class="cls-1"
     d="m 130.91,70.08 c -27.13,0 -49.13,22 -49.13,49.13 0,27.13 21.99,49.13 49.13,49.13 27.14,0 49.13,-22 49.13,-49.13 0,-11.11 -3.69,-21.35 -9.9,-29.58 h 20.92 V 70.06 h -60.14 z m 29.56,49.13 c 0,16.3 -13.26,29.56 -29.56,29.56 -16.3,0 -29.56,-13.26 -29.56,-29.56 0,-16.3 13.26,-29.56 29.56,-29.56 16.3,0 29.56,13.26 29.56,29.56 z"
     id="path6"
     style="fill:#fafaf5;fill-opacity:1" /><path
     class="cls-1"
     d="M 91.52,148.68 H 71.95 c 0,44.82 33.8,78.62 78.62,78.62 v -19.57 c -33.67,0 -59.05,-25.39 -59.05,-59.05 z"
     id="path8"
     style="fill:#fafaf5;fill-opacity:1" /><path
     class="cls-1"
     d="M 142.11,7.89 C 66.51,7.89 5,69.4 5,145 5,220.6 66.51,282.11 142.11,282.11 217.71,282.11 279.22,220.6 279.22,145 279.22,69.4 217.72,7.89 142.11,7.89 Z m 0,254.66 C 77.29,262.55 24.56,209.82 24.56,145 24.56,80.18 77.3,27.45 142.11,27.45 c 64.81,0 117.55,52.73 117.55,117.55 0,64.82 -52.73,117.55 -117.55,117.55 z"
     id="path10"
     style="fill:#fafaf5;fill-opacity:1" /><g
     id="g1075"
     transform="translate(1.9392214,0.775002)"
     style="fill:#fafaf5;fill-opacity:1"><rect
       class="cls-1"
       x="654.15002"
       y="67.115005"
       width="45.77"
       height="19.48"
       id="rect12"
       style="fill:#fafaf5;fill-opacity:1" /><path
       class="cls-1"
       d="m 378.18,88.214999 h 21.6 v 0.8 C 398.72,102.795 390.77,111.005 378.85,111.005 c -15.24,0 -24.64,-12.590001 -24.64,-34.180001 0,-20.4 9.14,-34.05 24.91,-34.05 11.39,0 18.95,6.76 20.93,19.61 l 14.04,-4.5 c -2.91,-16.69 -14.57,-28.75 -34.45,-28.75 -24.91,0 -41.73,18.28 -41.73,48.36 0,30.080001 15.9,46.900001 37.49,46.900001 15.1,0 23.85,-8.48 27.16,-19.47 v 17.49 h 11.92 V 76.044999 h -36.3 v 12.19 z"
       id="path14"
       style="fill:#fafaf5;fill-opacity:1" /><path
       class="cls-1"
       d="m 457.01,55.494999 c -17.75,0 -31.27,12.85 -31.27,34.18 0,21.330001 13.38,34.180001 31.27,34.180001 17.89,0 31.53,-12.59 31.53,-34.180001 0,-21.59 -13.65,-34.18 -31.53,-34.18 z m 0,56.700001 c -9.81,0 -15.9,-7.82 -15.9,-22.520001 0,-14.7 6.09,-22.39 15.9,-22.39 9.81,0 16.03,7.82 16.03,22.39 0,14.570001 -6.09,22.520001 -16.03,22.520001 z"
       id="path16"
       style="fill:#fafaf5;fill-opacity:1" /><path
       class="cls-1"
       d="m 528.01,55.494999 c -17.75,0 -31.27,12.85 -31.27,34.18 0,21.330001 13.38,34.180001 31.27,34.180001 17.89,0 31.53,-12.59 31.53,-34.180001 0,-21.59 -13.65,-34.18 -31.53,-34.18 z m 0,56.700001 c -9.8,0 -15.9,-7.82 -15.9,-22.520001 0,-14.7 6.09,-22.39 15.9,-22.39 9.81,0 16.03,7.82 16.03,22.39 0,14.570001 -6.09,22.520001 -16.03,22.520001 z"
       id="path18"
       style="fill:#fafaf5;fill-opacity:1" /><path
       class="cls-1"
       d="m 615.85,69.804999 c -3.18,-7.68 -9.94,-13.91 -20.8,-13.91 -16.03,0 -27.16,12.98 -27.16,34.05 0,21.070001 11.13,34.050001 26.5,34.050001 10.73,0 18.15,-5.83 21.73,-14.04 v 12.45 h 14.97 V 31.124999 h -15.24 v 38.69 z M 599.69,112.735 c -10.33,0 -16.43,-7.95 -16.43,-22.920001 0,-14.97 6.23,-22.65 16.56,-22.65 10.33,0 16.3,8.48 16.3,22.79 0,14.310001 -6.23,22.790001 -16.43,22.790001 z"
       id="path20"
       style="fill:#fafaf5;fill-opacity:1" /><polygon
       class="cls-1"
       points="738.92,177.1 738.92,99.99 723.02,99.99 723.02,191.27 781.18,191.27 781.18,177.1 "
       id="polygon22"
       transform="translate(0,-68.875001)"
       style="fill:#fafaf5;fill-opacity:1" /><path
       class="cls-1"
       d="m 817.74,55.494999 c -17.75,0 -31.26,12.85 -31.26,34.18 0,21.330001 13.38,34.180001 31.26,34.180001 17.88,0 31.53,-12.59 31.53,-34.180001 0,-21.59 -13.65,-34.18 -31.53,-34.18 z m 0,56.700001 c -9.8,0 -15.9,-7.82 -15.9,-22.520001 0,-14.7 6.09,-22.39 15.9,-22.39 9.81,0 16.03,7.82 16.03,22.39 0,14.570001 -6.09,22.520001 -16.03,22.520001 z"
       id="path24"
       style="fill:#fafaf5;fill-opacity:1" /><path
       class="cls-1"
       d="m 888.75,55.494999 c -17.75,0 -31.26,12.85 -31.26,34.18 0,21.330001 13.38,34.180001 31.26,34.180001 17.88,0 31.53,-12.59 31.53,-34.180001 0,-21.59 -13.65,-34.18 -31.53,-34.18 z m 0,56.700001 c -9.8,0 -15.9,-7.82 -15.9,-22.520001 0,-14.7 6.09,-22.39 15.9,-22.39 9.81,0 16.03,7.82 16.03,22.39 0,14.570001 -6.09,22.520001 -16.03,22.520001 z"
       id="path26"
       style="fill:#fafaf5;fill-opacity:1" /><path
       class="cls-1"
       d="m 968.9,56.024999 c -11.13,0 -18.81,6.23 -22.26,14.71 v -13.25 H 931.93 V 148.235 h 15.1 v -38.02 c 3.31,7.68 10.2,13.78 21.07,13.78 15.77,0 26.89,-12.98 26.89,-34.180001 0,-21.2 -11,-33.78 -26.1,-33.78 z M 963.33,112.865 c -10.07,0 -16.56,-8.61 -16.56,-22.920001 0,-13.51 6.36,-22.79 16.69,-22.79 10.33,0 16.16,8.21 16.16,23.05 0,14.840001 -6.23,22.650001 -16.3,22.650001 z"
       id="path28"
       style="fill:#fafaf5;fill-opacity:1" /></g></svg>
