<?xml version="1.0" encoding="UTF-8" standalone="no"?>
<svg
   width="133.30972mm"
   height="132.50679mm"
   viewBox="0 0 377.88593 375.61006"
   version="1.1"
   id="svg14"
   sodipodi:docname="logo.blue.svg"
   inkscape:version="1.1.1 (1:1.1+202109281943+c3084ef5ed)"
   xmlns:inkscape="http://www.inkscape.org/namespaces/inkscape"
   xmlns:sodipodi="http://sodipodi.sourceforge.net/DTD/sodipodi-0.dtd"
   xmlns="http://www.w3.org/2000/svg"
   xmlns:svg="http://www.w3.org/2000/svg"
   xmlns:rdf="http://www.w3.org/1999/02/22-rdf-syntax-ns#"
   xmlns:cc="http://creativecommons.org/ns#"
   xmlns:dc="http://purl.org/dc/elements/1.1/">
  <metadata
     id="metadata20">
    <rdf:RDF>
      <cc:Work
         rdf:about="">
        <dc:format>image/svg+xml</dc:format>
        <dc:type
           rdf:resource="http://purl.org/dc/dcmitype/StillImage" />
        <dc:title>GoodLoopLogos</dc:title>
      </cc:Work>
    </rdf:RDF>
  </metadata>
  <defs
     id="defs18" />
  <sodipodi:namedview
     pagecolor="#ffffff"
     bordercolor="#666666"
     borderopacity="1"
     objecttolerance="10"
     gridtolerance="10"
     guidetolerance="10"
     inkscape:pageopacity="0"
     inkscape:pageshadow="2"
     inkscape:window-width="1920"
     inkscape:window-height="1015"
     id="namedview16"
     showgrid="false"
     inkscape:zoom="1.1893651"
     inkscape:cx="250.13345"
     inkscape:cy="249.71306"
     inkscape:window-x="0"
     inkscape:window-y="0"
     inkscape:window-maximized="1"
     inkscape:current-layer="g12"
     inkscape:pagecheckerboard="0"
     inkscape:document-units="mm" />
  <title
     id="title2">GoodLoopLogos</title>
  <g
     id="g12"
     transform="translate(-232,-109.833)">
    <path
       d="m 532.862,146.347 c 5.805,26.929 -3.109,61.66 -12.962,81.013 -7.291,14.328 -16.644,27.533 -27.072,40.054 q -5.067,6.081 -10.442,11.962 c -1.656,-4.337 -3.068,-8.748 -4.326,-13.2 -3.645,4.5 -7.512,9.065 -11.727,13.728 a 147.836,147.836 0 0 0 7.388,20.043 c 5.011,10.915 13.924,30.785 27.133,33.794 4.967,1.134 9.444,-1.962 12.448,-12.078 a 72.4,72.4 0 0 0 2.1,-9.778 c 1.054,-7 6.291,-9.6 11.681,-9.049 a 14.98,14.98 0 0 1 4.333,1.078 c 5.332,2.26 9.674,7.564 8.6,14.715 a 59.016,59.016 0 0 1 -8.7,23.824 c -9.646,14.646 -25.333,20.707 -41.237,14.98 a 51.532,51.532 0 0 1 -19.64,-13.341 c -10.469,-11.028 -17.4,-25.173 -22.7,-39.241 -0.528,-1.4 -1,-2.839 -1.5,-4.26 -3.886,3.759 -7.667,7.366 -11.376,10.874 1.594,3.792 3.283,7.561 5.19,11.232 -3.654,3.634 -7.307,7.266 -10.82,10.909 -6.91,7.164 -13.864,14.538 -20.544,22.147 a 150.937,150.937 0 0 0 -11.874,-9.37 c -4,3.6 -7.8,7.032 -11.456,10.348 a 98.9,98.9 0 0 1 27.661,31.21 77.214,77.214 0 0 1 6.31,14.259 c 9.511,29.692 -0.677,69.122 -31.779,80.258 a 191.058,191.058 0 0 0 33.394,2.985 c 104.347,0 188.941,-84.083 188.941,-187.806 0,-62.077 -30.32,-117.1 -77.024,-151.29"
       id="path4"
       inkscape:connector-curvature="0"
       style="fill:#5ca5c0;fill-opacity:1" />
    <path
       d="m 474.085,249.154 c 3.773,-4.535 7.477,-9.129 10.918,-13.924 14.013,-19.524 22.912,-40.281 23.283,-64.777 0.174,-11.269 -2.175,-28.98 -11.8,-33.515 -3.544,-1.67 -8.043,-1.6 -13.809,1.3 -0.417,0.21 -0.782,0.489 -1.185,0.719 -21.15,11.956 -23.493,48.166 -23.952,68.931 -0.177,8.02 0.094,16.1 0.691,24.186 a 11.8,11.8 0 0 0 0.13,2.148 c 1.279,15.45 3.607,30.85 7.971,45.684 4.215,-4.663 8.081,-9.228 11.727,-13.731 q -2.376,-8.407 -3.975,-17.02"
       id="path6"
       inkscape:connector-curvature="0"
       style="fill:#3e767f;fill-opacity:1" />
    <path
       d="m 395.153,345.155 c -2.258,-1.6 -4.55,-3.164 -6.849,-4.72 4.754,-5.406 9.546,-10.68 14.173,-15.633 8.742,-9.35 17.877,-18.44 27.031,-27.534 0.843,2.554 1.724,5.086 2.664,7.582 0.835,2.214 1.761,4.414 2.689,6.616 3.709,-3.507 7.49,-7.114 11.376,-10.875 -6.876,-19.7 -10.776,-41.144 -12.885,-61.533 -3.22,-31.14 -2.443,-65.573 11.241,-94.085 a 69.791,69.791 0 0 1 19.991,-24.61 58.721,58.721 0 0 1 5.884,-3.966 190.128,190.128 0 0 0 -49.523,-6.564 C 316.6,109.833 232,193.919 232,297.636 c 0,69.114 37.584,129.466 93.519,162.074 -14.2,-26.094 -2.252,-62.386 18.126,-82.076 0.923,-0.893 3.4,-3.151 3.4,-3.151 a 101.736,101.736 0 0 1 11.15,8.095 c 2.808,-2.927 5.873,-5.959 9.1,-9.073 -6.6,-5.186 -13.283,-10.138 -20.387,-14.895 -9.333,-6.252 -19.181,-12.628 -26.5,-21.254 -22.807,-26.887 -25.72,-70.927 -3.388,-98.944 a 63.6,63.6 0 0 1 6.376,-7.007 c 11.523,-10.724 24.681,-15.248 37.6,-14.947 19.488,0.451 38.421,11.979 50.305,30.577 4.417,6.907 1.117,13.532 -4.383,16.727 a 14.917,14.917 0 0 1 -4.533,1.716 12.205,12.205 0 0 1 -13.123,-5.638 C 379.083,243.9 362.37,237.45 348.015,245 a 35.594,35.594 0 0 0 -11.833,10.356 c -0.422,0.564 -0.782,1.164 -1.174,1.744 -12.949,19.115 -9.417,46.911 5.033,64.089 12.111,14.4 28.979,23.888 44.388,34.8 0.32,0.227 0.608,0.511 0.928,0.744 3.66,-3.317 7.46,-6.747 11.457,-10.346 -0.559,-0.406 -1.1,-0.832 -1.661,-1.23"
       id="path8"
       inkscape:connector-curvature="0"
       style="fill:#3e767f;fill-opacity:1" />
    <path
       d="m 358.2,382.579 a 62.644,62.644 0 0 1 8.143,8.021 c 0.367,0.448 -9.232,10.348 -10.2,11.559 a 50.3,50.3 0 0 0 -9.61,19.1 c -3.239,13.074 -0.655,30.867 12.49,37.8 20.113,10.6 39.175,-13.871 38.515,-33.492 -0.575,-17.147 -6.938,-32.962 -19.989,-43.8 -3.416,-2.835 -6.824,-5.569 -10.248,-8.255 -3.229,3.115 -6.294,6.144 -9.105,9.073"
       id="path10"
       inkscape:connector-curvature="0"
       style="fill:#5ca5c0;fill-opacity:1" />
  </g>
</svg>
